<svg xmlns="http://www.w3.org/2000/svg" xmlns:xlink="http://www.w3.org/1999/xlink" viewBox="0 0 32.1 26.82"><path d="M8.4,17l1.2-2.3A3,3,0,0,1,12.3,13H16a10,10,0,0,1,8-4,9.74,9.74,0,0,1,3.4.6A7.31,7.31,0,0,0,26,8h1a.94.94,0,0,0,1-1,.94.94,0,0,0-1-1H24.2L23,3a5.05,5.05,0,0,0-4.6-3H9.6A5.05,5.05,0,0,0,5,3L3.7,6H1A.94.94,0,0,0,0,7,.94.94,0,0,0,1,8H2a5.07,5.07,0,0,0-2,4v4a2.87,2.87,0,0,0,1,2.2V20a3,3,0,0,0,3,3H6a3,3,0,0,0,3-3V19h5a12.31,12.31,0,0,1,.2-2ZM7,14H4a1,1,0,0,1,0-2H7a1,1,0,0,1,0,2M5.5,7,6.9,3.8A2.94,2.94,0,0,1,9.6,2h8.7a3.08,3.08,0,0,1,2.8,1.8L22.5,7Z" transform="translate(0 0)" fill="currentColor"/><path d="M31.7,16.9a1,1,0,0,0-1.2-.7c-.7.2-1.2,0-1.3-.2s0-.7.5-1.3a1,1,0,0,0,0-1.4,8.18,8.18,0,0,0-3.6-2.1,1,1,0,0,0-1.2.7c-.2.7-.6,1-.9,1s-.6-.4-.9-1a1.09,1.09,0,0,0-1.2-.7,8.18,8.18,0,0,0-3.6,2.1,1,1,0,0,0,0,1.4,1.36,1.36,0,0,1,.5,1.3c-.1.2-.6.4-1.3.2a1,1,0,0,0-1.2.7,7.5,7.5,0,0,0,0,4.2,1,1,0,0,0,1.2.7c.7-.2,1.2,0,1.3.2s0,.7-.5,1.3a1,1,0,0,0,0,1.4,8.18,8.18,0,0,0,3.6,2.1,1,1,0,0,0,1.2-.7c.2-.7.6-1,.9-1s.6.4.9,1a1,1,0,0,0,1,.7h.3a8.18,8.18,0,0,0,3.6-2.1,1,1,0,0,0,0-1.4,1.36,1.36,0,0,1-.5-1.3c.1-.2.6-.4,1.3-.2a1,1,0,0,0,1.2-.7,7.61,7.61,0,0,0,.3-2.1,7.79,7.79,0,0,0-.4-2.1M24,22a3,3,0,1,1,3-3,2.95,2.95,0,0,1-3,3" transform="translate(0 0)" fill="currentColor" /></svg>