<svg width="17" height="17" viewBox="0 0 17 17" fill="none" xmlns="http://www.w3.org/2000/svg">
<path d="M16.0686 6.81992H15.1674C14.9999 6.16688 14.7385 5.55526 14.3975 4.99578L15.0454 4.34644C15.2203 4.17153 15.3164 3.9382 15.3164 3.69044C15.3164 3.44306 15.2196 3.20935 15.0454 3.03481L13.9656 1.95616C13.6154 1.6056 13.0034 1.60597 12.6547 1.95579L11.9795 2.62694C11.4263 2.30449 10.8332 2.056 10.1798 1.89625V0.931855C10.1798 0.420444 9.77116 0 9.25975 0H7.73329C7.22188 0 6.81955 0.420444 6.81955 0.931855V1.89588C6.16651 2.05526 5.56968 2.30412 5.01575 2.62694L4.34089 1.95579C3.99108 1.60523 3.37871 1.6056 3.02779 1.95542L1.94876 3.03408C1.7757 3.20676 1.67697 3.44564 1.67697 3.6897C1.67697 3.93709 1.77274 4.17005 1.94802 4.34496L2.59588 4.99578C2.25531 5.55526 1.9935 6.16688 1.82636 6.81992H0.924829C0.413048 6.81992 0 7.23112 0 7.74142V9.26678C0 9.77856 0.413048 10.1805 0.924829 10.1805H1.82636C1.9935 10.8336 2.25494 11.4489 2.59514 12.0084L1.94728 12.6603C1.772 12.8352 1.67586 13.0693 1.67586 13.317C1.67586 13.5648 1.77237 13.7988 1.94728 13.9738L3.02705 15.0532C3.20233 15.2281 3.43492 15.3242 3.68231 15.3242C3.92969 15.3242 4.16265 15.2277 4.33793 15.0532L5.01575 14.3816C5.56968 14.7044 6.16651 14.9529 6.81955 15.1131V16.076C6.81955 16.5874 7.22188 16.9997 7.73329 16.9997H9.25975C9.77116 16.9997 10.1798 16.5874 10.1798 16.076V15.1127C10.8332 14.9529 11.4263 14.7044 11.9803 14.3816L12.6521 15.0517C12.8274 15.2273 13.0604 15.3235 13.3085 15.3235C13.5563 15.3235 13.7896 15.227 13.9645 15.0524L15.0443 13.9738C15.2192 13.7992 15.315 13.5659 15.3157 13.3185C15.3157 13.0707 15.2188 12.8381 15.0443 12.6629L14.3972 12.0084C14.7374 11.4485 14.9988 10.8328 15.1663 10.1805H16.0678C16.5793 10.1805 16.9997 9.77856 16.9997 9.26678V7.74142C17.0001 7.23112 16.58 6.81992 16.0686 6.81992ZM8.49615 11.4078C6.87724 11.4078 5.5645 10.1073 5.5645 8.50428C5.5645 6.90016 6.87724 5.60148 8.49615 5.60148C10.1154 5.60148 11.4289 6.90016 11.4289 8.50428C11.4285 10.1077 10.1154 11.4078 8.49615 11.4078Z" fill="currentColor"/>
</svg>
