<svg xmlns="http://www.w3.org/2000/svg" xmlns:xlink="http://www.w3.org/1999/xlink" viewBox="0 0 26.69 16"><path d="M14.25,16c.89,0,.89-1.28.89-1.78a1.91,1.91,0,0,1,1.78-1.77c.88,0,2.41,1.52,3.55,2.66.89.89.89.89,1.78.89h2.66a1.8,1.8,0,0,0,1.78-1.78c0-.55-.61-1.49-2.67-3.55-1.77-1.78-2.68-.86,0-4.44C25.66,4,26.85,2.06,26.65,1.49S21.9.08,21.36.89a32.75,32.75,0,0,0-2.67,4.44C17.8,7.11,17.72,8,16.92,8S16,6.27,16,5.33c0-2.94.42-5-.89-5.33H12.48A5.14,5.14,0,0,0,9.81.89s-1.11.86-.89.89,1.78-.37,1.78.89V4.44S10.7,8,9.81,8,7.14,4.44,5.37,1.78c-.7-1-.89-.89-1.78-.89S1.82.93.93.93s-1,.56-.89.85C1.81,6.22,3.09,9,6.47,12.52c3.09,3.23,5.16,3.4,6.89,3.47.45,0,0,0,.89,0" transform="translate(0 0)" fill="currentColor"/></svg>