<svg width="225" height="53" viewBox="0 0 225 53" fill="none" xmlns="http://www.w3.org/2000/svg">
<path id="path2987" d="M58.2954 51.1908C58.3001 51.0378 58.2493 50.9403 58.1824 50.974C58.1155 51.0078 57.984 50.8598 57.8902 50.645C57.7913 50.4184 57.633 50.2518 57.5132 50.2481C57.3501 50.243 57.3379 50.2107 57.4551 50.0937C57.5691 49.9799 57.5669 49.9335 57.4456 49.8935C57.3214 49.8524 57.3285 49.8002 57.4789 49.6486C57.6246 49.5018 57.6337 49.4439 57.5173 49.4054C57.4333 49.3776 57.366 49.3072 57.3678 49.2488C57.3696 49.1905 57.4251 49.1744 57.491 49.213C57.5597 49.2532 57.5818 49.2102 57.5426 49.1122C57.5051 49.0182 57.5378 48.9432 57.6153 48.9456C57.718 48.9488 57.7222 48.8899 57.6309 48.7285C57.5302 48.5505 57.5438 48.5081 57.6998 48.513C57.8568 48.5178 57.8653 48.4901 57.7441 48.3685C57.5891 48.2129 57.2747 48.338 57.3089 48.5417C57.3178 48.5943 57.2594 48.6565 57.1791 48.6799C57.0831 48.7078 57.0601 48.6408 57.112 48.484C57.1554 48.3528 57.1397 48.27 57.0771 48.2998C57.0146 48.3297 56.8535 48.3147 56.7192 48.2665C56.5255 48.197 56.584 48.1659 57.0016 48.1161C57.3301 48.0769 57.5301 47.9955 57.5331 47.8998C57.5357 47.8154 57.6457 47.7497 57.7776 47.7537C57.9094 47.7578 58.0962 47.668 58.1926 47.5541C58.3655 47.3499 59.0026 47.0837 59.205 47.1311C59.2622 47.1445 59.6249 47.0954 60.011 47.022C60.397 46.9487 61.061 46.8649 61.4865 46.8359C61.9119 46.8069 62.2923 46.74 62.3318 46.6873C62.3713 46.6346 62.5252 46.5941 62.6739 46.5974C62.8226 46.6006 63.2818 46.4691 63.6943 46.305C64.1069 46.1409 64.5383 46.0085 64.653 46.0107C64.7678 46.0129 64.8975 45.9669 64.9413 45.9084C64.9851 45.8499 64.9583 45.8001 64.8817 45.7978C64.7107 45.7925 64.7875 45.3082 64.9601 45.303C65.028 45.301 65.3289 45.2454 65.6287 45.1796C65.9285 45.1138 66.3083 45.0941 66.4727 45.1358C66.6371 45.1776 66.9494 45.1693 67.1666 45.1174C67.3839 45.0655 67.873 44.9792 68.2536 44.9257C69.2981 44.7787 69.8575 44.6463 69.8606 44.5451C69.8639 44.4404 63.5338 44.3174 61.9633 44.3917C61.1359 44.4309 60.8215 44.4034 60.4856 44.2626C60.251 44.1643 60.0315 44.0759 59.9978 44.0662C59.9642 44.0565 59.7763 43.9845 59.5802 43.9062C59.3842 43.8279 59.1353 43.7912 59.0272 43.8246C58.919 43.858 57.2757 43.8547 55.3754 43.8173C53.4751 43.7799 51.6691 43.7902 51.3619 43.8403C51.0548 43.8904 50.1366 43.9675 49.3215 44.0117C48.5064 44.056 47.7318 44.1389 47.6001 44.1961C47.4684 44.2533 47.0902 44.2688 46.7597 44.2304C46.4292 44.1921 46.1276 44.2025 46.0894 44.2535C46.0512 44.3046 45.9691 44.3166 45.907 44.2802C45.845 44.2438 45.7926 44.2659 45.7906 44.3292C45.7886 44.3925 45.7457 44.4333 45.6952 44.4199C45.4915 44.3657 44.4262 44.5306 44.4235 44.6168C44.4202 44.7229 43.483 44.8704 43.1318 44.82C43.0027 44.8015 42.7897 44.8818 42.6585 44.9984C42.5273 45.115 42.3248 45.2133 42.2085 45.2167C42.0922 45.2202 41.6637 45.2233 41.2562 45.2235C40.8487 45.2238 40.2916 45.2736 40.0181 45.3343C39.7445 45.3949 39.3102 45.4655 39.0529 45.4911C38.7955 45.5168 38.6138 45.5817 38.6489 45.6353C38.7587 45.8025 38.4832 45.8369 36.3354 45.9241C36.2212 45.9287 36.1363 45.9792 36.1467 46.0362C36.157 46.0932 36.0536 46.1652 35.9168 46.1961C35.78 46.2271 35.5254 46.3321 35.3509 46.4295C35.1227 46.5569 34.6533 46.6144 33.6777 46.6345C32.9319 46.6499 32.1936 46.6534 32.037 46.6423C31.8803 46.6312 31.5793 46.6945 31.368 46.783C31.1498 46.8743 30.9522 46.8998 30.9107 46.8418C30.8089 46.6995 30.3787 46.5524 30.4697 46.691C30.5655 46.8371 30.4457 46.8261 30.1221 46.659C29.469 46.3218 26.3234 46.4652 25.9839 46.8477C25.8787 46.9661 25.8651 47.0477 25.946 47.0742C26.0155 47.097 26.0711 47.159 26.0694 47.2119C26.0678 47.2648 25.9896 47.2795 25.8957 47.2444C25.8018 47.2094 25.6867 47.2319 25.6399 47.2943C25.515 47.4612 26.2551 47.4593 26.6596 47.2918C26.8453 47.2149 27.2482 47.1237 27.5549 47.0891C27.8616 47.0546 28.2101 47.0134 28.3294 46.9977C28.4487 46.982 28.5444 47.0332 28.542 47.1115C28.5388 47.2122 28.6913 47.248 29.0629 47.2339C29.469 47.2185 29.5379 47.2378 29.3664 47.3189C29.2443 47.3765 29.171 47.4642 29.2034 47.5137C29.2734 47.6203 28.5805 47.7039 27.2426 47.7503C26.4914 47.7763 26.2474 47.7492 26.1678 47.631C26.0932 47.5201 26.0633 47.5154 26.0589 47.614C26.0499 47.814 25.3094 47.7587 25.0504 47.5386C24.9294 47.4359 24.829 47.398 24.8272 47.4546C24.8253 47.517 24.4245 47.5156 23.8087 47.4512C23.2503 47.3927 22.3779 47.305 21.8701 47.2563C21.3623 47.2076 20.7662 47.1052 20.5455 47.0288C20.3248 46.9524 20.0054 46.9089 19.8356 46.9321C19.6659 46.9553 19.4935 46.9233 19.4526 46.861C19.4069 46.7913 19.4394 46.7835 19.537 46.8406C19.6358 46.8984 19.6671 46.8899 19.62 46.8181C19.5312 46.6828 18.9467 46.5446 18.2513 46.4945C17.8411 46.465 17.7575 46.4198 17.7524 46.2251C17.7469 46.0159 17.833 45.9849 18.564 45.9331C19.0137 45.9012 19.5202 45.89 19.6894 45.9082L19.997 45.9413L19.6746 45.7743C19.1155 45.4849 18.5656 45.353 17.4873 45.2498C16.9118 45.1947 16.0826 45.0585 15.6446 44.9472C14.6373 44.6912 11.1185 44.5649 10.9582 44.779C10.9031 44.8527 10.7938 44.8754 10.7153 44.8295C10.5127 44.7108 8.24388 44.6027 8.31769 44.7152C8.38672 44.8204 8.36828 44.8216 6.7533 44.8147C5.61346 44.8099 5.13157 44.8321 3.4204 44.9686C2.64014 45.0308 2.18704 44.9672 1.74941 44.7343C1.56614 44.6367 1.60787 44.5858 2.06382 44.3503C2.43158 44.1604 2.87692 44.0558 3.54589 44.0022C4.68753 43.9107 5.77798 43.7847 6.56488 43.6533C7.03557 43.5747 7.13066 43.5201 7.08676 43.3534C7.05525 43.2337 6.96095 43.1715 6.8584 43.2026C6.76232 43.2318 6.68539 43.2016 6.68744 43.1354C6.6895 43.0692 6.78834 43.0173 6.90709 43.0201C7.09161 43.0244 7.09658 43.009 6.94125 42.914C6.82629 42.8437 6.81475 42.804 6.90986 42.8059C6.99279 42.8075 7.03054 42.7345 6.99404 42.643C6.94797 42.5276 7.07435 42.425 7.40965 42.3055L7.89145 42.1338L6.68826 42.0309C6.0265 41.9744 5.15301 41.9227 4.74716 41.9162C4.34131 41.9097 4.00944 41.8982 4.00967 41.8908C4.0099 41.8833 4.1246 41.7678 4.26456 41.6342C4.40452 41.5005 4.51801 41.4242 4.51676 41.4646C4.5155 41.505 4.64171 41.4699 4.79722 41.3863C4.95273 41.3029 5.49321 41.191 5.9983 41.1379C6.50337 41.0847 7.13858 40.9796 7.40986 40.9044C7.68115 40.8292 8.10434 40.7722 8.35029 40.7776C9.03743 40.793 10.7801 40.4501 10.2809 40.3978C10.2189 40.3913 10.0578 40.36 9.92294 40.3283C9.78811 40.2966 9.61041 40.2555 9.52807 40.2369C9.24754 40.1736 9.23279 40.0673 9.49557 40.0025C9.63979 39.9669 9.90656 39.8238 10.0884 39.6845C10.2702 39.5451 10.5428 39.435 10.6942 39.4397C10.8456 39.4444 11.0349 39.3829 11.1148 39.3031C11.2343 39.1839 11.1338 39.1414 10.5509 39.0646C10.1607 39.0132 9.67574 38.9423 9.47311 38.907C8.99103 38.8231 7.06393 38.7734 6.92936 38.8413C6.7478 38.9331 5.33597 38.9352 5.33881 38.8438C5.3403 38.7957 5.42666 38.6981 5.53074 38.6268C5.63481 38.5555 5.72154 38.4462 5.72348 38.3837C5.72541 38.3213 5.68947 38.3013 5.64361 38.3392C5.59775 38.3772 5.48743 38.3514 5.39844 38.282C5.30886 38.2121 5.23522 38.2022 5.23344 38.2597C5.23167 38.3169 5.14695 38.361 5.04519 38.3579C4.74894 38.3487 4.83382 38.2348 5.24583 38.0886C5.70917 37.9242 5.64594 37.8473 4.91228 37.6828C4.243 37.5327 4.12093 37.3262 4.60896 37.1697C5.11403 37.0078 7.46823 36.8502 8.81004 36.8886C9.43898 36.9065 10.1018 36.8932 10.283 36.859L10.6125 36.7968L10.2689 36.5325C10.0799 36.3872 9.83149 36.2636 9.71684 36.2579C9.42462 36.2434 9.34111 36.0677 9.50595 35.8143C9.68 35.5468 10.7682 35.0897 11.1993 35.1031C11.3811 35.1087 11.4876 35.065 11.4462 35.0019C11.4061 34.9408 11.2715 34.8877 11.1471 34.8838C10.9381 34.8774 10.7142 34.5988 10.7659 34.4096C10.8184 34.2173 8.85457 34.3733 8.68438 34.575C8.55439 34.729 5.39174 35.044 5.08521 34.9334L4.79332 34.8282L5.08435 34.7018C5.24441 34.6323 6.27523 34.4716 7.37505 34.3447C9.38758 34.1124 9.88161 33.9198 8.56883 33.8791C8.16545 33.8666 7.79629 33.793 7.67837 33.7016C7.51088 33.5717 7.27374 33.5609 6.27105 33.6375C4.42731 33.7783 3.35515 33.881 3.1026 33.9411C2.93527 33.9809 2.88637 33.9471 2.92127 33.8159C2.97213 33.6247 3.36077 33.4105 3.96489 33.2407C4.48489 33.0946 4.16921 32.9418 3.50772 33.0194C3.22092 33.0531 2.73542 33.1073 2.42882 33.14L1.87136 33.1993L2.34604 32.823C2.60711 32.6161 2.82126 32.4292 2.82192 32.4079C2.82258 32.3865 2.47998 32.324 2.06058 32.2691C1.06895 32.1391 0.544336 31.8768 0.562288 31.5201C0.571741 31.332 1.37757 31.1043 2.12157 31.0794C2.42786 31.0692 3.12494 30.9968 3.67063 30.9187C4.21632 30.8405 5.05211 30.7666 5.52793 30.7544C6.00375 30.7422 6.72764 30.691 7.13657 30.6407C9.67625 30.3279 10.2481 30.2493 10.3588 30.1976C10.4268 30.1658 10.235 30.0787 9.93261 30.0039C9.62832 29.9287 9.38481 29.8043 9.38726 29.7253C9.39293 29.5424 10.6485 29.1836 11.7824 29.0408C12.3339 28.9714 12.744 28.8554 12.881 28.73C13.0036 28.6178 13.4211 28.4845 13.8318 28.4263C14.7637 28.2943 14.7434 28.1411 13.7464 27.782C13.5326 27.705 13.3845 27.5862 13.4172 27.518C13.4917 27.3627 14.0709 27.1404 14.3761 27.1498C14.5022 27.1537 14.5727 27.107 14.5326 27.0459C14.4925 26.9848 14.0467 26.922 13.5419 26.9064C12.7101 26.8806 12.3796 26.7591 12.7861 26.6286C13.1493 26.512 11.347 26.5253 10.4532 26.6459C9.34025 26.796 8.74019 26.7001 8.75031 26.3738C8.75497 26.2234 9.08329 26.0358 9.98408 25.669C10.8327 25.3235 11.1623 25.1392 11.0521 25.0719C10.8427 24.944 11.0569 24.8266 11.8917 24.6114C13.07 24.3077 14.014 23.7667 13.9018 23.4594C13.8252 23.2495 14.2838 23.1506 16.1716 22.9697C17.11 22.8798 18.0514 22.7362 18.2636 22.6506C18.4758 22.5651 18.9223 22.4748 19.2558 22.45C20.1754 22.3816 21.9413 22.0449 22.2208 21.8848C22.3572 21.8066 22.637 21.7445 22.8425 21.7466C23.048 21.7488 23.3285 21.7119 23.4658 21.6648C23.6645 21.5965 23.6149 21.5726 23.2225 21.5477C22.1721 21.481 21.617 21.3723 21.4826 21.2072C21.3909 21.0944 21.2433 21.056 21.0539 21.0957C20.8054 21.1478 20.7961 21.1404 20.987 21.0426C21.109 20.9801 21.3045 20.9459 21.4215 20.9666C21.5385 20.9872 21.7101 20.9652 21.803 20.9176C21.9028 20.8665 22.0942 20.8936 22.2716 20.9841C22.5052 21.1032 22.6237 21.1102 22.8087 21.0158C22.9589 20.9391 23.0723 20.9345 23.1174 21.0034C23.1567 21.0632 23.5046 21.1237 23.8907 21.1378C24.2767 21.1518 24.7291 21.2376 24.8961 21.3283C25.2598 21.5259 25.3833 21.5434 25.3878 21.3979C25.3897 21.3382 25.3047 21.2866 25.1989 21.2833C25.0931 21.28 25.0383 21.2349 25.0771 21.1831C25.1159 21.1312 25.0323 21.0584 24.8912 21.0213C24.7502 20.9841 24.6609 20.8901 24.6928 20.8123C24.7517 20.6688 25.3068 20.6009 27.0199 20.5275C28.5676 20.4612 28.999 20.4131 29.0023 20.3064C29.004 20.2503 28.9222 20.2018 28.8204 20.1986C28.7176 20.1955 28.6384 20.0963 28.6421 19.9755C28.6471 19.8161 28.7311 19.7606 28.9573 19.7677C29.3121 19.7787 29.3778 19.6131 29.0526 19.5275C28.9321 19.4958 28.3076 19.4797 27.6647 19.4917C25.7922 19.5267 25.0453 19.4726 24.6599 19.274C24.4642 19.1731 24.2679 19.1088 24.2237 19.1311C24.1795 19.1535 24.1705 19.0347 24.2038 18.8673C24.2763 18.502 24.1046 18.4393 22.839 18.3693C22.0816 18.3275 22.0233 18.3091 22.2904 18.197C22.7299 18.0125 24.3285 17.7777 25.278 17.7582C25.7633 17.7482 26.2237 17.6731 26.3915 17.5766C26.7486 17.3712 26.9598 17.375 27.1903 17.5911C27.294 17.6884 27.5889 17.7657 27.8858 17.7736C28.8002 17.7977 32.2207 17.5977 32.6875 17.4928C33.1235 17.3948 33.1372 17.3772 33.057 17.0179C33.0064 16.7915 33.0252 16.602 33.1048 16.5362C33.1952 16.4614 33.1939 16.3801 33.1007 16.2748C32.8157 15.9528 33.1926 15.8996 34.9911 16.0081C36.3886 16.0925 36.8256 16.0835 37.1134 15.9648C37.4178 15.8392 38.7774 15.695 39.7021 15.6903C39.8379 15.6896 40.228 15.6539 40.5689 15.611L41.1886 15.5329L40.636 15.4366C40.332 15.3837 39.4165 15.3446 38.6014 15.3499C37.7863 15.3552 36.6201 15.3375 36.0097 15.3106C35.3994 15.2837 34.2037 15.3199 33.3526 15.391C31.6687 15.5317 29.934 15.6128 29.1892 15.5858C28.9295 15.5764 28.6808 15.6103 28.6366 15.6612C28.5923 15.712 28.3827 15.7546 28.1706 15.7556C27.9586 15.7567 27.7839 15.7981 27.7823 15.8476C27.7808 15.8971 27.6556 15.9027 27.5041 15.8602C27.2885 15.7996 27.2681 15.8088 27.4102 15.9027C27.5667 16.006 27.5619 16.0219 27.3758 16.0175C27.257 16.0148 27.1582 16.067 27.1561 16.1337C27.1538 16.2081 27.0371 16.1835 26.8537 16.0699C26.5221 15.8645 26.375 15.8293 26.4731 15.9788C26.5087 16.033 26.4265 16.0993 26.2907 16.1262C26.1492 16.1542 26.0452 16.1214 26.0474 16.0494C26.0497 15.9767 25.8566 15.9177 25.5888 15.9094C25.2948 15.9003 25.1353 15.943 25.1511 16.0266C25.1682 16.1172 25.0344 16.1378 24.7222 16.0928C24.2105 16.0189 23.7118 15.7499 23.7151 15.5496C23.7165 15.464 23.6727 15.4733 23.5928 15.5755C23.496 15.6992 23.4698 15.6663 23.4757 15.4287C23.4855 15.0366 23.6991 14.7084 23.9397 14.7158C24.0431 14.719 24.0949 14.6717 24.0548 14.6106C24.0147 14.5495 24.0825 14.4989 24.2053 14.4981C24.6123 14.4956 24.8725 14.4377 25.1523 14.2875C25.4031 14.1529 25.9805 14.2256 25.9754 14.3912C25.9745 14.4211 25.9001 14.4182 25.8102 14.3845C25.7202 14.3509 25.5657 14.406 25.4668 14.507C25.3119 14.6651 25.3116 14.6783 25.4652 14.6028C25.6021 14.5354 25.6218 14.5606 25.5503 14.7119C25.4946 14.8295 25.5198 14.9461 25.6129 15.002C25.8448 15.1413 26.0443 15.1226 25.8338 14.9813C25.6973 14.8897 25.7692 14.8776 26.1243 14.9324C26.3853 14.9726 26.6988 14.9528 26.8256 14.8881C26.9992 14.7994 27.0979 14.8044 27.2315 14.9087C27.3739 15.0197 27.4277 15.0096 27.5097 14.8563C27.5656 14.7518 27.6037 14.6293 27.5943 14.5842C27.5849 14.539 27.6559 14.5045 27.752 14.5074C27.8481 14.5104 27.9496 14.4576 27.9776 14.39C28.0056 14.3224 28.1918 14.2569 28.3914 14.2443C28.591 14.2318 28.8187 14.1487 28.8973 14.0597C28.9759 13.9707 29.0841 13.9352 29.1378 13.9808C29.1914 14.0265 29.2031 13.9771 29.1637 13.8712C29.0756 13.634 29.3122 13.6194 29.4067 13.8562C29.4667 14.0066 29.5018 14.0058 29.7117 13.8488C29.9358 13.6811 29.9487 13.6828 29.9444 13.8785C29.9406 14.052 29.96 14.0598 30.0645 13.9263C30.2503 13.6887 30.2265 13.635 29.8986 13.5517C29.6906 13.4989 29.6081 13.4066 29.6266 13.2476C29.6562 12.9944 30.0918 12.8179 30.586 12.8589C31.0468 12.8971 31.4585 12.7699 31.4641 12.5875C31.4678 12.4701 31.5914 12.4395 31.9307 12.4719C32.4269 12.5193 33.2671 12.4228 33.5726 12.2834C33.7243 12.2142 33.713 12.1946 33.514 12.1816C33.3784 12.1728 32.9907 12.134 32.6524 12.0954C31.6061 11.9763 30.2108 11.9358 29.7047 12.0099C29.3573 12.0607 29.2469 12.0469 29.3114 11.9607C29.3668 11.8867 29.3342 11.8612 29.2261 11.8941C29.1236 11.9253 28.9629 11.8207 28.8382 11.6416C28.6859 11.4229 28.668 11.3247 28.7754 11.2967C28.8763 11.2705 28.8541 11.2049 28.7079 11.097C28.5095 10.9506 28.5229 10.9424 28.8586 11.0045C29.0611 11.042 29.1584 11.0417 29.0747 11.0038C28.7663 10.8643 28.9425 10.7361 29.422 10.751C29.7335 10.7606 29.9146 10.8164 29.9131 10.9022C29.9114 11.0022 29.94 11 30.0214 10.8939C30.0909 10.8033 30.1596 10.7918 30.2062 10.8628C30.2853 10.9834 30.4426 10.9791 30.8327 10.8456C30.9664 10.7998 31.2584 10.7647 31.4815 10.7677C31.9931 10.7744 32.1674 10.5096 31.6618 10.494C31.4618 10.4878 31.2802 10.4114 31.2429 10.3178C31.1984 10.2063 31.2539 10.1549 31.4136 10.1598C31.5438 10.1639 31.6966 10.1074 31.7532 10.0344C31.9007 9.84388 32.4105 9.62865 32.5378 9.70315C32.5971 9.73791 32.6821 9.71776 32.7266 9.65828C32.7711 9.59885 32.9607 9.55495 33.1479 9.56075C33.3351 9.56656 33.7922 9.50121 34.1637 9.41555C34.7501 9.28032 34.8035 9.24673 34.5683 9.16082C34.4193 9.10641 33.3904 9.0404 32.2818 9.01416C31.1733 8.98798 30.195 8.92471 30.1078 8.87369C30.0176 8.82085 29.9114 8.83159 29.8612 8.89864C29.7577 9.03689 25.9199 9.02519 25.8288 8.88633C25.7967 8.83752 25.6835 8.82404 25.5771 8.85639C25.4461 8.89621 25.4276 8.94093 25.5199 8.99493C25.5948 9.0388 25.4874 9.06946 25.2812 9.06307C25.075 9.05668 24.9077 9.0047 24.9095 8.94755C24.9113 8.8904 24.8262 8.90292 24.7205 8.97534C24.6147 9.04776 24.4898 9.07101 24.4429 9.02701C24.396 8.98301 24.4984 8.85877 24.6705 8.7509L24.9834 8.55476L24.6734 8.59745C24.4018 8.63485 24.3943 8.62829 24.6133 8.54448C24.9737 8.40656 25.5579 8.4401 25.8954 8.61809C26.2244 8.79156 26.6442 8.75077 26.6506 8.54471C26.6535 8.44979 26.8984 8.4147 27.4567 8.42923C27.9599 8.44232 28.2573 8.49458 28.2549 8.56951C28.2529 8.6352 28.3231 8.61095 28.4109 8.51561C28.5263 8.39039 28.8624 8.3319 29.6213 8.30499C30.1992 8.28449 31.0245 8.20957 31.4553 8.1385C31.8862 8.06744 32.4158 8.01007 32.6322 8.01103C32.8487 8.01197 33.3054 7.9546 33.6472 7.88348C34.2298 7.76223 34.1647 7.75465 32.6014 7.76186C31.6845 7.76608 30.851 7.76777 30.7493 7.76559C30.6475 7.76342 29.3672 7.83932 27.9042 7.93425C26.4412 8.02919 24.847 8.10951 24.3614 8.11274C23.8758 8.11598 23.5028 8.15608 23.5325 8.20188C23.5622 8.24768 23.3472 8.27795 23.0549 8.26912C22.7626 8.26006 22.0216 8.30848 21.4083 8.37616C20.3567 8.49223 17.8889 8.56905 18.2266 8.4752C18.3127 8.4513 18.3531 8.38602 18.3165 8.33016C18.2798 8.27429 18.4058 8.23107 18.5965 8.2341C18.7871 8.23721 19.1403 8.15282 19.3813 8.04672C19.6222 7.94064 19.9318 7.81166 20.0692 7.76011C20.5209 7.59066 27.8289 6.75552 29.5483 6.67687C30.0583 6.65354 31.5333 6.57023 32.826 6.49176C34.1187 6.41329 35.8245 6.32166 36.6167 6.28815C37.4089 6.25461 38.3264 6.16464 38.6555 6.08819C39.0878 5.98775 39.2765 5.98355 39.3352 6.07308C39.4097 6.18659 40.7084 6.19639 42.2838 6.09534C42.5219 6.08006 43.2728 6.05421 43.9524 6.03788C45.1718 6.00859 47.0335 5.84059 48.0781 5.66558C48.3731 5.61616 48.6655 5.60563 48.7279 5.64218C48.7903 5.67874 49.6522 5.62588 50.6432 5.52472C52.1094 5.37504 52.4968 5.36721 52.7231 5.48268C52.9507 5.59876 53.2471 5.58965 54.354 5.43257C56.1967 5.17108 58.6011 4.83142 59.7992 4.66333C60.3449 4.58678 61.1379 4.46544 61.5615 4.39371C61.9852 4.32196 62.5147 4.26916 62.7382 4.27638C62.9617 4.28331 63.3965 4.22682 63.7045 4.15017C64.2235 4.02101 65.2819 3.89258 68.1042 3.61629C69.5541 3.47435 69.8464 3.44028 71.3261 3.24067C72.008 3.14869 73.1236 3.0099 73.805 2.93225C74.4865 2.8546 75.2114 2.77196 75.4159 2.74862C76.8626 2.5835 77.1368 2.5959 77.416 2.8391C77.5666 2.97032 77.6881 3.13322 77.686 3.20109C77.6839 3.26897 77.724 3.32 77.7751 3.3145C77.8262 3.30907 77.9947 3.31429 78.1495 3.3261C78.3849 3.34416 78.4098 3.38034 78.3014 3.54699C78.1426 3.79097 78.2593 3.92883 78.4905 3.77051C78.7506 3.59238 78.6875 3.7579 78.3856 4.0454C78.2273 4.19621 77.9147 4.32613 77.6297 4.35958C77.2136 4.40841 77.1653 4.44094 77.2936 4.58588C77.4861 4.80341 77.3175 4.81131 85.2481 4.21346C85.7926 4.1724 86.7662 4.1317 87.4116 4.12301C88.057 4.11432 89.225 4.07549 90.0072 4.03674C90.7893 3.998 91.8184 3.95896 92.2941 3.94999C92.7697 3.94103 93.38 3.88981 93.6502 3.83618C93.9204 3.78256 94.9864 3.76186 96.019 3.79019C97.0517 3.81853 97.9709 3.82217 98.0617 3.79831C98.2857 3.73944 101.18 3.69558 101.867 3.74065C102.171 3.76061 102.503 3.84721 102.604 3.93316C102.83 4.12576 103.422 4.16269 106.178 4.15637C107.445 4.15345 108.61 4.09366 108.995 4.01183C109.497 3.90505 110.324 3.89719 112.515 3.9784C114.09 4.03684 116.712 4.08892 118.342 4.09428C121.644 4.10512 121.468 4.09862 124.878 4.33506C127.086 4.48813 128.362 4.53117 130.305 4.51821C130.645 4.51595 130.826 4.48871 130.709 4.45768C130.591 4.42667 130.496 4.35015 130.498 4.28766C130.5 4.2127 130.847 4.20631 131.517 4.26889C132.076 4.32107 133.752 4.45117 135.243 4.55802C136.734 4.66487 138.646 4.82398 139.492 4.91159C142.891 5.26359 144.188 5.39071 145.954 5.54509C150.372 5.93123 152.702 6.10274 155.132 6.22071C156.251 6.27504 157.637 6.36743 158.212 6.42603C158.788 6.48464 159.647 6.54024 160.122 6.54959C160.597 6.55904 161.54 6.63191 162.216 6.71175C162.893 6.79158 165.088 6.92933 167.094 7.01786C169.1 7.1064 170.985 7.23411 171.283 7.30167C171.581 7.36923 172.26 7.46452 172.792 7.51342C173.324 7.56231 173.933 7.6329 174.145 7.67026C174.872 7.79803 176.008 7.90483 177.672 8.00163C179.137 8.08687 180.559 8.22655 182.657 8.49139C182.995 8.53406 183.466 8.58866 183.703 8.61269C183.94 8.63675 184.549 8.70071 185.057 8.75486C185.564 8.80901 186.423 8.89699 186.964 8.95039C187.506 9.00377 187.976 9.06339 188.01 9.08286C188.043 9.10235 188.385 9.1576 188.77 9.20571C189.155 9.25381 189.55 9.32319 189.648 9.35988C189.747 9.39656 190.318 9.45636 190.917 9.49278C192.565 9.59278 192.562 9.59242 192.557 9.76812C192.554 9.8578 192.611 9.93299 192.683 9.93521C192.754 9.93744 192.775 9.8808 192.728 9.80933C192.67 9.72073 192.711 9.70468 192.856 9.75889C192.973 9.80262 193.191 9.84218 193.341 9.84682C193.525 9.85251 193.617 9.9261 193.625 10.0732C193.639 10.3338 193.572 10.3442 193.331 10.1185C193.08 9.883 192.791 9.8911 192.87 10.1314C192.909 10.2498 192.895 10.2758 192.833 10.1991C192.765 10.1141 192.418 10.0878 191.744 10.1165C190.583 10.1659 189.71 10.1153 188.108 9.906C187.465 9.82207 186.635 9.71763 186.263 9.67391C185.891 9.6302 185.522 9.57378 185.444 9.5485C185.365 9.52324 185.266 9.57576 185.224 9.66519C185.167 9.78564 185.049 9.8057 184.77 9.74253C184.33 9.64331 184.047 9.60199 182.874 9.46573C182.4 9.41073 181.98 9.34671 181.94 9.32346C181.855 9.27393 180.206 9.2151 177.944 9.18094C176.509 9.15926 175.5 9.0657 174.75 8.88487C174.328 8.78299 171.355 8.65243 171.352 8.73567C171.351 8.77847 171.723 8.86044 172.18 8.91783C172.636 8.97523 173.12 9.04491 173.255 9.0727C174.202 9.26763 176.745 9.53205 178.794 9.6485C179.268 9.67548 179.714 9.73248 179.785 9.77518C179.902 9.84619 183.671 10.2228 183.875 10.1839C183.924 10.1746 184.379 10.2142 184.886 10.2718C185.671 10.3608 187.676 10.5532 188.179 10.5878C188.361 10.6003 188.378 10.7412 188.208 10.8272C188.086 10.8888 187.156 10.8751 186.316 10.7992C186.06 10.7761 185.807 10.6913 185.754 10.6109C185.683 10.5022 185.471 10.4778 184.928 10.5159C184.527 10.544 184.16 10.5853 184.114 10.6076C184.068 10.63 183.948 10.5715 183.848 10.4776C183.748 10.3838 183.636 10.3479 183.598 10.398C183.525 10.4952 181.037 10.3757 180.319 10.2406C180.082 10.1961 179.665 10.1427 179.391 10.1219C179.118 10.101 178.773 10.0223 178.625 9.947C178.41 9.83746 178.356 9.83909 178.352 9.95514C178.349 10.0406 178.182 10.1069 177.946 10.1164C176.968 10.1555 175.603 10.1066 174.523 9.9938C173.747 9.91267 173.414 9.9095 173.532 9.98439C174.01 10.2864 173.093 10.3996 171.677 10.2136C170.421 10.0487 170.196 10.0351 169.65 10.091C169.368 10.1199 168.974 10.0996 168.775 10.0461C168.251 9.90496 165.511 9.59896 164.289 9.54494C163.713 9.51947 162.881 9.45398 162.442 9.39945C162.002 9.34491 161.116 9.25884 160.472 9.20817C159.828 9.15751 158.305 9.01318 157.087 8.88743C155.868 8.76168 154.055 8.60059 153.057 8.52947C151.432 8.41356 151.235 8.41867 151.159 8.57873C151.087 8.73096 150.872 8.75034 149.701 8.7101C148.945 8.68418 148.076 8.69483 147.769 8.73386L147.211 8.80485L148.133 8.95472C148.64 9.03716 149.249 9.10929 149.486 9.115C149.724 9.12059 150.693 9.22524 151.64 9.34725C152.587 9.46927 154.387 9.65554 155.64 9.76119C156.893 9.86683 158.041 9.9805 158.191 10.0138C158.341 10.0471 159.587 10.1568 160.961 10.2577C163.43 10.4389 165.16 10.5779 166.476 10.701C166.848 10.7359 168.126 10.8441 169.316 10.9416C170.505 11.0391 171.558 11.1431 171.654 11.1727C171.751 11.2024 171.94 11.2671 172.075 11.3165C172.209 11.3659 172.532 11.4265 172.792 11.4512C173.052 11.4759 173.327 11.5757 173.403 11.6729C173.512 11.8133 173.832 11.8645 174.958 11.9217C175.737 11.9613 176.43 12.0256 176.496 12.0644C176.563 12.1033 177.033 12.1767 177.541 12.2275C179.968 12.4706 182.395 12.6822 183.513 12.7481C184.191 12.7881 185.631 12.9337 186.713 13.0718C187.795 13.2098 189.18 13.3545 189.79 13.3932C194.012 13.6616 197.382 13.9391 199.15 14.1642C199.759 14.2417 200.826 14.3542 201.523 14.4143C202.219 14.4744 202.817 14.5662 202.851 14.6185C202.885 14.6707 202.73 14.7117 202.505 14.7096C202.28 14.7075 201.939 14.7109 201.747 14.7173C201.556 14.7236 201.376 14.6936 201.347 14.6506C201.319 14.6076 201.089 14.616 200.837 14.6693C200.58 14.7233 200.022 14.7233 199.572 14.6692C199.129 14.616 196.769 14.4914 194.327 14.3923C191.886 14.2932 188.973 14.1521 187.855 14.0788C185.862 13.9482 185.295 13.9727 186.6 14.1332C186.962 14.1777 187.285 14.2386 187.317 14.2686C187.402 14.3488 186.945 14.5267 186.57 14.5592C186.132 14.5971 185.99 14.7306 186.363 14.7539C186.527 14.7642 187.381 14.8406 188.261 14.9236C189.141 15.0067 190.874 15.1349 192.111 15.2086C194.144 15.3298 194.359 15.3609 194.354 15.5331C194.346 15.7722 194.841 15.8442 197.831 16.0386C199.036 16.117 200.05 16.2233 200.084 16.2748C200.118 16.3264 200.389 16.3761 200.686 16.3853C201.7 16.4167 201.406 16.708 200.154 16.914C199.8 16.9721 199.327 17.005 199.102 16.987C197.602 16.8671 197.989 17.0933 199.67 17.3184C200.346 17.4089 201.287 17.5188 201.761 17.5625C202.235 17.6062 203.093 17.7053 203.668 17.7827C204.243 17.8602 205.406 17.9773 206.253 18.043C207.296 18.124 207.831 18.2097 207.911 18.3088C207.977 18.3898 208.414 18.4985 208.892 18.5526C209.365 18.6062 209.806 18.7116 209.872 18.7867C209.938 18.8618 210.396 18.9688 210.89 19.0245C211.384 19.0802 211.911 19.2014 212.06 19.2939C212.231 19.4 212.762 19.4932 213.496 19.5461C215.079 19.6603 216.317 19.8212 216.383 19.9215C216.452 20.0269 215.368 20.1407 215.204 20.0452C215.137 20.0061 215.081 20.0204 215.08 20.077C215.078 20.1337 215.27 20.2182 215.506 20.2648C215.972 20.3568 216.057 20.4948 215.712 20.6009C215.304 20.7261 215.862 20.9617 217.124 21.1978C218.184 21.396 218.85 21.6212 218.359 21.615C217.898 21.6093 218.604 21.8229 219.343 21.9127C219.782 21.966 220.204 22.0588 220.281 22.1189C220.358 22.179 220.77 22.2889 221.198 22.3631C222.385 22.5693 222.367 22.7048 221.149 22.7514C220.693 22.7687 220.275 22.8491 220.147 22.9438C219.967 23.0766 219.753 23.0865 218.972 22.9979C217.386 22.8177 217.07 22.8334 216.823 23.1049C216.702 23.2378 216.626 23.3814 216.654 23.4242C216.682 23.4669 217.078 23.5477 217.534 23.6037C217.99 23.6597 218.417 23.7457 218.483 23.7947C218.55 23.8437 218.867 23.9266 219.187 23.9789C220.068 24.1223 219.882 24.2703 218.86 24.2386C218.363 24.2232 217.913 24.2459 217.86 24.2892C217.807 24.3324 217.289 24.3531 216.708 24.3351C215.973 24.3123 215.634 24.3432 215.594 24.4366C215.555 24.5286 215.686 24.5756 216.01 24.5861C216.27 24.5943 216.676 24.6522 216.911 24.7144C217.147 24.7766 217.809 24.873 218.382 24.9287C218.955 24.9843 219.485 25.0775 219.56 25.1358C219.635 25.1941 219.729 25.2144 219.77 25.1808C219.81 25.1472 219.971 25.1643 220.128 25.2188C220.347 25.2954 220.214 25.3277 219.546 25.3605C218.757 25.3992 217.855 25.5301 217.375 25.6753C217.071 25.7674 217.536 25.8935 218.937 26.0985C219.63 26.2 220.196 26.312 220.194 26.3474C220.193 26.3829 220.554 26.4029 220.996 26.3918C221.641 26.3756 221.798 26.4028 221.794 26.5305C221.788 26.7276 221.387 27.0377 221.151 27.0281C221.006 27.0222 221.009 27.0038 221.164 26.9214C221.325 26.8366 221.32 26.8205 221.133 26.8133C221.012 26.8085 220.878 26.8797 220.835 26.9712C220.768 27.113 220.544 27.1226 219.324 27.0363C217.795 26.9282 217.417 26.9885 217.689 27.2967C218.146 27.8128 220.056 28.4103 221.38 28.4513C222.18 28.4761 222.593 28.6209 222.585 28.8734C222.582 28.9997 222.383 29.0259 221.625 29.0004C221.099 28.9827 220.448 28.9097 220.179 28.8384C219.909 28.767 218.633 28.6537 217.343 28.5866C215.06 28.4679 214.995 28.4705 214.971 28.6825C214.946 28.891 215.092 29.0462 215.356 29.0922C215.423 29.1039 215.953 29.2075 216.532 29.3223C218.429 29.698 220.116 29.9433 221.845 30.095C223.448 30.2355 223.991 30.377 223.818 30.6083C223.779 30.6612 223.694 30.6738 223.63 30.6365C223.567 30.5992 223.528 30.6339 223.544 30.7137C223.56 30.7939 223.478 30.849 223.359 30.8371C223.242 30.8253 223.171 30.8544 223.202 30.9019C223.233 30.9494 223.069 31.0136 222.838 31.0445C222.337 31.1114 222.213 31.3037 222.458 31.6323C222.589 31.8075 222.6 31.9099 222.5 32.0098C222.336 32.1736 222.436 32.2923 222.747 32.3019C222.871 32.3058 222.972 32.3294 222.971 32.3544C222.971 32.3794 223.004 32.4856 223.046 32.5904C223.116 32.7655 223.033 32.7724 222.025 32.6749C221.421 32.6165 220.72 32.5332 220.467 32.4898C220.1 32.4269 220.005 32.4454 220.001 32.5804C219.998 32.6736 219.905 32.7913 219.794 32.8418C219.507 32.9723 219.657 33.6039 220.008 33.7407C220.258 33.8386 220.259 33.8438 220.024 33.8504C219.776 33.8573 219.776 33.8573 220.02 33.9584C220.258 34.0569 219.921 34.0855 218.658 34.0735C218.132 34.0685 217.728 34.2025 217.723 34.3841C217.72 34.4812 217.59 34.5364 217.379 34.5308C217.192 34.526 216.912 34.5477 216.757 34.5793C216.492 34.6332 216.488 34.6463 216.689 34.7899C216.807 34.874 217.055 34.9491 217.24 34.9568C217.426 34.9645 217.939 35.1533 218.38 35.3764C218.825 35.6014 219.361 35.7876 219.585 35.7946C220.333 35.8177 221.494 35.9923 221.434 36.0724C221.402 36.1161 221.469 36.1481 221.585 36.1435C221.701 36.1389 221.813 36.22 221.833 36.3238C221.882 36.5647 221.141 36.9545 220.767 36.8845C220.618 36.8566 220.473 36.8864 220.447 36.9509C220.384 37.1029 218.943 37.1017 218.371 36.9492C218.129 36.8845 216.868 36.7853 215.569 36.7289C213.374 36.6334 212.725 36.6688 213.541 36.8395C213.727 36.8783 214.127 36.9676 214.43 37.0379C214.734 37.1082 215.218 37.1752 215.506 37.1867C215.794 37.1983 216.029 37.2566 216.027 37.3164C216.025 37.3762 216.11 37.4278 216.217 37.4311C216.323 37.4344 216.522 37.4944 216.659 37.5644C216.906 37.6902 216.906 37.6929 216.613 37.8109C216.1 38.0176 216.25 38.2322 217.093 38.4968C217.526 38.6326 217.903 38.8157 217.932 38.9036C217.961 38.9916 218.033 39.0935 218.092 39.13C218.278 39.245 218.041 39.5733 217.83 39.4945C217.723 39.4547 217.669 39.4532 217.71 39.4912C217.75 39.5292 217.639 39.6792 217.464 39.8246C217.233 40.0158 216.998 40.0894 216.616 40.0906C216.325 40.0915 216.109 40.1249 216.135 40.1649C216.161 40.2048 215.652 40.1971 215.004 40.1476C214.061 40.0758 213.782 40.0895 213.613 40.2162C213.377 40.392 212.164 40.4299 211.536 40.281C211.296 40.2241 211.12 40.2339 211.065 40.3071C211.017 40.3715 210.846 40.4201 210.686 40.4151C210.315 40.4036 210.002 40.4983 209.998 40.6231C209.996 40.6765 210.075 40.7226 210.174 40.7257C210.272 40.7287 210.397 40.8069 210.452 40.8993C210.514 41.0036 210.992 41.1569 211.711 41.3034C213.129 41.5919 214.166 41.998 214.06 42.2227C214.019 42.309 213.908 42.3505 213.812 42.3148C213.717 42.2792 213.668 42.2952 213.704 42.3504C213.741 42.4056 213.62 42.5987 213.436 42.7795C213.191 43.0214 213.038 43.0878 212.857 43.0311C212.721 42.9884 212.64 42.9991 212.677 43.0552C212.714 43.1108 212.55 43.1552 212.314 43.1538C212.078 43.1523 211.493 43.2232 211.013 43.3113L210.142 43.4715L210.409 43.7385C210.556 43.8853 210.728 44.0071 210.791 44.009C210.854 44.011 211.093 44.0981 211.323 44.2027C211.723 44.385 211.733 44.403 211.545 44.6391C211.422 44.7943 211.395 44.9119 211.472 44.9568C211.539 44.9961 211.557 45.0778 211.511 45.1385C211.458 45.2097 211.392 45.1954 211.325 45.0981C211.258 45.0002 211.188 44.9852 211.126 45.0553C211.073 45.1147 210.861 45.2289 210.655 45.3091L210.28 45.4549L210.669 45.504C211.091 45.5571 211.308 45.843 210.999 45.9371C210.894 45.9689 210.779 45.967 210.742 45.9328C210.706 45.8986 210.488 45.9563 210.259 46.0611C210.03 46.1659 209.63 46.2799 209.371 46.3146C209.112 46.3492 208.823 46.4411 208.729 46.5188C208.507 46.7027 208.422 46.6959 207.284 46.4021C206.262 46.1383 205.972 46.151 205.539 46.4778C205.295 46.6622 205.199 46.6687 204.558 46.5437C203.716 46.3798 202.124 46.3128 202.211 46.445C202.244 46.4958 202.675 46.6108 203.167 46.7005C204.422 46.929 204.563 46.9741 204.352 47.0805C203.987 47.2648 205.58 47.7761 207.146 47.9772C207.569 48.0315 207.941 48.1151 207.972 48.163C208.004 48.2109 207.909 48.3769 207.762 48.5319C207.514 48.7922 207.509 48.829 207.687 49.0134C207.793 49.1232 207.879 49.2398 207.878 49.2725C207.873 49.4068 205.791 49.1488 205.11 48.9296C204.132 48.6145 202.139 48.3448 201.949 48.5019C201.849 48.585 201.845 48.6589 201.938 48.7633C202.062 48.9042 202.258 48.969 203.891 49.4084C204.401 49.5454 204.655 49.6691 204.652 49.7781C204.647 49.9157 204.501 49.9256 203.734 49.8403C203.149 49.7753 202.791 49.7784 202.738 49.8489C202.693 49.9094 202.724 49.961 202.807 49.9636C202.89 49.9661 202.929 49.9927 202.893 50.0225C202.808 50.0928 201.071 49.7156 200.901 49.5899C200.767 49.4911 198.974 49.1908 198.589 49.2028C198.47 49.2065 198.37 49.2708 198.368 49.3456C198.366 49.4204 198.333 49.5467 198.296 49.6262C198.231 49.7635 199.728 50.0917 202.314 50.5066C202.702 50.5689 203.219 50.7002 203.462 50.7984C203.705 50.8965 204.077 50.9825 204.29 50.9894C204.848 51.0077 205.644 51.2477 205.511 51.3579C205.449 51.409 204.696 51.4429 203.838 51.4334C202.979 51.4238 202.285 51.4246 202.296 51.4351C202.307 51.4456 202.588 51.5576 202.919 51.6841C203.497 51.9042 203.51 51.9191 203.24 52.0367C203.028 52.1287 202.804 52.1256 202.346 52.0241C201.599 51.8589 201.501 51.854 201.497 51.9816C201.495 52.0366 201.658 52.1189 201.86 52.1644C202.53 52.3159 202.38 52.4528 201.571 52.4278C201.1 52.4132 200.622 52.4674 200.387 52.5619C200.15 52.6575 199.886 52.6868 199.723 52.6357C199.374 52.5263 193.584 52.3093 193.649 52.408C193.786 52.617 192.168 52.5658 190.793 52.3175C188.01 51.8149 185.638 51.5047 184.104 51.4427C183.256 51.4084 181.982 51.2951 181.272 51.1909C180.562 51.0866 179.297 50.9296 178.46 50.842C177.623 50.7544 176.904 50.6628 176.861 50.6384C176.819 50.6141 176.368 50.5501 175.861 50.4961C175.353 50.4422 174.744 50.3713 174.507 50.3387C174.015 50.2707 171.768 50.0904 170.135 49.9878C168.954 49.9136 167.161 49.758 165.948 49.6244C165.542 49.5796 163.962 49.4835 162.436 49.4107C160.91 49.3379 159.108 49.221 158.431 49.151C157.754 49.0809 155.879 48.9876 154.264 48.9435C151.822 48.8768 151.307 48.8896 151.206 49.0199C151.103 49.1527 151.068 49.153 150.978 49.0214C150.907 48.918 150.749 48.8839 150.505 48.9192C150.303 48.9484 150.08 48.9169 150.007 48.849C149.935 48.7813 149.693 48.7098 149.47 48.6903C149.246 48.6707 148.953 48.6223 148.818 48.5827C148.085 48.3669 147.317 48.287 147.003 48.3938C146.751 48.4796 146.132 48.3499 146.222 48.23C146.255 48.1859 145.662 48.1174 144.905 48.0778C142.864 47.9713 142.653 47.945 142.427 47.7688C142.244 47.6256 142.225 47.6313 142.256 47.8206C142.28 47.9649 142.232 48.0192 142.108 47.9892C142.006 47.9648 141.799 47.94 141.646 47.9341C141.494 47.9281 141.37 47.8857 141.371 47.8398C141.373 47.7939 141.285 47.7233 141.177 47.683C141.034 47.6297 140.999 47.6568 141.049 47.7818C141.097 47.9005 141.071 47.926 140.968 47.8637C140.885 47.8141 140.291 47.7418 139.647 47.703C138.293 47.6215 138.494 47.6283 132.123 47.4506C129.443 47.3759 126.908 47.2688 126.49 47.2126C126.072 47.1565 125.636 47.1392 125.52 47.1742C125.308 47.2387 121.274 47.254 120.037 47.195C119.069 47.1488 117.955 47.6164 118.561 47.8147C118.651 47.8443 118.586 47.9193 118.401 47.9983C118.229 48.0718 118.056 48.1723 118.017 48.2216C117.875 48.3998 116.824 48.4691 116.531 48.3196C116.347 48.2254 115.851 48.1783 115.069 48.1805C114.419 48.1824 112.283 48.1601 110.323 48.131C108.363 48.1018 106.623 48.1036 106.457 48.1349C106.291 48.1662 105.59 48.1818 104.899 48.1696C104.207 48.1573 103.529 48.1988 103.391 48.2618C103.145 48.3745 101.995 48.5364 101.804 48.4852C101.57 48.422 101.132 48.4225 100.73 48.4863C100.491 48.5242 100.185 48.5436 100.049 48.5294C99.9137 48.5151 99.6922 48.4914 99.5569 48.4767C99.4215 48.462 98.7817 48.491 98.135 48.5412C97.4883 48.5914 96.7192 48.6241 96.426 48.6138C96.1327 48.6035 95.826 48.6392 95.7444 48.6933C95.6628 48.7474 95.4146 48.8201 95.1928 48.8548C94.8628 48.9065 94.7906 48.8845 94.7953 48.734C94.8003 48.571 94.6987 48.5556 93.9043 48.5992C93.4111 48.6263 92.1191 48.6322 91.0332 48.6123C89.9473 48.5925 88.758 48.6244 88.3904 48.6833C88.0228 48.7422 87.695 48.7896 87.6621 48.7885C87.6291 48.7875 87.6689 48.8622 87.7506 48.9545C87.8323 49.0468 88.0866 49.1281 88.3158 49.1352C88.5449 49.1423 88.7318 49.1686 88.731 49.1936C88.7302 49.2186 88.7609 49.3175 88.7991 49.4133C88.8945 49.6523 88.5476 49.63 88.2809 49.3799C88.1299 49.2383 88.0567 49.2211 88.0166 49.318C87.986 49.3917 87.9112 49.4228 87.8502 49.387C87.7892 49.3514 87.738 49.3617 87.7365 49.4101C87.735 49.4584 87.6087 49.5001 87.4558 49.5027C87.303 49.5053 86.4546 49.5405 85.5705 49.5808C84.6864 49.6211 82.9078 49.641 81.6181 49.625C80.3283 49.609 79.1334 49.6185 78.9628 49.646C78.3847 49.7392 75.2171 49.8989 73.5216 49.9202C70.38 49.9597 67.9892 50.2814 67.4842 50.7326C67.3263 50.8737 67.0523 50.9831 66.858 50.9827C65.2604 50.9789 63.0392 51.0567 62.0625 51.1506C61.6538 51.1899 60.9374 51.2402 60.4706 51.2625C60.0037 51.2847 59.3416 51.3408 58.9991 51.3872C58.6566 51.4336 58.3563 51.4709 58.3316 51.4702C58.3069 51.4694 58.2907 51.3438 58.2954 51.1908ZM58.3261 50.2017C58.3297 50.0828 58.2754 50.0722 58.0852 50.1548C57.9384 50.2186 57.8662 50.3285 57.9059 50.4279C57.9571 50.5561 58.0123 50.5669 58.1468 50.4748C58.2428 50.4091 58.3234 50.2862 58.3261 50.2017ZM79.161 49.2291C79.6483 49.0916 79.6362 49.089 78.609 49.1102C76.257 49.1587 75.5196 49.1974 75.5173 49.2724C75.5129 49.4142 78.6368 49.3771 79.161 49.2291ZM21.9046 46.1407C21.9054 46.1172 21.8227 46.0954 21.7209 46.0922C21.6192 46.0891 21.5344 46.1339 21.5327 46.1918C21.5309 46.2497 21.6135 46.2715 21.7164 46.2402C21.8192 46.209 21.9039 46.1642 21.9046 46.1407ZM30.8591 46.049C30.9041 45.9889 30.8045 45.9385 30.6303 45.9331C30.4607 45.9279 30.2861 45.9714 30.2423 46.0299C30.1974 46.09 30.2969 46.1404 30.4711 46.1458C30.6407 46.1511 30.8153 46.1075 30.8591 46.049ZM25.0171 45.3112C25.0206 45.1991 24.8732 45.184 24.5964 45.2681C24.2836 45.3632 24.3627 45.4964 24.7041 45.4497C24.8746 45.4263 25.0155 45.3641 25.0171 45.3112ZM94.8147 47.4567C95.2388 47.3664 95.2978 47.3285 95.0918 47.2788C94.7647 47.1998 90.8356 47.2235 88.7275 47.3171C88.1546 47.3425 92.5652 47.5847 93.473 47.5776C93.9145 47.5742 94.5183 47.5198 94.8147 47.4567ZM99.1009 47.2547C99.2375 47.2306 98.9883 47.2037 98.5472 47.1949C97.4942 47.1739 97.0745 47.2609 97.7394 47.3622C98.0098 47.4035 98.3708 47.406 98.5418 47.3678C98.7127 47.3297 98.9643 47.2788 99.1009 47.2547ZM20.3806 44.8469C20.6348 44.8483 20.6333 44.8425 20.3512 44.7333C20.0186 44.6045 19.7282 44.6545 19.7224 44.8417C19.7203 44.9098 19.8071 44.9385 19.9158 44.9055C20.0242 44.8725 20.2334 44.8462 20.3806 44.8469ZM100.957 47.2217C100.991 47.1936 100.772 47.1548 100.471 47.1354C100.17 47.1161 99.8837 47.1537 99.8347 47.2191C99.7722 47.3026 99.9165 47.3283 100.32 47.3053C100.637 47.2874 100.923 47.2497 100.957 47.2217ZM197.455 48.9273C197.504 48.8614 197.309 48.8188 196.941 48.8154C196.414 48.8105 196.389 48.8205 196.715 48.9043C197.251 49.0421 197.366 49.0457 197.455 48.9273ZM7.38053 41.4388C7.29246 41.4047 7.18595 41.4052 7.14385 41.4401C7.10173 41.4749 7.17379 41.5029 7.30397 41.5022C7.44783 41.5014 7.47786 41.4766 7.38053 41.4388ZM8.84207 41.3408C9.09214 41.2785 9.10478 41.2612 8.90654 41.2525C8.7709 41.2465 8.54761 41.2803 8.41033 41.3274C8.09232 41.4367 8.41661 41.4468 8.84207 41.3408ZM10.4959 41.4348C10.6043 41.4019 10.6958 41.287 10.6991 41.1795C10.7043 41.013 10.6273 40.9902 10.1791 41.0255C9.6104 41.0704 9.23479 41.2442 9.67695 41.2579C9.8222 41.2624 9.97383 41.3161 10.0139 41.3771C10.0978 41.505 10.2179 41.5194 10.4959 41.4348ZM210.95 45.7549C210.952 45.6951 210.856 45.6439 210.737 45.6412C210.553 45.6368 210.548 45.6523 210.703 45.7472C210.932 45.887 210.946 45.8875 210.95 45.7549ZM13.7469 35.2165C13.6588 35.1824 13.5523 35.1829 13.5102 35.2178C13.4681 35.2526 13.5402 35.2806 13.6703 35.2799C13.8142 35.2791 13.8442 35.2543 13.7469 35.2165ZM12.7468 34.8681C12.7523 34.6909 12.4098 34.6603 11.9545 34.7974C11.4587 34.9466 11.5716 35.0658 12.1858 35.0419C12.559 35.0273 12.7436 34.9701 12.7468 34.8681ZM15.0356 35.0175C14.9178 34.8381 14.4781 34.7796 14.4731 34.9427C14.4702 35.0343 14.595 35.0995 14.784 35.1054C14.9576 35.1108 15.0708 35.0712 15.0356 35.0175ZM14.105 34.8667C14.2451 34.7926 14.1748 34.763 13.8308 34.7511C13.5764 34.7422 13.3667 34.784 13.3649 34.8438C13.3606 34.9822 13.8576 34.9976 14.105 34.8667ZM220.127 28.5214C220.129 28.4616 220.075 28.411 220.007 28.4089C219.939 28.4068 219.882 28.454 219.88 28.5138C219.878 28.5736 219.932 28.6242 220 28.6263C220.068 28.6284 220.125 28.5812 220.127 28.5214ZM221.084 26.5205C221 26.4877 220.862 26.4834 220.776 26.5109C220.69 26.5385 220.759 26.5653 220.928 26.5706C221.098 26.5758 221.168 26.5533 221.084 26.5205ZM219.274 25.154C219.123 25.1234 218.873 25.1156 218.719 25.1368C218.566 25.158 218.69 25.183 218.995 25.1925C219.301 25.202 219.426 25.1846 219.274 25.154ZM213.597 24.0997C213.598 24.0531 213.143 23.9429 212.586 23.8546C212.028 23.7664 211.439 23.6561 211.277 23.6096C211.095 23.5571 211.01 23.5667 211.055 23.6349C211.095 23.6954 211.613 23.8222 212.208 23.9167C212.802 24.0113 213.343 24.1059 213.411 24.1269C213.478 24.148 213.547 24.1695 213.563 24.1747C213.58 24.18 213.595 24.1462 213.597 24.0997ZM33.7188 17.5215C33.9416 17.4449 33.9328 17.4338 33.6367 17.4178C33.4542 17.4079 33.2691 17.4477 33.2254 17.5062C33.1303 17.6331 33.372 17.6406 33.7188 17.5215ZM212.784 22.4336C212.786 22.3823 212.231 22.2672 211.553 22.1779C210.024 21.9767 209.749 21.965 209.901 22.1081C209.965 22.1681 210.626 22.2796 211.369 22.356C212.112 22.4323 212.734 22.502 212.751 22.5108C212.767 22.5197 212.782 22.485 212.784 22.4336ZM26.8584 15.3685C26.8949 15.3197 26.844 15.2774 26.7452 15.2743C26.6464 15.2712 26.5643 15.3095 26.5627 15.3593C26.5612 15.4091 26.6122 15.4515 26.676 15.4535C26.7399 15.4555 26.8219 15.4172 26.8584 15.3685ZM43.368 15.6789C43.2799 15.6447 43.1734 15.6453 43.1313 15.6801C43.0892 15.715 43.1612 15.7429 43.2914 15.7422C43.4353 15.7414 43.4653 15.7166 43.368 15.6789ZM24.2297 14.9424C24.2316 14.8827 24.1359 14.8315 24.0172 14.8287C23.8327 14.8244 23.8277 14.8398 23.983 14.9348C24.2117 15.0746 24.2256 15.075 24.2297 14.9424ZM24.7284 14.7883C24.7292 14.7619 24.6744 14.7386 24.6065 14.7365C24.5387 14.7344 24.4816 14.7845 24.4796 14.8478C24.4776 14.9111 24.5325 14.9344 24.6015 14.8996C24.6705 14.8647 24.7276 14.8146 24.7284 14.7883ZM31.7829 14.2493C31.9538 14.2128 32.4835 14.1541 32.9599 14.1189C33.4364 14.0838 34.0221 14.0093 34.2615 13.9535C34.5009 13.8976 34.6967 13.856 34.6965 13.861C34.6952 13.9027 35.5473 13.6963 35.9716 13.5522C36.6154 13.3335 36.6613 13.1516 36.0772 13.1335C35.7757 13.1242 35.647 13.0709 35.6505 12.9571C35.6557 12.7899 36.2099 12.7409 37.1245 12.8268C37.5229 12.8642 38.6678 12.7122 38.9327 12.5866C39.1306 12.4929 38.5116 12.3611 37.7 12.3242C37.1719 12.3001 36.7194 12.3627 36.1574 12.5375C35.72 12.6736 35.2477 12.7821 35.1079 12.7787C34.9054 12.7738 34.8895 12.7939 35.0298 12.8779C35.1266 12.9359 35.2508 12.9606 35.3059 12.9328C35.3609 12.905 35.4045 12.9285 35.4027 12.985C35.3997 13.0823 35.1276 13.1427 34.181 13.256C33.9543 13.2831 33.7366 13.3732 33.6974 13.4562C33.639 13.5796 33.5915 13.5807 33.4366 13.4625C33.278 13.3413 33.2581 13.346 33.3145 13.4913C33.3638 13.6183 33.3107 13.6578 33.117 13.6385C32.9713 13.624 32.6666 13.6508 32.4398 13.698C32.1538 13.7576 31.9745 13.7427 31.8548 13.6493C31.7577 13.5736 31.6808 13.5616 31.6789 13.6219C31.6752 13.7418 30.7247 14.0557 30.3961 14.0455C30.2796 14.0419 30.1822 14.1058 30.1797 14.1875C30.1763 14.2982 30.3408 14.3335 30.8236 14.3259C31.1803 14.3203 31.612 14.2859 31.7829 14.2493ZM36.9794 10.4644C36.8912 10.4355 36.7588 10.4617 36.6852 10.5226C36.5911 10.6005 36.6389 10.6161 36.8455 10.5752C37.0135 10.5419 37.0709 10.4944 36.9794 10.4644ZM185.985 14.6513C185.986 14.6064 185.819 14.5541 185.614 14.535C185.4 14.5152 185.27 14.546 185.31 14.6072C185.392 14.7325 185.982 14.771 185.985 14.6513ZM37.3671 9.35982L37.6758 9.36101L37.3912 9.25046C37.0697 9.12557 36.5079 9.19669 36.5028 9.36293C36.5009 9.42353 36.6243 9.44707 36.7789 9.41558C36.9327 9.38426 37.1974 9.35917 37.3671 9.35982ZM185.019 13.9594C185.02 13.9096 184.938 13.8663 184.837 13.8631C184.735 13.86 184.65 13.8981 184.649 13.948C184.647 13.9978 184.729 14.0411 184.831 14.0443C184.933 14.0474 185.017 14.0092 185.019 13.9594ZM185.535 13.9918C185.447 13.9576 185.34 13.9582 185.298 13.993C185.256 14.0279 185.328 14.0558 185.458 14.0551C185.602 14.0544 185.632 14.0295 185.535 13.9918ZM39.4928 9.24797C39.4047 9.2138 39.2982 9.21438 39.2561 9.24921C39.214 9.28406 39.286 9.31202 39.4162 9.31132C39.5601 9.31057 39.5901 9.28572 39.4928 9.24797ZM25.6586 8.67593C25.6605 8.61615 25.6065 8.56552 25.5387 8.56341C25.4708 8.56131 25.4138 8.6085 25.4119 8.66828C25.4101 8.72807 25.4641 8.77871 25.5319 8.78081C25.5998 8.78291 25.6568 8.73572 25.6586 8.67593ZM28.8746 8.49027C28.8784 8.36848 28.6434 8.46809 28.5724 8.61842C28.5028 8.76558 28.5206 8.77288 28.6813 8.66287C28.7869 8.59051 28.8739 8.51283 28.8746 8.49027ZM30.1077 8.54181C30.1105 8.45213 30.091 8.37808 30.0643 8.37725C30.0377 8.37643 29.9816 8.44813 29.9398 8.5366C29.898 8.62507 29.9175 8.69912 29.9832 8.70116C30.0489 8.7032 30.105 8.63149 30.1077 8.54181ZM191.714 9.831C191.626 9.79683 191.519 9.79741 191.477 9.83224C191.435 9.86709 191.507 9.89504 191.637 9.89434C191.781 9.8936 191.811 9.86875 191.714 9.831ZM78.2081 4.11008C78.2489 4.05563 78.2325 3.98196 78.1717 3.94637C78.1109 3.91076 78.027 3.95375 77.9854 4.04188C77.9032 4.21561 78.087 4.27188 78.2081 4.11008ZM18.2125 48.9485C18.1438 48.8715 18.1361 48.8086 18.1953 48.8086C18.2546 48.8087 18.2009 48.7523 18.0761 48.6834C17.7558 48.5067 18.0485 48.3728 18.686 48.4044C19.0189 48.4209 19.0983 48.4494 18.9302 48.4919C18.6931 48.552 18.5093 48.8233 18.7038 48.8262C19.0662 48.8316 19.3321 48.6976 19.2807 48.5356C19.2304 48.3774 19.2451 48.3793 19.395 48.5499C19.5987 48.7818 20.5361 48.8523 20.6238 48.6424C20.6683 48.5358 20.7185 48.538 20.8673 48.6535C21.102 48.8356 21.2306 49.2642 21.0287 49.1916C20.95 49.1633 20.9057 49.0748 20.9302 48.995C20.9613 48.8934 20.9043 48.9024 20.7407 49.0248C20.5539 49.1645 20.2883 49.1885 19.4221 49.1441C18.7332 49.1087 18.2918 49.0373 18.2125 48.9485ZM16.5266 48.6564C16.3651 48.5618 16.4516 48.3227 16.6452 48.3287C16.7859 48.333 16.8999 48.6438 16.7825 48.7031C16.7305 48.7294 16.6153 48.7083 16.5266 48.6564ZM19.1636 47.8627C19.0331 47.6659 19.0482 47.6396 19.2954 47.6326C19.4489 47.6282 19.658 47.6192 19.76 47.6126C20.0901 47.5913 20.1489 47.6925 19.9253 47.8971C19.6429 48.1555 19.349 48.1423 19.1636 47.8627ZM93.9113 49.3697C93.9122 49.3433 93.9693 49.2932 94.0383 49.2584C94.1072 49.2235 94.1621 49.2468 94.1601 49.3101C94.1582 49.3734 94.101 49.4235 94.0332 49.4214C93.9654 49.4193 93.9105 49.396 93.9113 49.3697ZM95.361 49.3403C95.4469 49.2686 95.5475 49.2382 95.5845 49.2729C95.6214 49.3075 95.5511 49.3662 95.4281 49.4032C95.2505 49.4568 95.2367 49.4439 95.361 49.3403ZM29.1631 46.989C29.1647 46.9366 29.2536 46.8337 29.3606 46.7604C29.5119 46.6568 29.5872 46.6572 29.6991 46.7621C29.811 46.867 29.8013 46.9186 29.6558 46.9939C29.4192 47.1162 29.1593 47.1137 29.1631 46.989ZM168.458 50.3135C168.46 50.2537 168.542 50.2073 168.639 50.2103C168.737 50.2134 168.85 50.2658 168.89 50.3269C168.93 50.388 168.849 50.4344 168.709 50.4301C168.569 50.4258 168.456 50.3733 168.458 50.3135ZM166.365 50.1331C166.369 50.0093 166.7 50.007 166.781 50.1302C166.813 50.1786 166.732 50.222 166.6 50.2266C166.469 50.2312 166.363 50.1892 166.365 50.1331ZM44.0414 46.1664C43.9383 45.9081 44.1086 45.8759 44.5292 46.0743C44.7486 46.1778 44.8724 46.2681 44.8043 46.275C44.2823 46.3278 44.0952 46.3012 44.0414 46.1664ZM150.712 49.2195C150.714 49.1597 150.74 49.1116 150.77 49.1125C150.8 49.1134 150.857 49.1642 150.897 49.2252C150.938 49.2863 150.912 49.3345 150.84 49.3323C150.768 49.33 150.711 49.2793 150.712 49.2195ZM148.937 49.0703C148.886 48.9929 148.879 48.9012 148.921 48.8666C149.034 48.7727 149.15 48.9195 149.086 49.0753C149.04 49.1845 149.011 49.1837 148.937 49.0703ZM149.389 49.1064C149.139 49.0088 149.221 48.8625 149.487 48.9324C149.621 48.9679 149.73 49.0401 149.729 49.0929C149.725 49.1965 149.629 49.2004 149.389 49.1064ZM208.542 50.3952C208.404 50.2657 208.461 50.1388 208.653 50.1448C208.755 50.1479 208.836 50.2239 208.833 50.3136C208.828 50.4833 208.681 50.5247 208.542 50.3952ZM55.4785 44.9849C55.4468 44.9365 55.5294 44.893 55.6621 44.8884C55.7949 44.8837 55.8698 44.9248 55.8287 44.9798C55.7374 45.1017 55.5569 45.1043 55.4785 44.9849ZM56.5962 44.8326C56.6378 44.7448 56.7631 44.6719 56.8747 44.6708C56.9863 44.6696 57.3281 44.6544 57.6342 44.6369C58.0356 44.614 58.1383 44.6342 58.0024 44.7095C57.8469 44.7955 57.8445 44.815 57.9886 44.8208C58.0847 44.8248 58.1278 44.8573 58.0844 44.8933C58.0409 44.9292 57.6713 44.9662 57.263 44.9755C56.6446 44.9896 56.5333 44.9657 56.5962 44.8326ZM6.26448 43.0094C6.17729 42.8764 6.41333 42.7548 6.57486 42.8493C6.71048 42.9287 6.61386 43.1215 6.44111 43.1161C6.38127 43.1143 6.30179 43.0662 6.26448 43.0094ZM7.51868 40.2181C7.52043 40.1619 7.57766 40.0877 7.64585 40.0532C7.71696 40.0173 7.73628 40.0616 7.69116 40.157C7.60332 40.3428 7.51384 40.3745 7.51868 40.2181ZM8.425 40.1902C8.4277 40.1031 8.47627 40.0591 8.53294 40.0923C8.58961 40.1254 8.60263 40.1971 8.56188 40.2516C8.45772 40.3907 8.41932 40.3735 8.425 40.1902ZM223.826 32.6619C223.726 32.6008 223.7 32.5525 223.768 32.5546C223.836 32.5567 223.973 32.6084 224.073 32.6695C224.173 32.7307 224.199 32.7789 224.131 32.7768C224.064 32.7747 223.926 32.723 223.826 32.6619ZM21.4089 18.3137C21.4104 18.2666 21.5226 18.2315 21.6583 18.2357C21.7939 18.24 21.9035 18.2893 21.9018 18.3453C21.9001 18.4014 21.7878 18.4365 21.6524 18.4233C21.517 18.41 21.4074 18.3607 21.4089 18.3137ZM26.6239 16.8774L26.3411 16.662L27.0819 16.5985C27.4894 16.5636 28.1142 16.5413 28.4704 16.5489C28.8266 16.5566 29.1191 16.5296 29.1205 16.4889C29.1232 16.4043 29.8527 16.5956 29.964 16.7101C30.0044 16.7517 29.8671 16.7518 29.6589 16.7103C29.4259 16.6639 29.1401 16.695 28.9156 16.7912C28.7149 16.8772 28.2592 16.9433 27.9029 16.938C27.5465 16.9328 27.2537 16.9678 27.2522 17.0159C27.2474 17.1717 26.914 17.0982 26.6239 16.8774ZM25.068 16.8612C25.1101 16.8263 25.2166 16.8258 25.3047 16.86C25.402 16.8977 25.372 16.9226 25.2281 16.9233C25.0979 16.924 25.0259 16.896 25.068 16.8612ZM22.8705 15.2902C22.8687 15.1754 22.8999 15.1121 22.9397 15.1495C22.9796 15.1869 22.9811 15.2808 22.943 15.3582C22.9009 15.4437 22.8725 15.417 22.8705 15.2902ZM26.2677 14.481C26.3037 14.4329 26.2221 14.3044 26.0866 14.1953C25.844 14.0002 25.8524 13.9923 26.6131 13.7026C27.5293 13.3537 27.6129 13.3477 27.604 13.6325C27.5999 13.7665 27.5144 13.848 27.3814 13.8449C27.2064 13.8408 27.198 13.8593 27.337 13.9426C27.4313 13.9991 27.6109 14.0312 27.736 14.014C27.8612 13.9967 27.962 14.0324 27.9602 14.0934C27.9583 14.1543 27.7766 14.1899 27.5564 14.1724C27.3363 14.1549 27.0449 14.1429 26.909 14.1457C26.7032 14.1499 26.6923 14.1693 26.8437 14.2618C26.999 14.3568 26.9941 14.3722 26.8095 14.3679C26.6908 14.3652 26.5921 14.4118 26.5903 14.4716C26.5884 14.5314 26.5004 14.5776 26.3946 14.5743C26.2888 14.571 26.2317 14.529 26.2677 14.481ZM27.8721 13.6527C27.7502 13.5813 27.7564 13.5361 27.9019 13.4364C28.1061 13.2967 28.2612 13.4291 28.1177 13.6207C28.0666 13.689 27.9582 13.7031 27.8721 13.6527ZM23.7366 8.94277C23.6965 8.88168 23.747 8.83428 23.8487 8.83744C23.9505 8.84059 24.0666 8.89315 24.1066 8.95424C24.1467 9.01533 24.0963 9.06273 23.9945 9.05957C23.8927 9.05642 23.7767 9.00386 23.7366 8.94277ZM26.278 8.53439C26.4615 8.35128 26.5335 8.33386 26.5292 8.47364C26.5276 8.52704 26.4341 8.5987 26.3216 8.63291C26.1505 8.68491 26.1434 8.66878 26.278 8.53439ZM200.666 12.1832C200.814 12.0602 201.607 11.9849 201.764 12.0788C201.854 12.1328 201.872 12.1809 201.804 12.1857C201.138 12.2322 200.608 12.231 200.666 12.1832ZM199.921 12.0259C199.82 11.9653 199.898 11.9361 200.14 11.9436C200.346 11.95 200.513 11.996 200.512 12.0458C200.508 12.1615 200.126 12.1487 199.921 12.0259ZM196.754 11.7888C196.229 11.6682 194.95 11.5538 192.556 11.4134C191.737 11.3653 190.949 11.2663 190.806 11.1934C190.651 11.114 190.099 11.0591 189.433 11.0564C188.82 11.054 188.319 11.0408 188.32 11.0272C188.321 10.9894 189.049 10.6931 189.134 10.6957C189.175 10.697 189.173 10.7459 189.129 10.8044C189.083 10.8664 189.207 10.9156 189.427 10.9224C189.635 10.9289 189.806 10.8852 189.808 10.8254C189.81 10.7656 189.87 10.7185 189.942 10.7208C190.014 10.723 190.029 10.7847 189.976 10.8578C189.904 10.9562 189.926 10.9636 190.06 10.8863C190.16 10.8287 190.352 10.7907 190.488 10.8018C190.623 10.8128 191.028 10.8383 191.388 10.8583C191.748 10.8783 192.016 10.9306 191.983 10.9744C191.95 11.0183 192.265 11.0576 192.683 11.0618C193.101 11.0659 193.538 11.118 193.655 11.1774C193.797 11.2494 193.869 11.2458 193.872 11.1664C193.874 11.101 193.941 11.0861 194.022 11.1333C194.103 11.1805 194.642 11.2472 195.221 11.2814C195.8 11.3157 196.274 11.3495 196.274 11.3566C196.273 11.3637 196.55 11.3939 196.889 11.4238C197.227 11.4537 197.518 11.4894 197.535 11.5032C197.563 11.5267 197.689 11.5636 197.902 11.6106C197.999 11.6321 197.41 11.9299 197.306 11.9119C197.272 11.906 197.024 11.8507 196.754 11.7888ZM191.775 11.0905C191.777 11.0382 191.67 10.992 191.539 10.9879C191.407 10.9839 191.268 11.0224 191.23 11.0736C191.191 11.1247 191.298 11.1709 191.466 11.1761C191.634 11.1813 191.773 11.1428 191.775 11.0905ZM198.383 10.9807C198.342 10.9186 198.256 10.8943 198.192 10.9268C198.128 10.9592 198.077 10.9368 198.079 10.8771C198.085 10.6666 198.284 10.6694 198.425 10.882C198.504 11.0003 198.543 11.0962 198.512 11.0953C198.482 11.0944 198.424 11.0427 198.383 10.9807ZM195.756 10.4749C195.629 10.3562 195.499 10.2811 195.467 10.3078C195.434 10.3346 195.137 10.3645 194.806 10.3743C194.233 10.3913 193.53 10.1453 193.715 9.99237C193.863 9.86991 194.714 9.92602 194.896 10.0702C195.082 10.2178 195.429 10.2333 195.589 10.101C195.723 9.98972 196.352 10.0345 196.435 10.1613C196.548 10.334 196.36 10.7021 196.162 10.6959C196.065 10.6929 195.882 10.5935 195.756 10.4749ZM197.026 10.5972C196.976 10.5206 196.995 10.5 197.074 10.546C197.146 10.5884 197.242 10.5744 197.286 10.515C197.406 10.3547 197.559 10.3895 197.553 10.5759C197.547 10.7674 197.148 10.7835 197.026 10.5972ZM52.8362 5.31783C52.8783 5.28297 52.9848 5.2824 53.0729 5.31659C53.1702 5.35434 53.1402 5.37919 52.9963 5.37995C52.8662 5.38063 52.7941 5.35269 52.8362 5.31783ZM77.8156 3.00232C77.8174 2.94254 77.8434 2.89438 77.8733 2.89531C77.9032 2.89624 77.9605 2.94698 78.0006 3.00806C78.0407 3.06915 78.0147 3.1173 77.9428 3.11507C77.871 3.11285 77.8137 3.06211 77.8156 3.00232ZM80.6916 3.10247C80.4964 2.96737 80.5498 2.78359 80.7675 2.8409C80.9063 2.87747 80.9974 2.83591 81.0137 2.72858C81.0279 2.63488 81.0511 2.48513 81.0652 2.3958C81.0793 2.30647 81.1927 2.23043 81.3173 2.2268C81.442 2.22316 81.5859 2.21142 81.6371 2.20065C81.6884 2.18986 81.8981 2.14678 82.1031 2.10488C82.559 2.01171 82.8098 1.85919 82.7235 1.72762C82.688 1.67346 82.7686 1.63255 82.9026 1.6367C83.0366 1.64086 83.1726 1.70626 83.2047 1.78207C83.2452 1.87783 83.2952 1.88524 83.3685 1.80642C83.5561 1.60476 83.9357 1.55178 84.1305 1.7001C84.2869 1.81914 84.302 1.81676 84.2185 1.68619C84.142 1.56646 84.1689 1.54767 84.3308 1.60806C84.448 1.6518 84.6189 1.68989 84.7105 1.69273C84.8022 1.69557 84.9077 1.79174 84.9451 1.90644C84.9887 2.04049 85.0927 2.09917 85.2364 2.07073C85.5535 2.00793 85.5292 1.73814 85.2102 1.77978C84.9582 1.81268 84.958 1.81118 85.2019 1.71783C85.3393 1.66523 85.6398 1.62457 85.8695 1.62749C86.0993 1.63037 86.6282 1.59533 87.0449 1.54954C88.1249 1.4309 90.8363 1.24836 92.0702 1.21123C92.6479 1.19386 93.371 1.16799 93.6771 1.15374C94.3218 1.12374 95.5941 1.08361 97.2612 1.04068C97.9069 1.02405 98.7968 0.994691 99.2388 0.975439C100.301 0.929164 101.97 0.97497 102.2 1.05676C102.3 1.0926 102.617 1.16678 102.904 1.22164C103.191 1.27648 103.425 1.35735 103.424 1.40134C103.422 1.44533 103.28 1.59801 103.108 1.7406C102.853 1.9517 102.679 1.99433 102.174 1.96996C101.805 1.95208 101.569 1.98517 101.592 2.05139C101.613 2.11263 102.057 2.18001 102.58 2.20112C103.4 2.23424 103.942 2.39182 103.75 2.54143C103.665 2.60838 102.027 2.62639 102.03 2.56037C102.031 2.52805 101.657 2.50529 101.198 2.50979C100.739 2.5143 100.047 2.46369 99.6594 2.39721C99.2718 2.33078 98.9277 2.29882 98.8947 2.32619C98.8616 2.35355 98.5962 2.37888 98.3048 2.38247C98.0134 2.38608 97.6205 2.42205 97.4316 2.46245C97.2274 2.50613 97.0262 2.4875 96.9351 2.41647C96.8509 2.35079 96.2456 2.26911 95.5901 2.23495C94.7786 2.1927 94.4247 2.13631 94.4813 2.0583C94.5269 1.99531 94.468 2.00819 94.3503 2.08694C94.203 2.18543 93.9803 2.20321 93.6366 2.14386C93.3085 2.08721 93.1626 2.09663 93.2116 2.17128C93.2951 2.29853 93.2788 2.30041 92.1602 2.29223C91.7188 2.289 91.2317 2.32096 91.0776 2.36324C90.9235 2.40552 90.7986 2.40013 90.8001 2.35127C90.8017 2.3024 90.6641 2.25811 90.4945 2.25286C90.3249 2.2476 90.185 2.27999 90.1836 2.32483C90.1822 2.36967 90.0945 2.40367 89.9888 2.40039C89.883 2.39712 89.8267 2.35402 89.8637 2.3046C89.9531 2.18518 88.6804 2.32518 88.5846 2.44531C88.4092 2.66521 86.0937 2.8218 86.1001 2.61332C86.1021 2.54969 86.0449 2.49578 85.9731 2.49355C85.9012 2.49132 85.873 2.53604 85.9103 2.5929C86.0169 2.75546 85.7301 2.84462 85.5507 2.70468C85.4303 2.61079 85.3723 2.61451 85.3228 2.71923C85.28 2.80966 85.0757 2.84524 84.7497 2.81902C84.471 2.79663 84.2416 2.82398 84.2398 2.87982C84.2343 3.05958 83.6042 2.92189 83.4874 2.71539C83.4253 2.60558 83.3199 2.54328 83.2532 2.57694C83.1866 2.61061 83.1591 2.67945 83.1922 2.72991C83.2254 2.78037 83.1704 2.8466 83.0702 2.87707C82.9699 2.90754 82.856 2.88389 82.8171 2.8245C82.7739 2.75866 82.6152 2.77591 82.4105 2.86866C82.0253 3.04322 80.839 3.20456 80.6916 3.10247ZM78.9407 2.554C78.9466 2.36306 79.0215 2.33725 79.1226 2.49129C79.1599 2.54816 79.133 2.62366 79.0629 2.65907C78.9928 2.69449 78.9378 2.64731 78.9407 2.554ZM79.4114 2.38063C79.485 2.31968 79.6174 2.29346 79.7056 2.32235C79.7971 2.35236 79.7397 2.3999 79.5717 2.43317C79.365 2.47409 79.3173 2.45844 79.4114 2.38063ZM121.912 3.42175C121.761 3.39111 121.637 3.3287 121.639 3.28307C121.643 3.15005 122.177 3.23897 122.226 3.3808C122.25 3.45165 122.252 3.50238 122.229 3.49353C122.207 3.48466 122.064 3.4524 121.912 3.42175ZM119.361 3.09303C119.704 2.97513 119.898 2.98117 119.669 3.10258C119.565 3.15739 119.397 3.19697 119.296 3.19052C119.174 3.1828 119.196 3.14959 119.361 3.09303ZM120.107 3.1263C120.071 3.07091 120.152 3.05465 120.287 3.09015C120.572 3.16545 120.607 3.24044 120.351 3.23253C120.254 3.2295 120.144 3.1817 120.107 3.1263ZM104.235 2.38816C104.046 2.21016 104.135 2.20097 105.66 2.24012C106.554 2.26303 107.41 2.26463 107.562 2.24356C107.714 2.22249 107.866 2.2472 107.9 2.29845C107.933 2.3497 108.131 2.38654 108.339 2.38031C108.901 2.36346 108.899 2.5218 108.336 2.55157C108.07 2.56565 107.88 2.54033 107.914 2.49545C108.02 2.3542 107.828 2.40188 107.63 2.56623C107.414 2.74466 106.892 2.7618 106.782 2.59407C106.733 2.52013 106.626 2.51849 106.463 2.58921C106.186 2.70955 105.932 2.61405 106.063 2.43892C106.12 2.36233 106.09 2.35395 105.973 2.41397C105.876 2.46373 105.491 2.52098 105.117 2.54119C104.581 2.5701 104.394 2.53754 104.235 2.38816ZM114.121 2.82182C114.123 2.76204 114.149 2.71389 114.179 2.71482C114.209 2.71574 114.266 2.76648 114.307 2.82756C114.347 2.88865 114.321 2.9368 114.249 2.93458C114.177 2.93235 114.12 2.88161 114.121 2.82182ZM109.194 2.4515C109.085 2.38474 109.071 2.34154 109.159 2.34328C109.24 2.3448 109.339 2.39615 109.379 2.45723C109.47 2.59513 109.427 2.59381 109.194 2.4515ZM157.374 3.92986C157.441 3.84084 156.974 3.71922 156.876 3.80016C156.74 3.91291 156.191 3.918 156.194 3.80646C156.197 3.73747 155.846 3.70997 155.24 3.73157C154.497 3.75805 154.186 3.72292 153.856 3.57485C153.621 3.4699 153.522 3.40936 153.636 3.44031C153.749 3.47126 153.861 3.4546 153.884 3.40335C153.907 3.35207 154.009 3.2968 154.112 3.28052C154.214 3.26426 154.34 3.20328 154.392 3.14503C154.444 3.08679 154.483 3.14629 154.48 3.27733C154.475 3.5025 154.494 3.50756 154.819 3.36988C155.128 3.23922 155.18 3.24431 155.328 3.4193C155.485 3.60484 155.489 3.60497 155.424 3.42229C155.371 3.2737 155.424 3.23187 155.654 3.239C155.818 3.24409 156.006 3.33561 156.072 3.44237C156.139 3.55011 156.196 3.57608 156.2 3.50074C156.208 3.35852 156.58 3.31619 156.576 3.45797C156.574 3.50281 156.993 3.54968 157.506 3.56212C158.019 3.57455 158.465 3.6251 158.497 3.67446C158.53 3.7238 158.675 3.76785 158.82 3.77235C159.032 3.7789 159.053 3.80676 158.926 3.91163C158.767 4.0429 157.276 4.06084 157.374 3.93031L157.374 3.92986ZM159.399 3.98935C159.401 3.93953 159.444 3.89676 159.495 3.8943C159.546 3.89184 159.765 3.87485 159.983 3.85657C160.473 3.81542 160.641 4.00729 160.169 4.06893C159.703 4.12987 159.396 4.09815 159.399 3.98935ZM150.529 3.35175C150.531 3.29197 150.324 3.23661 150.07 3.22872C149.815 3.22083 149.565 3.26203 149.513 3.32027C149.45 3.39087 149.42 3.38991 149.42 3.31739C149.422 3.18112 148.684 3.12601 148.68 3.26208C148.678 3.31681 148.627 3.33256 148.566 3.29706C148.451 3.22944 147.369 3.09308 146.218 3.00112C145.846 2.97134 145.541 2.93599 145.542 2.92256C145.544 2.84971 143.921 2.79828 143.815 2.86786C143.625 2.99205 142.389 3.04448 142.393 2.92816C142.395 2.8729 142.313 2.82511 142.211 2.82196C142.109 2.8188 142.025 2.86342 142.023 2.92112C142.021 2.98661 141.151 2.97976 139.708 2.9029C138.437 2.83519 137.263 2.77615 137.099 2.7717C136.936 2.76761 136.618 2.71278 136.393 2.65066C136.147 2.58274 135.983 2.57728 135.981 2.63691C135.978 2.7357 135.548 2.70633 135.434 2.59957C135.401 2.56878 134.84 2.54443 134.187 2.54547C133.4 2.54673 132.942 2.50257 132.829 2.41449C132.696 2.31098 132.657 2.31458 132.652 2.43073C132.648 2.52494 132.614 2.53702 132.559 2.46349C132.506 2.39365 131.806 2.3211 130.807 2.28199C129.891 2.24621 127.117 2.12606 124.641 2.01512C122.166 1.9042 118.989 1.77122 117.582 1.71963C116.174 1.66812 115.024 1.59522 115.025 1.55781C115.026 1.52037 114.721 1.4803 114.348 1.46874C113.975 1.45718 113.669 1.48441 113.668 1.52925C113.666 1.57409 113.606 1.60896 113.534 1.60673C113.463 1.6045 113.44 1.55483 113.483 1.49634C113.527 1.43785 113.477 1.38732 113.371 1.38404C113.265 1.38082 113.18 1.32922 113.182 1.26944C113.184 1.20965 113.126 1.15891 113.055 1.15668C112.983 1.15445 112.957 1.20261 112.997 1.2637C113.04 1.3293 112.903 1.36891 112.662 1.36045C112.353 1.34949 112.299 1.32191 112.442 1.2465C112.581 1.17291 112.587 1.1451 112.467 1.14014C112.342 1.13487 112.348 1.09726 112.494 0.976102C112.599 0.889578 112.799 0.822346 112.94 0.826702C113.08 0.831057 113.197 0.782406 113.199 0.718588C113.201 0.649761 113.308 0.635697 113.462 0.684021C113.637 0.738826 113.696 0.725244 113.642 0.642505C113.597 0.574864 113.594 0.520548 113.634 0.52179C113.674 0.523033 113.746 0.625962 113.794 0.750525L113.881 0.977008L114.213 0.7616C114.441 0.613957 114.571 0.585476 114.627 0.671084C114.685 0.759627 114.74 0.753989 114.817 0.651691C114.905 0.534438 115.752 0.533795 119.339 0.648275C121.767 0.725825 124.752 0.851519 125.972 0.927782C127.192 1.00404 129.216 1.12662 130.47 1.20019C134.998 1.4658 136.164 1.54747 136.264 1.60593C136.487 1.73655 137.478 1.87698 137.631 1.79968C137.725 1.75204 137.832 1.77342 137.886 1.85039C137.954 1.94972 138.009 1.94307 138.104 1.8242C138.173 1.73659 138.23 1.71386 138.229 1.77368C138.228 1.84233 138.99 1.90122 140.294 1.93334C142.355 1.98409 145.87 2.26868 145.867 2.38452C145.866 2.4181 146.296 2.4534 146.822 2.46299C147.723 2.47939 149.794 2.69247 150.158 2.80636C150.293 2.84838 150.294 2.88909 150.165 3.01786C150.035 3.14762 150.038 3.16941 150.179 3.13487C150.274 3.11153 150.508 3.06725 150.698 3.03648C150.911 3.002 151.019 2.92875 150.977 2.84563C150.94 2.77143 150.972 2.7893 151.048 2.88532C151.16 3.02653 151.318 3.04832 151.874 2.99924C152.265 2.96474 152.654 2.98544 152.775 3.04726C152.892 3.10705 153.144 3.16747 153.335 3.18153C153.655 3.20507 153.658 3.21027 153.383 3.24729C153.151 3.2784 153.122 3.31069 153.255 3.39005C153.442 3.50234 153.282 3.5107 151.544 3.47903C150.937 3.46794 150.527 3.41649 150.529 3.35175ZM114.709 1.26297C114.672 1.17242 114.592 1.12387 114.531 1.15507C114.354 1.24453 114.394 1.41578 114.593 1.42197C114.703 1.42538 114.749 1.36296 114.709 1.26297ZM107.503 1.41158C107.636 1.20648 107.629 1.18251 107.453 1.23614C107.277 1.28964 107.27 1.26559 107.402 1.06287L107.555 0.827488L107.67 1.07364C107.802 1.35605 108.056 1.40438 108.167 1.16841C108.209 1.07994 108.199 1.00618 108.144 1.0045C108.09 1.00281 108.048 0.927459 108.051 0.837039C108.055 0.703386 108.167 0.689128 108.65 0.760818C109.056 0.821048 109.245 0.81011 109.248 0.726295C109.25 0.658132 109.447 0.60963 109.69 0.617187C109.978 0.626107 110.099 0.671073 110.042 0.747742C109.98 0.830883 110.03 0.83173 110.217 0.750665C110.435 0.655911 110.466 0.664245 110.402 0.799955C110.36 0.889783 110.276 0.961747 110.215 0.95987C110.154 0.957992 110.103 1.00537 110.101 1.06515C110.094 1.29174 110.321 1.16769 110.478 0.859217C110.661 0.499462 110.666 0.497592 110.97 0.65301C111.124 0.731412 111.169 0.847774 111.12 1.04298C111.082 1.19601 111.099 1.30847 111.159 1.29287C111.219 1.27728 111.294 1.31318 111.327 1.37267C111.361 1.43664 111.066 1.47848 110.605 1.4751C109.892 1.46987 109.814 1.44665 109.698 1.20466C109.574 0.943737 109.121 0.816996 109.114 1.04098C109.112 1.10431 109.167 1.12792 109.235 1.09347C109.305 1.05812 109.326 1.10044 109.283 1.19049C109.239 1.28378 109.128 1.32022 109.015 1.27813C108.889 1.23133 108.851 1.25047 108.905 1.33282C109 1.47739 108.587 1.56916 108.112 1.5089C107.943 1.48744 107.702 1.51021 107.576 1.5595C107.372 1.63982 107.364 1.62446 107.503 1.41158ZM110.89 1.10772C110.926 1.05899 110.878 1.01668 110.782 1.01371C110.686 1.01074 110.635 1.04996 110.669 1.10087C110.702 1.15177 110.751 1.19408 110.776 1.19488C110.802 1.19568 110.853 1.15646 110.89 1.10772ZM105.841 1.38069C105.805 1.32654 105.887 1.2602 106.024 1.23323C106.188 1.20057 106.248 1.1256 106.201 1.00875C106.163 0.912251 106.183 0.834912 106.247 0.836889C106.416 0.842132 106.378 1.19637 106.191 1.3507C106.002 1.50724 105.928 1.51361 105.841 1.38069ZM106.606 1.10191C106.644 1.02326 106.69 0.959413 106.709 0.960014C106.729 0.960615 106.771 1.02721 106.803 1.108C106.835 1.1888 106.789 1.25265 106.7 1.24989C106.611 1.24714 106.569 1.18055 106.606 1.10191ZM107.091 0.812115C107.226 0.728421 107.458 0.662155 107.606 0.664858C107.901 0.670137 108.083 0.84086 107.896 0.935546C107.831 0.967978 107.759 0.937667 107.735 0.868088C107.703 0.773077 107.626 0.770503 107.425 0.857473C107.04 1.02455 106.802 0.991962 107.091 0.811812L107.091 0.812115ZM105.453 0.746528C105.495 0.711678 105.601 0.711111 105.69 0.74529C105.787 0.783036 105.757 0.80789 105.613 0.808647C105.483 0.809323 105.411 0.781378 105.453 0.746528ZM111.958 0.905078C111.803 0.810131 111.808 0.794696 111.993 0.79899C112.111 0.801685 112.207 0.852933 112.205 0.912724C112.201 1.0453 112.187 1.04487 111.958 0.905078ZM111.301 0.718984C111.246 0.582073 111.278 0.573749 111.474 0.673778C111.756 0.817496 111.781 0.899574 111.54 0.892106C111.445 0.889177 111.338 0.811267 111.301 0.718984Z" fill="#F6E924"/>
</svg>
