<svg xmlns="http://www.w3.org/2000/svg" xmlns:xlink="http://www.w3.org/1999/xlink" viewBox="0 0 192.99 70.62"><path d="M191.49,9.11c-.35-.24-.57-.32-.88,0a.38.38,0,0,1-.4,0,1.25,1.25,0,0,0-1.77-.1c-.2.15-.55-.49-.93-.26s-.4.42-.72.13-.46.19-.71.26-.55-.6-.94-.25a.63.63,0,0,1-.95,0,1.21,1.21,0,0,0-1.25-.16c-1.59.73-3.24.34-4.86.41,0-.45,0-.95-.65-.93s-1.14-.65-1.82-.58c-.93-.71-2-.27-3-.36-.61.6-1.35.42-2.07.42s-1.46,0-2.19,0c-.13,0-.25-.13-.37-.21s0,.08,0-.24c0-.11.11-.24.17-.36.58.6.64,0,.8-.39,0,0,.25,0,.33.09s.27.17.33,0a.74.74,0,0,0,.07-.45,5.63,5.63,0,0,0-.42-.76,3.43,3.43,0,0,0-.64,0c-1.39.18-1.4.21-2.38-.63-.34-.29-.62-.37-.95-.07s-.67.18-1-.08c-.13-.1-.25,0-.3.16s-.18.59-.25.49c-.5-.63-.89.39-1.35.06-1-.74-2.08-.42-3.12-.25a1.5,1.5,0,0,1-.73,0,11.27,11.27,0,0,0-1.93-.18A4.41,4.41,0,0,1,155,4.55a1.85,1.85,0,0,0-2.06.18.42.42,0,0,1-.59,0c-.5-.52-.88-.24-1.35.08-.14.09-.6-.38-.75-.29-.88.59-1.83.34-2.74.33a4,4,0,0,0-2.05.52c-.26.14-.5.31-.76.44a.66.66,0,0,1-.87-.4c-.16-.51-.45-.53-.83-.52s-1,.88-1.55.12c0,0-.27.05-.34.15a5.33,5.33,0,0,1-1.24.89c-.24.18-.36,0-.55,0s-.64-.26-.81-.14a2.83,2.83,0,0,1-1.86.43c-.69.67-1,.17-1.21-.47-.41-.19-.82-.61-1.18.1a1.3,1.3,0,0,1-.32.28c-.46-.59-.89.23-1.3,0a10.39,10.39,0,0,1-1.09-.68c-.21-1.1-.69-.65-1.2-.27-.15.1-.42,0-.64,0-.34-.44-.49-.47-.74-.3-.56.38-.5,1.25-1.1,1.6-.15.08-.26.08-.29-.13a4.86,4.86,0,0,1,0-.66c.31-.09.51-.3.37-.64s-1-.74-1.22-.55-.61-.37-.93,0-.64.17-1-.07-.39.09-.5.26-.25.56-.41.81-.32.19-.36.15c-.5-.54-1.27-.22-1.79-.68-.1-.09-.31-.21-.37-.16-.62.52-1.39.29-2,.55a1,1,0,0,0-.34.3.76.76,0,0,0-.11.37s.11.12.17.13a2.06,2.06,0,0,0,.65,0c.39-.08.79-.35,1.15-.29s.55.49.85.71c.08.06.27,0,.39-.08a.53.53,0,0,0-.05-.35c-.12-.17-.16-.31,0-.37s.33-.12.4-.06c.35.29.66.63,1,1a.67.67,0,0,1,.11.19c-.1.09-.21.22-.32.22-2.12,0-4.23,0-6.35,0a.88.88,0,0,1-.43,0c-.43-.27-.83-.73-1.32-.11-.54-.13-.79-.61-1.06-1.06a.22.22,0,0,1,.11-.15.73.73,0,0,1,.41,0c.26.11.5.4.75.4a2.06,2.06,0,0,1,1.63.44c.13.12.43.07.64,0a.45.45,0,0,0,.25-.31c0-.13,0-.39-.1-.42a9.35,9.35,0,0,0-1.79-.64c-.63-.11-1.32.14-1.85-.45a.22.22,0,0,0-.21,0c-.81.78-1.47.1-2.13-.29-.37-.22-.48.11-.72.19a2,2,0,0,1-.61.06c0,.21,0,.41,0,.62a.3.3,0,0,1-.12.16c-.09,0-.24-.09-.26-.16s0-.41-.06-.61c-.35,0-.61.52-1.1.1-.33-.28-1-.43-1.11.49,0,.21-.14.25-.28.18q-.75-.4-1.53-.78s-.13,0-.18.09-.08.14-.06.16c.28.36.59.7.85,1.07.09.12.5.29.09.48-.15.07-.41-.06-.58-.16a2.18,2.18,0,0,1-.49-.47c-.14-.16-.23-.17-.36,0-.47.51-1.12.1-1.65.38-.17.09-.34.42-.53.19s-.88-.14-.94-.75c.64,0,1.29,0,1.93,0s.82-.31.65-1.12c0-.21-.24-.26-.28-.13-.16.54-.36.84-.84.3-1.09,0-2.19,0-3.29,0a4.49,4.49,0,0,1-3.1-.75.9.9,0,0,0-1.21,0,1.06,1.06,0,0,1-1.42,0,.8.8,0,0,0-.6-.11,3.44,3.44,0,0,1-3.08,0,2.74,2.74,0,0,0-.86-.08c-1.31,0-2.63,0-4,0a8,8,0,0,1-2.4-.08c-.69-.23-1.39-.35-2.07-.55-.27-.09-.47-.28-.74,0-.09.09-.27.08-.4.13-.56.22-.9-.64-1.41-.38a8.13,8.13,0,0,0-1,.83c-.09.06-.28,0-.4-.08s-.33-.27-.35-.25a1.56,1.56,0,0,1-1.45.35c-.63-.1-1.32.27-1.91-.24s-1.12.67-1.83.29c-.37-.2-.86,0-1.25-.3s-1-.09-1.49-.22S68.41,3.14,68,3c-.54.67-1-.11-1.54-.08s-1.17,0-1.76,0H63c-.58,0-1.17.07-1.75,0a3.38,3.38,0,0,1-2.12-.37c-.31-.23-.85-.08-1.29-.12-1.29-.12-2.62.37-3.87-.32-.09,0-.24.08-.37.11a3.6,3.6,0,0,1-2.75-.12A2.46,2.46,0,0,0,49.74,2a17.75,17.75,0,0,0-2.63,0c-.92.12-1.62-.63-2.53-.53a6.45,6.45,0,0,1-2.4,0A4.55,4.55,0,0,0,40.31,1c-.63.08-1.06-.44-1.63-.58A6.35,6.35,0,0,0,36.8.08c-.44,0-.88,0-1.32,0h-.11l0,.09c.24-.13.28.22.54.05-.06.27-.58,0-.67-.06,0,.08.08.09.05.19a4.15,4.15,0,0,0-2.12.2c0-.32.47-.16.52-.46-.07,0-.08,0-.13-.07,0,.2-.24.19-.49.15,0,.21-.14.25-.23.36C32.52.07,31.9.3,31.51.4c0,.08.11.07.12.14-.43,0-.67,0-.73-.19,0,.13-.4-.17-.47,0,0,0,.25.21,0,.26-.09-.2-.41-.22-.72-.25,0,.14-.09.26-.23.29s.17-.28,0-.38c-.19.24-.6,0-.84.31.05-.16,0-.23-.19-.2,0,.07.1.42,0,.25.08-.23-.49-.2-.47,0,.54,0,.19.38.63.49,0-.06.06-.07.08-.12S28.5.89,28.57.72c.31,0,.31-.16.54.05.13-.13.24-.09.16-.31.25,0,.1.32.31.35s.2-.1.4,0a1.37,1.37,0,0,0,0-.19c.34.15.16,0,.45.23a.46.46,0,0,0,.38-.41c.13.05,0,.34.1.38.38,0,.53.15.81,0,0-.11-.18-.05-.19-.15l.27,0c0,.2-.14.18,0,.31-.71-.23-1.33.13-1.95-.16a.39.39,0,0,0-.09.3c-.32-.07-.61-.12-.19-.2-.09,0-.16-.11-.25-.15,0,.28-.4.29-.35.1,0,.22-.21-.15-.21.05s.33.17.52.29c-.25.17-.7-.08-1-.15.23.29-.49,0-.55.15s.42.16.18.26c-.24-.21-.57-.12-.77-.44-.44.4-1.13-.47-1.7.05C25.34.89,25,1,24.81,1c0,.14.4,0,.25.27A.6.6,0,0,1,24.61,1c-.14,0-.14.16-.28.16,0-.11-.32-.24-.33-.15s.1.08.2.08c0,.16-.12.19-.23.23s.05-.23,0-.25c-.13.28-.54.39-.93.55,0-.32-.41.09-.32-.28.24,0,.61.21.35,0,.2-.14.4.12.54,0s0-.08,0-.13c-.34-.05-.64.3-.95.05.08,0,.19,0,.21,0s-.08-.06-.13-.08-.08.24-.29.17c.24-.33-.69,0-.63-.5-.16.22-.12-.05-.4,0,0,.06-.06.07-.08.12s.32.24.1.32c0-.15-.43,0-.38-.22.1.06.3-.1.14-.11s-.33.35-.54.08c.07,0,.17-.09.07-.12-.35.17-.54,0-.88.05.17.1.46.11.51.29-.29-.06-.46,0-.55.15,0-.23.2-.31,0-.38,0,.18-.38,0-.43.21.14-.21-.2-.34,0-.38.17.24.06-.15.14-.11s.36.13.34,0S19.3.51,19.45.46c0,.15.22,0,.21-.05s-.2,0-.4,0,.22-.19,0-.25a2.62,2.62,0,0,1-1.22,0c.21.18-.38.22-.17.37.19-.09.57-.14.66.12a1.56,1.56,0,0,0-1.15,0,1.07,1.07,0,0,0,.82-.06c0,.34.07.41.13.77-.22,0-.47-.21-.39-.23s.19.27.27.09A.36.36,0,0,0,17.92.9c-.17.19-.28,0-.55.08.08.25-.19.11-.22.23s.16,0,.33,0c-.09.39-.27,0-.47,0a.35.35,0,0,0,0,.26c-.13,0-.22-.06-.26-.15.31-.06,0-.55-.36-.47-.12.14-.16.1-.1.31-.13,0-.14-.09-.26-.09,0,.23-.28.15-.31.35-.14,0-.22,0-.28-.08l-.09.28a.17.17,0,0,0,.25.2c.4-.36.78-.42,1.12.07a1.58,1.58,0,0,1,.2.36c.31,0,.67,0,.78-.28.19.23.32.23.48,0a.73.73,0,0,1-.46.6c.13,0,0,.21.18.2a2,2,0,0,1,.36-.16.31.31,0,0,0,0,.26c-.19,0-.17-.11-.33-.09,0,.09.1.11.12.2-.25,0-.25-.16-.46-.17,0,.12,0,.21.11.26.4-.1.65.48,1,.27-.14.26-.44.05-.62.14s0-.29-.11-.32l-.2,0a.37.37,0,0,0,.16.46c-.19.13-.24-.21-.45-.23s-.31,0-.29.23.15.3.3.4a.41.41,0,0,0,0-.32c.41,0,.08.21.31.28a1,1,0,0,0,.56-.14c0,.07,0,.17.05.19.72-.28,1.79,0,2.54-.35,0-.08-.1-.08-.2-.08s.06-.21.16-.24a2.55,2.55,0,0,1,.28.65c.34,0,0-.21.29-.23.14.16,0,.31-.05.5-.22-.2-.53,0-.65-.24.07-.06.25,0,.22-.17a.67.67,0,0,0-.44.34,1.28,1.28,0,0,0-.67-.06c-.15.12,0,.13,0,.26-.28,0-.1-.31-.38-.28a.28.28,0,0,1-.16.24c.09-.43-.51.26-.6-.12.1-.08.34,0,.36-.16-.38-.05-.54.14-.77.25,0-.07,0-.17-.05-.19-.26.25-.63-.07-1.23.09,0-.3-.18-.14-.39-.16,0-.2.13-.18.1-.37.29.12.12,0,.29-.23a1.57,1.57,0,0,1-.7-.48,2.81,2.81,0,0,0-.41,0s0,0,0,0-.26,0-.42,0a4.31,4.31,0,0,0-.93.27l.09.1c-.11.06-.37.27-.46,0l-.09,0c.06.11-.1.18,0,.25.12-.16.28.12.39.16.52,0,.86-.18,1.28,0,.08-.11-.18-.23,0-.25-.09.22.29.08.24.27-.33-.1-.07,0-.08.19-.19,0-.34-.13-.53-.17s-.13.22-.23.29c0-.19-.11.14-.27,0s.11-.15.09-.31c-.07,0-.07,0-.13-.07-.05.15-.11.28-.29.29,0-.11.11-.15,0-.19s-.58-.18-.35.16c-.12,0-.33-.09-.28.11-.19-.18-.42.21-.53-.11.36-.15.41-.34.55-.64l-.45.19.07,0a.27.27,0,0,0,0,.19c-.23,0-.17.27-.36.29.06-.18.11-.3,0-.38a.14.14,0,0,1-.09,0l-.16,0,.18,0c-.11.23-.5.5-.77.31.17,0,.34,0,.35-.16-.88,0-2-.36-2.07.4-.11-.25-.31.34-.47,0,.07-.06.25,0,.22-.17-.33,0,.08,0,0-.19h-.09a1.84,1.84,0,0,1-.22.17c0,.1-.12.21,0,.31-.2-.19-.39.12-.5,0a.47.47,0,0,0-.14.3c.05-.06,0,0,.13.07a.55.55,0,0,1,.56-.21c0,.34-.24,0-.35.16.64.37,1,0,1.61.14.07.29.37.17.3.46.09-.23.33-.37,0-.5.23,0,.47.21.32.28s.13.17-.22.17a.62.62,0,0,0,.38.22c.14-.11,0-.11,0-.31a1.06,1.06,0,0,1,.47,0c.16.09-.16.22,0,.32a1.21,1.21,0,0,1,.5-.27c.29.41.88.19,1.33.23,0-.15.15-.42.23-.23a.58.58,0,0,0-.24.36c.25-.09.3-.19.54,0,0-.33.34,0,.5-.21,0,.09-.11.32,0,.32H16c0-.23-.1-.31-.09-.51.27-.07,0,.28.25.21,0,.18-.11.15-.09.31.29,0,.62.21.95-.05,0,.24.26.14.38.22s0-.31.23-.23c0,.11.06.14,0,.25s-.16,0-.14.12c.17.45.84.18,1.2.16.09,0,.63.34.42-.09.17.08.42.14.42-.15-.15,0-.21.13-.42.09C19.21,6,19,6,19,5.78c.29.08-.09-.18.21-.1s-.21.3,0,.38.26,0,.29-.17-.07-.14-.12-.2c.13,0,.5-.13.54,0s-.32,0-.34.09.09.52.05.13c.25,0,0,.37.38.29,0-.11-.09-.17,0-.19s0,.16.18.27c.17-.08.17-.17.22-.24.22.2.82-.08.45.29.12,0,.28,0,.35-.09-.19-.07-.07-.1-.05-.26a2.55,2.55,0,0,0,.89,0c.08.15-.2.22,0,.25,0-.16.11.09.27,0s0-.23.09-.24c.28,0,.6.16.69-.07-.1,0-.36,0-.33-.09.28-.17.44.19.67,0l0,.25c.28,0,.5.26.56-.14a.31.31,0,0,1-.36-.47c.19,0,.43.07.54,0,.16.1-.14.18,0,.26.25-.09.82.29,1.14.16-.07.12-.35,0-.36.22.45.24,1-.13,1.36,0-.11.06-.28,0-.36.15.31.11.62-.07,1.09,0C27,6.15,27,6,27,5.89c.33,0,.31.18.45.29-.17,0-.23-.11-.34,0,.09,0,.05.11.12.14a1.15,1.15,0,0,0,.79-.5c.05.41-.33.36-.52.52.33.17.46-.15.74.06-.06.1-.33,0-.29.17-.55-.15-1.13-.34-1.55,0,.45-.09.16.06.38.22.21,0,.55-.22.63-.13s-.09,0-.08.12c.19.15.59-.12.53,0a.2.2,0,0,0-.21.11c.59.18.93-.08,1.27.23.08-.41,1,.12,1.11-.28a9.33,9.33,0,0,1-1.48-.13c.12-.15-.21-.13-.32-.21.37-.28.87.1,1.2.22,0-.08.09-.08.08-.18-.25,0-.28-.13-.53-.11.07-.1,0-.33.23-.29,0,.12-.09.13-.09.24l.54,0c.17-.42,0-.4,0-.82-.09,0-.1.07-.21,0,.07-.44-.32-.52-.54-.74.24-.16.22.26.59.18,0-.07-.11-.15,0-.19-.05.2.33,0,.24.28a.31.31,0,0,0-.34.09c.09,0,.05.12.12.14s.22-.08.35-.1,0,.13.05.13c0,.25-.23-.08-.22.24.26.4,0,.87.6.74.19-.31.46-.14.82-.06a.29.29,0,0,0,0-.19c.15,0,.74-.14.74.12s-.17-.09-.34,0c0,.2-.23.06-.22.23.57.11.66,0,.77-.31.63,0,1-.11,1.84-.1.08.15-.2.22,0,.25s.3.06.61,0c-.07-.1-.06-.16.08-.18.21.23.35-.2.39.16.18,0,.21-.19.3-.29.06.08,0,.23.11.32a.52.52,0,0,0,.34,0c.06.08,0,.23.1.32-.25-.07-.27.11-.36.22s-.19-.09-.34-.09H35l0,.24c.2,0,.28-.13.32.09-.28.22-.44-.46-.92-.21.36,0,0,.17.17.27-.4-.07-1.35.54-.52.59,0,.21-.14.21-.3.22.06-.16,0-.22-.18-.2s.11-.36,0-.38-.41.08-.53-.11a20.32,20.32,0,0,1-3.66,0,1,1,0,0,0,.54,0c0,.37.33.18.38.23-.19,0,.21.07,0,.18.53.08.95,0,1.26.3-.52,0,.18.4-.17.36-.21-.39-.69-.34-1.06-.15,0-.08,0-.18-.06-.19-.23.21.25.23.38.34a6,6,0,0,1-.76.19c.05.1.08.21.25.21s.19-.12.47,0a.26.26,0,0,0,0-.2c.19,0,.19.16.39.16l0-.31a1.33,1.33,0,0,0,.76.51c-.44.08-1,.58-1.32.33,0,.1-.24.37-.1.43.29-.13.29-.19.61,0,0-.08-.08-.1-.05-.2.54.05.26-.42.84-.37.11.11.15.28.31.35-.17,0,0,.29,0,.31s.26-.15.13.08c.27-.13.79,0,1-.24,0-.14-.1-.19,0-.38a4.4,4.4,0,0,0-1.4-.18.28.28,0,0,1,.16-.24q0,.21.18.21a.31.31,0,0,0,0-.32c.17,0,.33,0,.35-.09l-.27,0c0-.31.54-.4.71-.31a.3.3,0,0,0-.22.17c.09,0,.1.11.19.14.26,0,.1-.21.23-.3.12.18.07-.14.14-.11s.09.21.25.21,0-.23.1-.25c.58.54,1.08-.27,1.8.22,0-.16.23-.16.36-.22,0,.23-.19.33-.25.54-.29,0-.91-.11-1.1.16.14,0,.4.17.54,0,0,.09,0,.23.05.25a17.37,17.37,0,0,0,2.36.07c-.14,0,0,.28-.16.3a.56.56,0,0,0-.82,0,5.41,5.41,0,0,0-1.6-.26c-.05.35-.67.38-.6.64-.18,0-.52-.12-.61,0,.19,0,.17.21.32.27a1.05,1.05,0,0,1-.55.08c0,.16.11.21-.09.25a2.64,2.64,0,0,0-1.78.16c.06.37.56.19.78.32-.26.1.32,0,.26.15s-.19.38,0,.44a.31.31,0,0,0,.24-.36c.17,0,.34,0,.31.22-.37-.15-.1.32-.23.29a.32.32,0,0,0-.18-.2c0,.36-.37,0-.47-.11-.22.18-.92-.29-1.29.09a.68.68,0,0,0,.53.1c0,.26.23.4.5.49.15-.12,0-.13,0-.26.18,0,.42.42.59.11-.11,0-.38-.19-.25-.21.36.21.68.62,1,.66a.33.33,0,0,1-.08.24c.6.15,1.22.54,1.53.19.23.06.64,0,.74.13-.24,0-.28.34-.43.28a1.37,1.37,0,0,1,.5.42c.08-.18.48,0,.62-.14s-.32,0-.26-.15c.74-.37,1.94.05,2.67-.28-.13-.19-.6.13-.66-.18.27-.13.6,0,1-.17.07-.23-.08-.29-.31-.28,0,.37-.92.11-.66.58a.85.85,0,0,0-1,0c-.13,0,0-.25-.25-.21,0,.12.08.13.12.2-.34-.3-1.61-.16-2.06-.49,0,.12-.06.21-.15.24,0-.15-.21-.19-.24-.34.24.09.22-.11.35-.16s.32.25.4.1-.19-.09-.19-.2.14,0,.14-.06-.13,0-.12-.07c.3,0,.64.43.86.14-.25,0-.11-.22-.24-.28a1.28,1.28,0,0,1-.93-.2c.42.1.37-.32.64-.39-.24-.11-.14.16-.34.1,0-.37.19-.48.39-.6-.19,0-.12-.14-.19-.2.19-.09.56,0,.37-.29.2,0,.52.12.55-.08s-.56,0-.51-.29c1.11.83,1.71-.82,2.79-.21-.06-.3.18-.26.3-.35a1.94,1.94,0,0,0-.41-.6c-.14.1-.17,0-.34,0s0,.24-.22.23a.3.3,0,0,1,.09-.24c-.31-.07-.41,0-.89,0-.09-.22-.28-.23-.16-.46.45.13.65-.1,1.06.22-.15-.14.26-.64.37-.29-.1,0-.25,0-.28,0s0,.23,0,.26c.28,0,.45.23.48-.09-.1.08-.26.06-.26-.08.23,0,0-.12.22-.17a.79.79,0,0,0,.87.07,1.37,1.37,0,0,1,0-.19c-.31.11-.45-.45-.33-.15.51-.13.69.43.76.63.18,0,.08-.23.22-.23,0,.29.34.31.5.48-.11,0-.25.21-.09.25.42-.1,1.23.1,1.57-.13,0-.11-.21-.21,0-.25,0,.43.58-.07.73.13s-.28.06-.23.29c.34,0,.21.3.44.36a2,2,0,0,1,1.42.05c-.13.21-.37-.1-.49.15.1.13,0,.39.16.52.12-.07.47.06.59.17-.26,0-.35.13-.09.25-.57.07-.87-.17-1.48-.13a.27.27,0,0,0-.11-.26c-.05.11-.32,0-.35.1s.41.11.38.35c-.2,0-.79-.27-.75.06l-.34,0c.07-.43-.83-.27-.62.08-.32,0-.8-.12-.83.24a1.28,1.28,0,0,1,1.07.15c-.13,0-.14.17-.35.1.06-.16-.13-.13-.18-.2,0,.14-.3,0-.36.16s-.12.18-.16.3c.3.21.67,0,1,0,0,.25-.39,0-.42.22s.18.05.18.14-.47-.07-.54.08c.15.09.44.08.44.29a3.06,3.06,0,0,0,.64-.26c-.16.21.31.28.34.66-.3-.26-.75-.59-1.07-.16-.32-.1-.86-.16-1.08,0a.74.74,0,0,1,.37.35c-.16.25-.51-.23-.74-.07.08,0,.16,0,.12.14s-.22-.14-.31-.22-.37.28-.18.43A14.92,14.92,0,0,0,41.38,13c-.52-.16-1.12.28-1.34-.18.3.19.45-.16.6.11.29-.08.36-.35.63-.2-.23-.07-.09.16,0,.19a2,2,0,0,1,.48-.08c0,.33.63.2.63.55-.62-.4-1.36,0-1.92.22-.18-.11.14-.24,0-.32a.38.38,0,0,0-.22.17c.18.33,0,.24-.25.55.37.13.25-.28.5-.27s.41.33.52.23-.11-.07-.12-.14.18-.08.28-.1c0,.14,0,.24.11.26a.58.58,0,0,1,.59-.52c0,.11-.11.16,0,.19.24-.12.63-.09.84-.24.1.21.3,0,.52.17,0-.29.6.06.63-.2,0,.05,0,.07.13.07,0,.62-.92.13-1.13.47.38,0,.24.15,0,.2.51.35,1.13-.42,1.16,0,.17,0,.63-.31.55-.15-.32.08-.06.05-.1.31s-.41-.17-.54,0,.48.08.26.15-.28,0-.46-.17c-.11.07-.13.23-.23.3s0-.31-.18-.27c-.15.67-1,.22-1.4.51a12.28,12.28,0,0,0,2.48.21.07.07,0,0,0,0,.13h.2a.43.43,0,0,1,.1-.3c.25.16.3-.13.56-.14a5.23,5.23,0,0,0,2.23,0c.33,0,1.48.18,1.85-.22,0,.09,0,.23,0,.26.35-.08,1.37-.21,1.38-.2s-.07.23,0,.25.18-.22.3-.29c.31.42.79-.19,1.21.1-.11.31-.31.08-.27,0-.12,0-.28,0-.35.1.28,0,0,.09,0,.19a.2.2,0,0,0,.27,0c0,.49-.71,0-1,0s-.21.45-.58.39c0-.13.1-.12.15-.18-.29-.1-.66-.26-.88,0,.23.06,0,.27-.16.24s-.23-.08-.45-.23c.16.31-.41,0-.17.37-.35,0-.1-.19-.31-.28-.2.24,0-.05-.26-.09,0,.13-.22.11-.09.25-.38,0-.58-.19-.88-.08a1.45,1.45,0,0,0-.17-.26,2.27,2.27,0,0,1-1,.05c0,.47-1,.37-1.35.7,0-.07,0-.18-.05-.19s-.17.36-.35.16.28-.06.23-.3a2.78,2.78,0,0,0-1.34-.17c.23-.06.36.25.25.27s-.25-.27-.52-.3c.06.09,0,.24.11.33-.37.05-.74-.14-1-.09a.21.21,0,0,0,.12.14c.47.1,1.25-.15,1.47.19-.47-.14-1.09.14-1.68-.08,0,.35-.89-.18-1.1.22a3.66,3.66,0,0,0-2.45,0,.1.1,0,0,1,.06.13.54.54,0,0,1-.39-.16c.08,0,.16,0,.14-.11-.46,0-.6,0-.88,0,0,.1.09.17.11.27-.39-.12-.42.17-.81.05.05-.17.23-.15,0-.31,0,.18-.21.14-.3.23-.12-.11.15-.25-.1-.32a3.29,3.29,0,0,1-.87-.14c0,.25-.42.2-.24.42-.42,0-.53.15-.73-.12.08.19-.17.23,0,.44-.13,0-.14-.08-.26-.09,0-.13.19-.32,0-.38-.75.08-1.68.25-2.16-.12a.35.35,0,0,0,.05.26l-.34,0c0-.16,0-.22-.18-.2.14.27-.16.1-.17.36.29.19.57-.05.95-.11.13.38,1,.29,1.15.1-.31.38-1.3.31-1.58.18a4.34,4.34,0,0,1-1.31.33c.06-.16-.13-.13-.19-.2s.13-.18.1-.37c.26-.07.12.18.33.15-.07-.3.29-.13.24-.42-.32,0-.79.27-.87-.07l-.34,0c.06.09,0,.24.1.32-.38,0,.1-.32-.3-.34-.14.1-.17.25-.28,0-.22.2.12.35,0,.44,0-.1-.45-.14-.47,0s0,.24.11.26c-.08-.32.4.06.61.05s.11-.25.23-.29c0,.3.37.06.47,0-.09.4-.47.29-.64.32,0,.2.23.06.31.28-.27-.07-.54-.27-.67,0,0-.17-.48,0-.32-.28.2-.07.33.2.41,0-.25-.3-.44,0-.69.07-.06-.21.22,0,.16-.24-.07,0-.08-.06-.13-.07-.36-.05-.42.09-.7.25-.19-.05.11-.08.09-.18a.28.28,0,0,1-.2-.08c-.1.05-.22.08-.23.24s.26.07.18.26a.57.57,0,0,0-.54,0c-.14-.07-.09-.28-.31-.28s-.15.16-.29.17a.87.87,0,0,0-.81-.07c-.06-.13-.21-.18-.31-.28.34,0,.47.12.62-.07a.47.47,0,0,1-.19-.14c.17,0,.2.11.32.15,0-.39.42,0,.49-.15s-.08-.13,0-.26c.37.2,1,.32,1.22,0-.11.36.7.14.42-.15.35,0,.1.19.31.27,0-.11.16-.14.16-.3-.59-.37-1-.14-1.56.12-.42-.2-.6-.08-.87-.19v.18c0-.17-.74-.11-.52-.29.13.16.57.08.62-.08-.43-.07-.66.06-1.08,0,.08.21,0,.18-.17.3.06-.37-.41-.28-.33-.09a9.44,9.44,0,0,1-1.95-.1.55.55,0,0,1-.75.06.27.27,0,0,0,.05.19.3.3,0,0,0-.42.16c-.25-.19.28-.21.09-.31s-.41,0-.49.21c-.47,0-1.49-.26-1.89,0-.4-.23-2.67-.39-1.83,0-.48,0-1-.11-1.35-.11.33.05-.13,0,0,.25-.19-.07-.23-.1-.34,0,0-.3-.47.06-.6-.18,0,0,.09,0,0-.06a2.18,2.18,0,0,1-.17.36c.16.18.22.06.46.16-.15.21,0,.21.1.39a3.25,3.25,0,0,0-1.49,0c0-.23.33-.05.36-.22l-.34,0a.3.3,0,0,1,.16-.24c0,.23.21,0,.25.21.11,0,.27,0,.23-.23-.12,0-.35,0-.26-.15.17.07.3.12.41,0-.35-.24-1.24,0-1.74-.27-.22.2-1.47.22-1.41-.12-.15.14-.1.1-.23.3.22.08.75-.08.73.19-.31-.07-.75-.18-.49.15-.19,0-.14-.21-.32-.22a2.11,2.11,0,0,1,0,.25c.15,0,.66,0,.39.16-.11-.19-.43,0-.54,0-.11-.14-.85-.24-1,.11,0,.07.07.1.12.13.23,0,.56-.15.61.05a.22.22,0,0,0,0-.31c.33,0,0,.19.17.27.11-.12.24-.25.35,0a2.42,2.42,0,0,1-1.77,0c-.29.24-1.11-.25-1.25.4-.18-.07-.53-.06-.63.14-.21,0-.11-.18-.32-.15-.4.1-.33.35-.54.71,0-.35-.52-.33-.73-.19,0,.08.12.07.12.14-.25.19-.32-.35-.53-.05s.37.12.11.2c-.22-.16-.33.18-.46-.1-.12,0-.13.18-.22.23a.68.68,0,0,0-.48-.18.94.94,0,0,1,.51.71c0,.12.35.21.54.27.35.09.78,0,1,.22a4.84,4.84,0,0,0,3.31.74,8.82,8.82,0,0,1,1.54.06,1.37,1.37,0,0,1,.58.26.84.84,0,0,1,.26.38s-.16.23-.25.23c-.66,0-1.32,0-2,0-.3,0-.72-.11-.86.05-.7.84-1.15.25-1.63-.26-.22-.25-.39-.09-.52.08-.31.39-.56.56-1.07.23-.33-.22-.86,0-1.29-.07-.72-.14-1.06.19-1.27.91a4.14,4.14,0,0,1-.94,1.57A.92.92,0,0,0,3,24a.83.83,0,0,1,.64.91c.09.07.2.12.29.19.46.34.65.73.38,1.15a2,2,0,0,0-.37,1.54,1.08,1.08,0,0,0,.27.6A8.31,8.31,0,0,0,5.45,29l.08,0A.61.61,0,0,1,6,29a.52.52,0,0,1,.13.23A20,20,0,0,0,9,30.3a1,1,0,0,1,.76.39A2.41,2.41,0,0,0,12,31.8a1.88,1.88,0,0,0,1.65.41c.72,0,.84.4.83,1.06a.44.44,0,0,0,.39.41c-.14.54-.71,1.06-.07,1.64,0,0,0,.15-.08.16s-.32.13-.4.06c-.25-.21-.48-.44-.72-.67l-.13.16c-.05-.05-.15-.1-.16-.15s.07-.12.12-.18l-.09-.09c-.22-.21-.22-.2-.86-.07-.21,0-.5.15-.63,0a3.37,3.37,0,0,0-2.29-.4,1.19,1.19,0,0,1-1.25-1,1.26,1.26,0,0,0-.38.15c-.48.41-.49.47-.18.88a3.37,3.37,0,0,1,.3.36.88.88,0,0,1,.1.36s-.11.12-.17.13c-.44,0-.88,0-1.32,0s-.6.2-.31,1c.07.19.14.28,0,.36a.34.34,0,0,1-.21,0,1.19,1.19,0,0,1-.39-.16l-.52-.28a1.55,1.55,0,0,1-.56.38,1.12,1.12,0,0,1-.86-.07h0a.42.42,0,0,1-.18.25c-.17.14-.36.25-.53.39a1.53,1.53,0,0,1-2.15.06c-.07,0-.26.07-.38.14s0,.13,0,.18c.29.5.36,1.19,1.2,1.13.44,0,.87.43,1.42.44.78,0,.8.16.48,1-.08.2-.2.53-.12.63.36.49.67,1.09,1.3,1.2a1,1,0,0,0,.62-.12.42.42,0,0,0,.1-.61c-.72-.76.11-1.28.23-1.9,0-.14.19-.11.34,0a1.06,1.06,0,0,1,.42,1,1.37,1.37,0,0,0,.39,1.3c.23.21.6.37.75.24s.2-.57.2-.88-.29-.53-.48-.76a1.72,1.72,0,0,1-.32-.54c0-.12.56-.3.8-.12a2.34,2.34,0,0,0,1.64.46,1.76,1.76,0,0,1,.65,0c.11,0,.28.23.27.33-.08.61.39,1,.47,1.53,0,.12-.11.27-.16.4l-.2-.11L10.21,42c-.16.81-.73.8-1.32.83A.82.82,0,0,0,8.41,44c.43.54.92,1,1.37,1.55A1.5,1.5,0,0,1,10,46a.39.39,0,0,1-.18.13.78.78,0,0,1-1-.48,1.31,1.31,0,0,0-1.59-.89.73.73,0,0,0-.63.5c-.24.5-.93.61-1.06,1.28,0,.09-.39.13-.6.13s-.52.18-.53.56,0,.48,0,.72-.13.6-.5.62a5,5,0,0,1-3-.39c-.07,0-.32.09-.34.18A7.16,7.16,0,0,1,0,49.88c-.2.38.57.8,0,1.25A6.47,6.47,0,0,0,.74,52a1.39,1.39,0,0,0,.77.37,2.05,2.05,0,0,0,1.67-.31.81.81,0,0,1,1,0,.9.9,0,0,0,1.16.07,2.8,2.8,0,0,1,2.52.06,10,10,0,0,0,1,.3c.1,0,.16.23.21.37s0,.34-.15.39a3.73,3.73,0,0,0-1.4.55.93.93,0,0,1-.82-.06c-.29-.14-.19-.51-.22-.8-.12,0-.3.08-.31.15-.08.39-.09.78-.14,1.17s-.32.65-.75.36-1.1-.41-1.46-1a.75.75,0,0,0-.8-.26.6.6,0,0,0-.36.19.47.47,0,0,0,.06.63c.28.23.62.38.9.62.64.56.63.62.24,1.52-.19.44-.43.45-.84.18s-.26-.71-.22-1.11c-.57-.05-.83-.6-1.24-.91-.15-.11-.25-.09-.31.13a.59.59,0,0,0,0,.23,1.89,1.89,0,0,0,.05.23c.07.19.25.46.19.56s-.37.13-.58,0c-.49-.23-.5-.23-.7,0s-.35.29-.11.56a4.18,4.18,0,0,0,.9.63c.27.2.38.65.58,1s.7.55,1,.32c.71-.64,1.31-.18,2,.07.2.08.22.22.08.33a.54.54,0,0,1-.18.11c-.07,0-.15,0-.21,0s-.24.28-.14.29c.4.07.65.62,1.12.41a3.13,3.13,0,0,1,2.13-.27,1.28,1.28,0,0,0,.4-.14,1.42,1.42,0,0,0-.14-.36A5.79,5.79,0,0,0,7.17,58c-.13-.14-.09-.26.11-.33a.25.25,0,0,1,.21,0,1.91,1.91,0,0,1,.66.56c.26.46.39,1,.62,1.47a1.34,1.34,0,0,0,.81.74.41.41,0,0,0,.22,0c.21-.07.22-.17.08-.34a6,6,0,0,1-.54-.75s.12-.25.21-.27a1.54,1.54,0,0,1,1.21.4c.37.24.7-.09.64-.6a1.62,1.62,0,0,0-.17-.67c-.19-.34-.16-.39.18-.64a3,3,0,0,1,2.29-.39c.22,0,.31.28.33.54s.16.22.24.33c.07-.13.2-.26.2-.4,0-.44.4-.63.58-.47.79.68,1.68.45,2.53.43A3.91,3.91,0,0,1,20,58.3c.56.4.54.06.64-.35a.36.36,0,0,1,.52-.25,7.66,7.66,0,0,0,2.35,1.06c.22,0,.45.41.55.69a.78.78,0,0,1-.18.63c-.21.29,0,.43.13.58s.26.38.53.15.46-.12.58-.28a2.76,2.76,0,0,1,2.74-1c.59,0,1.17,0,1.76,0s1,.68,1.65.49c.07,0,.24.16.29.28s0,.38,0,.44A1.32,1.32,0,0,1,31,61c-.49.07-1.11-.22-1.44.26s-.11.91-.18,1.37a1.05,1.05,0,0,1-.23.41c-.1.15-.06.3.14.31A16.68,16.68,0,0,0,31,63.31c.07,0,.12-.2.18-.33a3.27,3.27,0,0,0,.73.4c.54.16,1.18-.16,1.64.41,0,0,.22-.12.34-.18s.36-.8.81-.4.55-.28.7-.12c.38.39.59.08.9-.09s.53.06.6.42a1.22,1.22,0,0,1,1.33,1,.83.83,0,0,1,.35.18,1.62,1.62,0,0,0,2.49.4c.27-.22.55,0,.75.24a1.41,1.41,0,0,0,1.33.63c.66,0,1.32,0,2,0a1.61,1.61,0,0,1,1.22.38c.25.24.54,0,.76-.21s.26-.09.31.13a.89.89,0,0,1-.34.81c-.17.17-.31.29-.52.06a.48.48,0,0,0-.37-.2c-.43.06-.79.47-1.32,0-.27-.23-.85,0-1.29,0s-.62.32-.52.8a1.92,1.92,0,0,0,.27.62c.11.16.25.41.48.27s.1-.28.13-.42a2,2,0,0,0,0-.24c0-.15.1-.29.14-.43.09.07.26.13.26.19a1.22,1.22,0,0,0,.43.8c.19.21.35.17.52,0s.33-.32.5-.48.27-.1.3.12a1.44,1.44,0,0,0,.39.82c.26.31.41.3.52-.15s.33-.34.56-.14a.45.45,0,0,0,.6,0c.24-.19.42-.39.7,0s.59.7,1.11.63.65.32.89.6a1.26,1.26,0,0,0,1,.38c.4.56.57.59.83.06.14-.3.22-.56.57-.58a.73.73,0,0,1,.82.56c.22.58.31.11.43-.14s.58-.47.66-.26a1.08,1.08,0,0,0,1.35.78c.78-.08,1.61.26,2.29-.44a12.53,12.53,0,0,1,3.46.16c.31.1.46.15.72-.06a1.73,1.73,0,0,1,1-.48,1.85,1.85,0,0,1,1,.49,1.09,1.09,0,0,0,1.58,0c.06,0,.12-.13.18-.13l2.17-.1c.62-.64,1.4-.26,2.1-.39a1,1,0,0,1,.79.3c.36.29.32-.13.37-.29s.15-.43.42-.44.66.58,1.13.06c.29-.32.63.19,1,.32.11,0,.38,0,.39-.07.12-.62,1-1.08.37-1.86-.14-.17-.14-.3.07-.36a.51.51,0,0,1,.4.06.72.72,0,0,1,.19.39c0,.15,0,.32,0,.47.1.49.24.54.79.29.16-.07.29-.34.5,0,.34.5.51.5.74.09.11-.2.14-.45.25-.65s.38-.19.58-.13c.62.18.64.17.85-.07a.69.69,0,0,0,0-1c-.16-.17-.17-.28,0-.35s.37-.07.4,0c.28.53.52,1.08.78,1.62,0,.06.1.09.15.14a1.3,1.3,0,0,0,.18-.4,9.08,9.08,0,0,0,0-.91c.39,0,.56.41.83.63s.38.22.46-.32a3.71,3.71,0,0,1,0-.47c0-.21.18-.28.29-.18.51.53.92.29,1.26-.22s.57-.13.89,0,.8-.68,1.32-.09c.1.1.61-.58.58-.86s-.36-.43-.65-.46h-.18c-.06-.33-.22-.51-.56-.43s-.45.37-.91.19a6.48,6.48,0,0,0-3.16-.13c-.3.53-.75-.12-1.05.15s-.77.17-1.14-.11c-.08-.06-.33.26-.52.3s-.56,0-.57-.43c1-.35.86-1.25.89-2.09a.24.24,0,0,1,.14-.17s.13,0,.18.07a1.69,1.69,0,0,1,.57.94c.1.35.3.09.39-.11s.07-.31.16-.41a.36.36,0,0,1,.56,0c.24.36.33,1.28.74.07.13-.39.64-.26,1-.11s.45.38.72,0c.42-.52.89-.85,1.47-.24.29-.21.61-.59,1-.25s.61-.1.9-.13a3,3,0,0,1,1.27.12c.27.09.41.21.73.06a1.45,1.45,0,0,1,2,.37c.13.17.36.39.51.37.56-.09.93.4,1.41.47a7.7,7.7,0,0,0,1.27,0c0-.22,0-.44.07-.65s.09-.12.14-.18c.29.41,1,.23,1.13.83a1.86,1.86,0,0,1,1.2.43c.09.06.27-.05.41-.08,0-.12-.07-.25-.1-.37-.21-.71-.11-.92.47-.91a5.62,5.62,0,0,1,1.3.11c.33.09.6.52,1,.21a1.33,1.33,0,0,0,.61-.93c0-.27.12-.26.41.21.07.1.2.26.26.24a4.73,4.73,0,0,0,.79-.37c.33-.18.06-.38,0-.55s0-.27.16-.31c.46-.1.77.62,1.2.34a1.8,1.8,0,0,1,1.21-.41c.4,0,.68-.24,1-.37a1,1,0,0,1,.83,0c.51.49,1.12.26,1.66.43s.69.37,1.11,0,.59.44,1,.21.64-.34,1,0,.57-.28,1-.25c.87.07,1.75,0,2.62,0,.24,0,.59-.16.63.29,0,.07-.38.15-.55.28s-.1.23-.14.36a2.83,2.83,0,0,1,.77.21c.26.16.5.38.77.15s.12-.55,0-.83c0-.1-.09-.33,0-.35a.53.53,0,0,1,.4-.1c.13,0,.23.18.36.24a1.4,1.4,0,0,0,.59.21c.35,0,.82,0,.36-.62a.2.2,0,0,1,.17-.31c1,0,2-.06,3.06,0,.26,0,.51.26.78.36a1,1,0,0,0,.62.08,3.92,3.92,0,0,1,1.87-.43,2.06,2.06,0,0,0,1.63-.45c.15-.12.43,0,.65,0s.73,0,1.09,0a1.41,1.41,0,0,0,1.21-.41c.29.31.56.37.89,0,.14-.15.37,0,.58.07.58.29,1.07.84,1.77.75a1.65,1.65,0,0,0,.39-.17,3.32,3.32,0,0,0-.25-.27c-.06,0-.15,0-.22,0s-.25-.19-.14-.3.45-.57.66-.56c.84,0,1.75-.4,2.53.32.1.09.4-.06.6-.13a2.79,2.79,0,0,1,2.28,0c.71.24.73.22.79-.76l-.34-.16c-.5-.29-.66-1-1.27-1.16-.57.54-1-.5-1.58-.15,0,0-.2-.18-.28-.29a.27.27,0,0,1,0-.23,1.68,1.68,0,0,1,.24-.29,1.62,1.62,0,0,0,1.43.34c.2,0,.52,0,.34-.33-.54-1-.11-2-.24-3l1.39-.44c.7.61,1.31-.16,2-.2a3.36,3.36,0,0,0,1-.35c.69-.31,1.24-.61,2-.11a3.59,3.59,0,0,0,1.72.15c1.2,0,1.37-.31.83-1.55-.24-.55-.19-.79.28-.84s.81-.38,1.2-.48a8.5,8.5,0,0,1,1.75-.06,7.89,7.89,0,0,0,.85-.1c.32,0,0-1,.61-.57a2,2,0,0,0,1.06.2,6.63,6.63,0,0,1,1.09,0c.26,0,.63.39.74.3.39-.32.9-.16,1.22-.38s1-.29,1.41-.52c.26-.13.43-.26.75-.08a4,4,0,0,0,2.16.14c.18,0,.34-.28.53-.38.38-.23.13-1,.75-1a2.71,2.71,0,0,0,1-.36c.88-.3,1.77-.55,2.62-.93a2.22,2.22,0,0,1,.63-.14,7.38,7.38,0,0,0,2.76-.43,3.7,3.7,0,0,1,2,0,3.65,3.65,0,0,0,2.43-.78.71.71,0,0,0,.28-.36c.08-.35-.2-.26-.37-.34s-.36-.26-.55-.36-.37-.12-.41-.07c-.44.68-.88-.08-1.31,0-.1,0-.19.2-.26.32s-.11.39-.18.4c-.27,0-.22-.25-.3-.43s-.16-.3-.45.18c-.07.11-.19.29-.24.27a2.34,2.34,0,0,1-.78-.37,1.28,1.28,0,0,0-1.8-.12.81.81,0,0,1-.82.07c-.74-.58-1.56-.36-2.34-.39a2.81,2.81,0,0,1-2.13-1,1.34,1.34,0,0,1-.19-.4c-.08-.19.16-.56.33-.51a5.7,5.7,0,0,1,1.75.68c.42.33.59-.33.88-.06s.44.42.68.6c0,0,.24-.14.24-.21,0-.45.18-1-.5-1.08-.28,0-.2-.25-.12-.49s.13-.16.18-.16l-.07,0c-.48-.25-1-1-1.44-.63-.65.57-.85-.36-1.31-.24-.14,0-.14-.16,0-.34a1.81,1.81,0,0,1,.92-.6c.16-.06.12-.18,0-.35-.49-.64-1.27-.7-1.85-1.14l0,0s0,0,0-.13.1-.14.16-.15c.37,0,.75-.1,1,.23s.37,0,.52-.1c.3-.24.53-.16.74.13a2.15,2.15,0,0,0,1.88,1.14c.24,0,.66.12.66-.26,0-.22-.36-.5-.61-.64s-.43,0-.64,0-.18-.18-.26-.27.1-.16.16-.16a1,1,0,0,0,.88-.6,1.24,1.24,0,0,0,.1-.2c-.13-.06-.25-.17-.38-.17a.59.59,0,0,0-.38.16c-.32.35-.49.05-.68-.15s-.17-.44.07-.5.7,0,.83-.17c.64-.9,1.52-.82,2.39-.82h1.73c0-.18.08-.37.3-.31.07,0,.11.18.15.3a3.08,3.08,0,0,1,2.17-.43s0,0,0,0l.06,0a.56.56,0,0,1,.13-.3c.11-.08.22,0,.14.16s-.17.11-.27.14a.14.14,0,0,0,0,.06h0a.38.38,0,0,1-.35.43c-.37,0-.74,0-1,.32s-.53.14-.79.2c0,.4.25.48.56.49.06,0,.17.12.16.14s-.11.29-.18.3c-.51,0-1,0-1.53.05-.08,0-.15.18-.22.28s.11.14.17.14c.42,0,.8.76,1.27.1.38.5.92.33,1.41.42s.53-.64.93-.29.6-.15.84-.34.47-.23.55.21c0,.1.23.26.25.24a1.69,1.69,0,0,1,1-.35c.26,0,.65-.37.74-.29.4.42.61,0,.92-.11s.6.36.74.3c.47-.2.88-.55,1.32,0,.41-.34.92-.31,1.37-.49.24-.09.4-.42.6-.64a3.52,3.52,0,0,0-.6-.2,4.85,4.85,0,0,0-.66,0,.34.34,0,0,1-.19-.07,1.3,1.3,0,0,1-.18-.15c.06,0,.12-.15.17-.14.69,0,1.2-.44,1.78-.72a.17.17,0,0,0,.05-.15.29.29,0,0,0-.16-.15c-.28-.06-.65,0-.83-.15-.38-.35-.61-.13-.91.07-.09.07-.28,0-.41-.07s-.09-.18,0-.36a1.46,1.46,0,0,0,.17-.65c0-.09-.19-.23-.3-.26s-.34,0-.37.11c-.11.35-.15.74-.27,1.1,0,.09-.24.16-.36.15s-.44-.11-.2-.41a1.2,1.2,0,0,0,.26-.88c0-.36-.26-.63-.55-.56a.43.43,0,0,0-.35.49,3.84,3.84,0,0,1,0,.48c0,.45.22,1.06-.28,1.28a3.18,3.18,0,0,1-1.27,0c-.05,0-.1-.1-.15-.15s.1-.13.17-.15.27,0,.41-.07a.81.81,0,0,0,.65-1.14,2.25,2.25,0,0,0-.59-.68s-.24.11-.35.2-.27.1-.3-.13a3.72,3.72,0,0,1-.06-.94,2.79,2.79,0,0,0-.38-1.56c-.05-.1.06-.28.1-.42l.36.16.39.15a1.82,1.82,0,0,1,1.56-.89,9.31,9.31,0,0,1,1.75,0c.83.06,1.46-.61,2.25-.68,0,0,.13-.27.11-.4s-.16-.35-.23-.35c-.5,0-1-.2-1.48.2a1.24,1.24,0,0,1-1.25.19c-.62-.18-1.13-.47-1.8,0-.45.31-1.19-.13-1.69.26s-1-.36-1.31.24h-1.31c-.2,0-.44,0-.44-.27,0-.12.16-.25.25-.37l.16-.17c.1-.12.18-.24.28-.37-.11-.07-.22-.21-.34-.21l-3.28-.07c-.06,0-.12-.09-.17-.14s.15-.24.24-.24a6.48,6.48,0,0,1,1.32,0,3.16,3.16,0,0,0,2.39-.87,1.76,1.76,0,0,1,1.35-.61c.4,0,.68-.28,1-.36s.7.31.94.2a2.56,2.56,0,0,1,1-.32.54.54,0,0,1,.38-.46c.17-.05.45,0,.32-.34,0-.09-.25-.1-.38-.16s-.17-.12-.16-.13.12-.29.18-.29c.88,0,1.76,0,2.64,0a2.3,2.3,0,0,0,1.67-.38.63.63,0,0,1,.62-.06c.71.44,1.32-.12,2-.16.06,0,.11-.09.16-.14s-.11-.15-.16-.15a3.29,3.29,0,0,1-2-.81c-.48-.36-1-.14-1.47-.26-.07,0-.17-.12-.16-.14a1.14,1.14,0,0,1,.16-.31c.6.28,1.17-.75,1.77-.05a18.34,18.34,0,0,1,2.23-.67c.06,0,.1-.3.07-.43s-.15-.23-.3-.14-.28.4-.52.11-.67-.21-1-.3-.54-.58-.91-.11c0,0-.33-.18-.48-.3s-.33-.3-.49-.45c-.29.37-.58.34-.87,0-.58.76-1.6.06-2.21.79-.08.09-.41,0-.59-.1a3.59,3.59,0,0,0-2.54-.13.59.59,0,0,0-.19.13c-.6.41-1.1.19-1.55-.32-.3-.35-.63-.67-.92-1s-.92-.55-1.17-.27c-.72.82-1.19-.08-1.77-.16-.2,0-.23-.22-.08-.3.31-.18.63-.33.94-.5.47.48.86.39,1.31-.09s.87-.56,1.23-.92a1.83,1.83,0,0,1,1.37-.56c1.06,0,2.16.29,3.17-.32.44.58.9,0,1.32.05s.48.22.72-.08a1.18,1.18,0,0,1,1.13-.58,1.41,1.41,0,0,0,.87,0,.92.92,0,0,1,1.45.28c.08.11.29.23.36.19,1-.5,1.9.18,2.88.09a3.79,3.79,0,0,0,2.57-1c.42-.45.68-.36,1.07-.09a.39.39,0,0,0,.39-.09c.26-.27.43-.15.73,0,.72.33,1.06.18,1.49-.46a3.66,3.66,0,0,1,1-1.06c.59-.38,1.17-.8,1.75-1.2-.3-.71-1-.7-1.5-1.05m-181-4.42c.4.19.49-.33.75-.07-.27,0-.58.42-.75.07m.66-.51c.08,0,.16,0,.14-.12.18,0,.21.11.18.27-.12,0-.28-.06-.32-.15m.13.7c0-.19.24-.11.36-.16,0,.2-.16.19-.36.16m.58-.33c-.31,0-.2-.57.11-.49-.34.16,0,.28-.11.49m.84.39c.11.06.36,0,.32.21-.19,0-.37,0-.32-.21m.78.38c0-.08-.07-.05-.14,0a.32.32,0,0,1,.11-.44c0,.12.06.4,0,.45m-.32-.91c.44,0,.4,0,.59.17,0,0-.7-.14-.59-.17m.81.7c.07-.18-.08-.17,0-.32.19,0,.16.19.25.27a.35.35,0,0,0-.21.05M15,4.56a.59.59,0,0,1-.39-.15c.05,0,.41,0,.39.15m-.36,1c-.06-.22-.35.2-.41,0,.08,0,.09-.09.09-.18.21.17.42,0,.29-.23.23-.06.12.44,0,.44M14.56,5c.22-.19.1-.31.44-.34,0,.09.08.13,0,.26-.21.11-.33-.1-.48.08M16,4.58s0-.12.08-.12c-.15.39-.32.07-.62.14,0-.16.14-.21.23-.3.07.28.28,0,.41,0,0,.15-.33.18-.1.31m.14-1.5c.17,0,.26.11.25.27-.21,0-.3-.08-.25-.27m.36,1.29c0-.2-.23-.21-.24-.4.34.25.29-.25.51-.33a2.52,2.52,0,0,1-.27.73m.28-.1c-.05-.17.41-.28.34,0-.19-.06-.18.08-.34,0m2,.42c-.17-.17-.39.08-.53-.11.07,0,.6-.13.53.11m-.55,1.53c-.4,0-.14-.36-.23-.46.17,0,.14.12.33.09,0,.31-.2,0-.28.16s.19.09.18.21m.88.07c-.26,0-.09-.24-.32-.22,0,.16-.12.19-.23.24,0-.17-.38,0-.25-.21.19.09.25.05.35-.1a.31.31,0,0,1-.19-.2c.29.1.3.29.6.17a.41.41,0,0,1,0,.32m.47-.72c0-.17.3-.4.42-.21-.15.06-.24.19-.42.21M20.58,5c-.12.1-.26,0-.25-.21.13,0,.29,0,.25.21m-.5.34c0-.24.13-.27.36-.22l0,.25-.33,0m.43.48c-.1-.23-.15.14-.28.1a.59.59,0,0,1,.3-.35s.15.25,0,.25M32.36,9.49c.17.17.41-.06.53.11a.48.48,0,0,1-.54,0c.08,0,0-.06,0-.12m-.78-1.08c0-.08.35.11.41-.09A1.46,1.46,0,0,1,31.82,8c.72,0,0,.94-.24.42m.91-.3c.08,0,0-.06,0-.12.17,0,.27,0,.32.15s-.33.12-.33,0m.39.16c0-.2.09-.22.1-.37-.15,0-.38.11-.4-.1s.32,0,.42-.09c-.12.27.24.16.16.4-.24-.12,0,.27-.28.16m.56-.2c-.33.06,0-.37-.31-.35,0,0-.06.07-.07,0,.2-.21.23.07.41,0a.4.4,0,0,0,0,.38M34.12,8c.24.07.42-.15.47.1-.17,0-.41.06-.47-.1m.42-.1a1.12,1.12,0,0,0-.23-.52,1.94,1.94,0,0,0,.71.44.55.55,0,0,0-.48.08m-1.72,3.2c.38,0,.84.14.85.33-.19-.19-.72-.1-.85-.33m1.38,1.19c-.35.36-.81-.19,0,0m1.29.61c.41,0,0,.51-.09.31.1-.07.17-.23.09-.31m-.66-3c.21,0,.4.12.44.29-.19-.06-.4-.11-.44-.29m.78-.37a1.47,1.47,0,0,1,.45.23c-.15.09-.55,0-.45-.23m1.2-.59c0,.13.32,0,.12.19,0,0,.13,0,.13.08-.21,0-.42-.21-.25-.27m4.89,2.74-.2,0c.06-.16.27-.16.37-.28,0,.19-.2.1-.17.3m-.65,1.9c0-.12.05-.27.23-.23,0,.11-.12.15,0,.18s.08,0,.06.07l-.27,0M42.26,13c.12,0,.56-.29.42-.16s-.26.09-.29.23c.33-.09.35.17.67.06-.06.35-.68,0-.8-.13m.83-1.7-.33,0c.08-.19-.16-.14-.18-.26.13,0,.14-.17.35-.1s.06.16,0,.25c.11,0,.24,0,.19.14m.57,1.88c-.24-.11-.27.38-.48.08.15,0,.22,0,.22-.17s.49,0,.26.09m-.32-.91c.21.07.26,0,.35-.1s.11.07.12.14c-.15,0-.44.2-.47,0m1,1.34c-.19-.06-.18.08-.34,0v-.13s0-.07.07-.05c0,.21.34-.16.26.14M6.94,17.76s.08,0,.08-.06-.14,0-.13-.07l.33,0c.06.16-.25.26-.28.1m1,1.4s-.12-.08-.17-.13l.14-.18.18.14c0,.06-.09.16-.15.17m.32-1.22a.35.35,0,0,0-.21,0c0-.23-.15-.47.07-.75.12.07.34.05.4.16-.3.05-.35,0-.49.15.26,0,0,.38.23.4m.8.19a.34.34,0,0,1,.53.11c-.22-.12-.43,0-.53-.11m1.71-.93c0-.15.34-.21.35-.1s-.14.17-.35.1M7.73,26.66c-.06-.1-.1-.21-.15-.31H7.51l0-.06c-.16,0-.32,0-.29-.29,0,0,.14,0,.15,0a2.12,2.12,0,0,1,.14.31h.08a.14.14,0,0,0,0,.06c.16,0,.33,0,.3.28,0,0-.14.05-.15,0m1.52-.52-.16-.21.14-.08.15.13-.13.16m.36-1.54a1.33,1.33,0,0,1-.16-.12l.29-.09v.14c-.05,0-.1.08-.14.07m4.48,3.72c-.22,0-.32-.1-.31-.27.2.06.2-.1.4,0a.37.37,0,0,1-.09.3m-.17-4.43c-.29-.16-.18-.39-.11-.6a.8.8,0,0,1,.13-.19,3.42,3.42,0,0,1,.26.59s-.18.13-.28.2M10.3,37l-.1-.08a.11.11,0,0,1-.06-.06c.08-.23.19-.23.3,0,0,0-.09.11-.14.16M7.39,48.61c0,.26-.24.49-.42.36a3.7,3.7,0,0,0-1.83-.47c-.28,0-.2-.29-.07-.48a.8.8,0,0,0,.13-.19c.08-.21.15-.43.22-.65l.62.51c.12.51.64.29,1,.41a.41.41,0,0,1,.31.51m.27-3-.14-.14.19-.15.07.14-.12.15M9,48.9c-.19.11-.47.15-.56-.1a3.24,3.24,0,0,1-.1-.89c0-.06.09-.13.13-.19a.56.56,0,0,1,.18.07,1,1,0,0,1,.5.72A.53.53,0,0,1,9,48.9m5.93-15.27c0-.17,0-.33.26-.29,0,0,0,.14,0,.15a1.38,1.38,0,0,1-.27.14.13.13,0,0,0,0,.06l0,0,0,0m-.19,1.18c.07-.18.17-.22.27-.1s0,.1,0,.15-.1.08-.13.07a.32.32,0,0,1-.15-.12M9.65,49a.44.44,0,0,1,.08-.2.2.2,0,0,1,.14-.08c.27.26.61.46.63.91a.84.84,0,0,1-.08.21.23.23,0,0,1-.15.07c-.25-.27-.64-.42-.62-.91m.78,8-.11.19h0a1.38,1.38,0,0,1-.23-.36c-.07-.23.15-.52.27-.4a.56.56,0,0,1,.14.38.34.34,0,0,1-.07.19M15,47.56c-.33,0-.74.17-.94-.33a2,2,0,0,0-.15-.43,1.43,1.43,0,0,0-2.09-.42,3.25,3.25,0,0,0-.48.5c-.14.18-.24.18-.32,0a11.64,11.64,0,0,1-.49-1.28.88.88,0,0,1,.15-.65c.29-.35,1.34-.3,1.53.15s.3.65.74.63c.66,0,1.32,0,2,0a.44.44,0,0,1,.42.43,5.45,5.45,0,0,1,0,.7c0,.35,0,.7-.36.74m7.08-31.49c0,.15-.33.32-.35.09.13,0,.18-.12.35-.09m-.41,0c0,.12-.09.14-.09.25-.19-.24-.28.09-.4-.16a3.56,3.56,0,0,1,.49-.09m-.56.15c-.09.08-.41.07-.4-.1.12.05.41,0,.4.1m-.21,6.6c-.06.1-.56.06-.6-.05.23-.09.29.06.6.05m-.73-6.68c-.23.2-.39.1-.64.32.27-.41-.35.2-.31-.28a2.65,2.65,0,0,1,.95,0m-3.75.25c-.3,0-.17.14-.36.22.06-.1-.2-.43-.1-.32s.38,0,.49-.15c-.08.4.54,0,.51.3-.19,0-.23,0-.15.11-.38,0-.35.07-.39-.16M17,34.94a.18.18,0,0,0-.07.05l-.06,0c-.06,0-.15-.11-.14-.13.08-.18.18-.21.26-.09a.15.15,0,0,1,0,.07s0,.06,0,.08m-.09-8.07s0,0-.07-.05l-.07-.07.19-.14a.87.87,0,0,1,.08.14s-.09.12-.13.12m1,20.56s-.09.07-.12.06a.31.31,0,0,1-.13-.12c.07-.17.17-.2.24-.08s0,.09,0,.14M18,22.55a.2.2,0,0,1,.07.2c-.13.66-.54,1.08-1,1.09-.07,0-.2-.11-.19-.13a2.74,2.74,0,0,1,1-1.25l.05-.05h0s-.07,0-.08-.07a.46.46,0,0,0,.34,0,.27.27,0,0,0,0,.19.51.51,0,0,1-.3-.08h0s0,.09.11.14m.67-.72c0-.17.11-.2.28-.17a.31.31,0,0,0,.05.2c-.16,0-.19-.14-.33,0m.23-5.4c0-.05,0-.13-.06-.13s0,.23-.09.24c-.09-.17-.5.16-.53-.11,0,.11-.11.16-.14.05a.15.15,0,0,0,.15-.17c.16,0,.19.12.4.09.05-.18.13,0,.22-.23,0,.17.27-.14.27.09-.13,0-.07.2-.22.17m.28,6.45c.32.43,1.24,0,1.74.21a8.09,8.09,0,0,1-1.43.13c0-.2-.4-.07-.31-.34m.42,4.45c-.22-.07-.23-.19,0-.29,0,0,.1.09.16.14s-.11.16-.15.15m1,21.83a.39.39,0,0,1-.48.28.36.36,0,0,1-.33-.44c0-.27.15-.41.39-.43a.45.45,0,0,1,.42.59m.53-17.52c-.24-.06-.25-.18,0-.29,0,0,.11.08.19.14s-.12.16-.16.15M22.33,27c0,.13-.1.32-.2.36a2.56,2.56,0,0,1-.64.07,3.33,3.33,0,0,1-.61-.09.58.58,0,0,1-.21-.35c0-.2.47-.94.59-.88.37.2.72.43,1.07.66,0,0,0,.16,0,.23m.13-4.27c.34.07.52,0,.6.18a.89.89,0,0,1-.6-.18m.74-6.43c-.13-.38-.59.18-.73-.19a10.51,10.51,0,0,1,1.77-.17c-.3.32-.78,0-1,.36m1.17.47a.51.51,0,0,0-.4,0V16.6s0-.07.07-.05c.05.18.31,0,.34,0,0,.17.1.14,0,.25m.9-.24s0-.07-.06-.06-.07.1-.15.11c-.21-.16.22-.35.29-.17-.13-.06.07.33-.08.12m.34-.72c.1,0,.35-.05.33.09-.21-.05-.33,0-.22.17-.09,0-.35,0-.33-.09.15,0,.22,0,.22-.17m-.19.55a1.05,1.05,0,0,1,.45.35c-.14-.08-.44-.05-.46-.23.08,0,.05-.06,0-.12m0,6.62c0-.26.38-.16.47,0-.17,0-.38-.05-.47,0m2,36.07-.13-.13.19-.14.06.13-.12.14M31.17,63l0,0c-.11,0-.24-.07-.29-.15s.05-.26.16-.17.1.2.13.32l.05,0Zm-.44-46.11c0,.17.4.52.25.14.23,0,.11.3.24.4-.22,0-.29-.16-.46-.23.24,0-.35-.21,0-.31m.36,1.22-.34,0c0-.27.38-.19.34,0m-.74-1.57a1.37,1.37,0,0,1,0,.19l-.26,0c0-.16.15-.15.28-.16m.1,2.59c-.23.11.22.16,0,.25-.32-.22-1,0-1.07-.21.88-.08,2.22-.51,3-.19a2,2,0,0,1-1.91.15m1.84-.1c.14-.09.53,0,.52.17-.17-.05-.41-.06-.52-.17m.17,3.93c.15,0,.45-.12.47.1-.14-.05-.45,0-.47-.1m1,38.69c-.15.14-.29.44-.51.14s-.56-.34-.25-.73c.13-.15.16-.27.05-.4-.08-.49,0-.52.23-.57.58-.13.88.54,1.41.52.05,0,.17.12.16.14s-.12.28-.19.29c-.41,0-.62.36-.9.61m1,.78c-.05-.06-.14-.11-.15-.17a.14.14,0,0,1,0-.09l.08-.09.15.17-.13.18m1.23-46.13c.06-.26-.18,0-.18-.21a1,1,0,0,1,.53.17c-.16,0-.16.1-.35,0m1.05,45.06a1.55,1.55,0,0,1-.29.14v.06h0c0,.21,0,.42,0,.63a.32.32,0,0,1-.13.16c-.09-.06-.23-.13-.24-.22-.06-.33.06-.55.38-.57v0l0,0c0-.17,0-.34.28-.29,0,0,0,.14,0,.15m2.39-42c.16.05.34.08.32.28-.22,0-.32-.1-.32-.28m.18-.43c0-.29-.76.06-.66-.24-.12,0-.06.21-.15.24-.56-.07-1.22-.31-1.69-.08.12-.22.15-.1,0-.26.4.12,1-.49,1.36-.13,0-.08,0-.18.09-.19,0,.27.26.05.27,0a3.75,3.75,0,0,0,1.29,0c-.1.15.12.32,0,.32s-.14-.09-.19-.14c0,.39-.23.28-.25.54m.42,45.93-.14-.16h0l.21-.16.07.15-.14.17M45,18.37c0,.08.08.09.05.19s-.14.07-.22.11,0-.26.17-.3m-.69-2.77c-.14.15-.51.13-.53-.11.17.08.43-.06.53.11M44.79,23c-.59,0-.2-.08.09-.3,0,.15-.13.12-.09.3m1.9-.09c0-.2.2-.1.16-.3.12,0,.17.06.19.14-.22-.07-.11.25-.35.16m.48,0c0-.35.28,0,.35-.23.22,0,.12.19.33.16.07-.3.38-.11.5-.27-.17.27.2,0,.4,0-.38.38-1.1.17-1.58.31M49.61,67c-.35-.34-.44.19-.68.24a.48.48,0,0,1-.56-.5.38.38,0,0,1,.38-.43,3.75,3.75,0,0,1,.49,0c.15,0,.41,0,.57.08a.7.7,0,0,1,.25.56c-.05.33-.29.21-.45.06m.56-45.88c0-.07,0-.17-.05-.19s-.22.08-.23.23.33.06.25.28c-1.13-.61-2,.77-3.07.24a.18.18,0,0,1-.15.18c-.21-.36-.7.21-.87-.14,0,.32-.52.13-.68.07-.47.4-1.15,0-1.73.3,0-.09-.21-.1-.25-.21,0,.28-.22.19-.06,0a.41.41,0,0,1-.27-.08c-.05.2.11.2,0,.31s-.14-.31-.2,0c-.18,0-.38-.23-.24-.34s.13.1.19.14c0-.25.37-.55.5-.27a1.86,1.86,0,0,1,1.88-.47c.39-.15,1-.49,1.37-.2.07-.23.52,0,.69-.14,0,.08,0,.15.12.14.95-.33,1.89-.06,2.87-.33,0,.34.48.09.59.24-.26,0-.4.2-.63.26m2,48.85c0,.07-.16.09-.27.13a.64.64,0,0,0,0,.07l0-.05.06,0a.52.52,0,0,1,.13-.29c.12-.09.23,0,.14.16m0-66.4a.66.66,0,0,1,.38.22c-.21.05.06.18,0,.26L52.3,4c0-.15.13-.12.09-.3-.12,0-.34,0-.25-.15M52.5,6.2c-.12,0-.19.16-.41.09-.05-.2.46-.13.41-.09m-1.25,6.19v-.06s0,0,0,.06v.13c-.4.16-.52.05-.83.18.08-.2.72-.24.84-.31m-.78-1.07c.12,0,.57-.15.53.11-.16,0-.49,0-.53-.11m.76-3.84c.08,0,.08-.1.09-.18.19.23.54.09.65.3-.23-.06-.64,0-.74-.12m.51-3.24c0-.18.11-.15.09-.31s-.16,0-.12-.13c.33,0,.28.44,0,.44M51,6.64c0,.18.31.14.38.28-.23-.06-.43.25-.61,0,.27.12,0-.32.23-.29M50,7.19a1,1,0,0,1,.67,0c-.1,0-.48.11-.67,0m.19-.62.14,0s0-.08.07-.06c-.08.19.21.1.18.26-.29.16-.36,0-.67,0,0,0,0,.12-.08.12a.35.35,0,0,0,0-.26c.29,0,.31.15.53.17,0-.09-.1-.11-.12-.2m.15,4.24c-.18-.07-.18.07-.34,0-.13-.23-.37-.11-.45-.28a2.16,2.16,0,0,1,.79.25m.29-4.58c-.23,0-.69.1-.87-.07.34,0,.63-.16.87.07M49.34,3.79c.31,0,.11.32,0,.44-.17-.15.12-.31,0-.44M49.18,6.3c.2,0,.17-.18.41-.1.07.29-.27.12-.24.36s.32,0,.4.1c-.23-.07-.29.41-.36.28a.3.3,0,0,0-.17-.39.37.37,0,0,1-.41,0c.12-.1.56,0,.37-.28m-.86-2.47c-.13.19-.46.18-.64.32-.2-.22.21-.12.29-.23s-.07,0-.13-.07-.24.23-.49.21c.18-.34.68-.34,1-.23m-.73.57s.08,0,.07-.06a.2.2,0,0,1-.19-.14c.14,0,.45,0,.47.1l-.2,0c.06.14-.14.29-.15.12m-1-.72c.36-.05.35.19.52.3a.93.93,0,0,1-.6-.12c.08,0,.08-.09.08-.18m-.16,1a2.29,2.29,0,0,1,0,.25c-.67,0-.17,0,0-.25m-.67-.82c-.17,0-.24,0-.21.17-.26-.24-.42.29-.62.08.06-.25.73-.49.83-.25m-.87.69c-.12.06-.77,0-.59-.18,0,.15.29.06.27,0a1.27,1.27,0,0,1-.25-.21c.13,0,.47-.1.53.11-.41,0,.2.09,0,.32m-.65,1.2c-.41-.07.11-.22-.17-.39.27.08.53,0,.52.17-.25-.06-.48.07-.35.22m.52-2c0,.08.2.25,0,.26-.23-.23-.57,0-.89.11,0-.15.13-.13.1-.31a.29.29,0,0,1-.47-.1,3.37,3.37,0,0,0,1.22,0M43.78,6c0,.08,0,.18-.08.18-.08-.16-.24.15-.42.1.13-.22-.22-.06-.18-.21A1.11,1.11,0,0,0,43.78,6m-.7-1.95c.17,0,.23-.1.27.09-.18,0-.12.23-.3.22l0-.31m-.32-2.36c0,.12.08.13.12.2s-.44.1-.47,0c.24.09.23-.11.35-.16m-.23,2.5c.06.15.34-.07.39.16-.2,0,.09.11,0,.2-.26,0-.11-.23-.25-.28s-.28.32-.41.1c.15,0,.09-.18.22-.18M42.26,5c.07.2-.23.34-.29.16.13,0,.08-.24.29-.16M42,3.87c-.21-.08-.15.15-.29.16.1-.19-.09-.16-.11-.26.17,0,.29,0,.4.1m-.43.21c-.19,0-.29.09-.48.09,0-.17.42-.22.48-.09m-1.15,0c.32,0,.37.14.54,0,0,.45.74,0,.87.2-.14.16-.56,0-.57.27s.21-.09.26.09c-.35,0-.78,0-1-.15,0,.18-.11.15-.1.31-.12,0-.14-.09-.26-.09.13-.34.27-.33.26-.61m.94,1.53c-.25,0-.31.05-.39-.16.14,0,.48-.06.39.16m-1.2-.22c-.22.09-.28,0-.54,0,0-.22.52-.1.54,0M38.06,2c0,.33.56.15.44.35a1.46,1.46,0,0,0-.6-.05c.17-.09.08-.4.16-.3m.47,2.25s0-.09,0-.13c-.22,0-.2-.11-.32-.15s-.18.12-.35.1c0-.22.3-.08.42-.16s.18.21.39.22c.17-.25.42,0,.69-.19,0,.14,0,.2.19.2,0-.06.06-.07.07-.12a.19.19,0,0,1-.19-.14c.29.07.47,0,.56-.14-.13.21.22.06.18.2s-.51-.1-.42.22c.09,0,.13-.08.27,0,0,.27-.07.32.09.51-.3,0-.2-.23-.45-.22,0,.22.2.33-.11.37a.34.34,0,0,0-.36-.41c.14.3-.48.07-.63.13s.11.21-.09.25c0-.17-.38,0-.25-.21.13,0,.21.2.27,0a1.33,1.33,0,0,0-1-.15c-.16-.41.76-.19,1-.16M37.34,1c-.09,0-.35.05-.33-.09.33.11.27-.2.5-.21,0,.2-.2.11-.17.3m-.28.11c.21,0,.52.3.25.27.13-.26-.38,0-.25-.27m.16-.94c0,.08,0,.18.05.2s.19,0,.19.08c-.21.07-.35-.06-.52-.17.1,0,.07-.2.28-.11M37.41,4c-.25,0-.32-.16-.48,0-.06-.2.58-.15.48,0M35.09,2.72c-.06-.14-.12-.26-.17-.4.21,0,.28.36.17.4M33.75,1c0,.15.29.08.32.22-.29,0-.45-.16-.75.06.06-.19.32-.15.43-.28m-1.45.38c.06-.2.27-.25.56-.2,0,.09.1.11.11.19-.28-.11-.39,0-.67,0m.05,2.34c-.27,0-.28-.13-.39-.22.19-.14.32.09.39.22M33,2.29c-.27.14.14.23.17.33-.39,0-.62-.12-.81,0,.17-.12.36-.56.64-.33m-.23-.52c.37-.06.71-.09,1-.11a.24.24,0,0,1-.29.23c0-.25-.53.09-.67-.12M32.63.68c.16.36.49.25.65.37-.16,0-.07.3-.3.23.11-.27-.25-.19-.38-.28.07-.19.06-.12,0-.32M32,1.07c.07.2.39-.13.39.16-.15.1-.61,0-.39-.16m-1.56.06c.47.06,1.05-.11,1.35,0-.39-.12-.36.24-.63.26s.1-.15,0-.2c-.31-.07-.45.19-.69.07.09,0,.05-.06,0-.12m.4.73c-.17-.07-.38.15-.47,0,.21.1.44-.3.47,0M30,1.09a.31.31,0,0,0,.05.2c-.08,0-.16,0-.14.11s-.22-.06-.26-.15A1.39,1.39,0,0,0,30,1.09M29.3,2.36c.06.09,0,.23.1.32-.13,0-.12-.09-.19-.14a.31.31,0,0,1-.43.28,3.8,3.8,0,0,0,.52-.46M26.88,3.54c-.19,0-.46,0-.46-.16a.65.65,0,0,1,.46.16m-.8-.82a1.87,1.87,0,0,0,.35-.16c-.18.18-.14.62-.4.72A.33.33,0,0,0,26,3c.28,0,.07-.2.1-.31m-.57-1.18c.07.19-.31.24-.35.09.14,0,.14-.17.35-.09M25,3.2c.09-.24.35.07.39.22-.34-.07-.52-.34-.68-.06-.08-.18,0-.5-.14-.64h.13a.84.84,0,0,0,.3.47m-.24.42a1.27,1.27,0,0,1-.93-.21c.25.07.27.08.48,0,0,.42.42-.06.45.23m-.14-1.4c-.11-.09-.43,0-.39-.22.2,0,.41,0,.39.22m-.09-.57c0-.1-.15-.08-.26-.09a.31.31,0,0,0,0-.26c.1.09.51.22.3.35m0,.18c-.33-.09-1,.16-1.2-.22.3.24.81,0,1.2.22m-.84.31c-.19-.07-.19.07-.35,0a.32.32,0,0,1,.3-.22.29.29,0,0,0,.05.19m-.68.7c0,.09.16.07.27.09s0,.23.1.32l-.27,0c0-.11.12-.15,0-.19H23c.12.12,0,.22-.21.17A1.11,1.11,0,0,1,23,2.84m-.38-.28c.08-.2-.21-.11-.18-.27.25,0,.46.22.18.27M22.36,2c-.12.15-.19.35-.38.42.06-.21.15-.39.38-.42m-3-.62c.18,0,.07-.24.29-.17-.14.25.1.5-.07.69,0-.19-.15,0-.27,0,.05-.2.3-.37.05-.5m0,.63c0,.1.08.17,0,.18-.07-.18-.16.19-.35.1,0-.22.26-.18.37-.28M19.13.31c0,.27-.21.27-.37.34,0-.26.2-.27.37-.34m-1,2c.21,0,.29-.08.54,0,0-.09-.05-.33.1-.31-.11.28.22.22.23.4-.41,0-.68.2-.87-.08m.69.63c.05-.05.48-.13.39.1-.15-.14-.28.07-.39-.1m.46.1a.91.91,0,0,0,.54.05c0,.06-.06.07-.08.12s.13,0,.13.07c-.3,0-.57.09-.59-.24m.56-.14c.06-.32.29,0,.55-.14,0,.27-.33.14-.55.14m.53-.65c.07-.11.19-.16.23-.3-.11,0-.23,0-.19-.14s.14.08.26.09c0,.18-.24.46-.3.35m1.22.67c-.12.2-.15-.14-.33-.09,0,0-.19.23,0,.25s.14-.07.21-.11a.35.35,0,0,0,.05.26c-.26,0-.72,0-.92-.33.17-.14.12.1.33.09.21-.24.12-.35-.18-.21,0-.25.36-.19.47,0a.19.19,0,0,1,.15-.18c0,.08,0,.18,0,.2a.21.21,0,0,0,.22-.11,2,2,0,0,1-.31-.34c.11-.1.43.2.31.28.17,0,.2.11.33.15.05-.23.29.07.15-.18.18.18.45-.07.6.12,0,0-.08,0-.08.05s0,.08-.07.06-.1-.08-.19-.08c.09.22,0,.23-.16.24.05.14,0,.37.24.34-.15.24-.48.29-.72.44.05-.29.41-.24.45-.53-.27,0,0-.35-.23-.33s-.06.26-.3.22.17-.19-.05-.19m.13,1.59c0,.3.21,0,.27,0,0,.19-.19.1-.16.3-.18,0-.28-.24-.11-.26m-.53-.17c.12,0,.34,0,.26.14s-.26-.06-.23.24c.1,0,.26,0,.13.07a.28.28,0,0,1-.19-.08c0-.2.17-.23,0-.37m-.33,1.42c0-.08,0-.18-.05-.2s-.2,0-.2-.07c.16,0,.21-.1.41,0,0,.15,0,.3-.16.3m.26-.61c-.17,0-.21-.11-.26-.21.29.17.88-.19,1.15,0-.22.15-.74,0-.89.18m.41.66c.12-.17.2-.4.28-.1,0,0,.08,0,.06.07-.19-.07-.18.07-.34,0m.47,0c.07-.19-.09-.19,0-.38.19,0,.22.41,0,.38M22.28,5c.14-.16-.28-.15-.05-.2.09.18.39-.15.47,0L22.28,5m.15.58s.05.07.13.07.16-.36.22-.17-.54.35-.35.1m.16-.24c0-.21.25-.23.43-.28,0,.11.06.14,0,.25-.25,0-.3-.11-.47,0m.66.18c0-.09-.09-.13-.05-.26s.28.06.33.16c-.13,0-.1.16-.28.1M24.18,5c-.06-.21.22,0,.16-.24-.1,0-.25,0-.27-.09l.34,0c0,.09.08.17.11.26-.18-.07-.18.07-.34,0m.46.1c0-.09-.08-.13,0-.26l.34,0a.26.26,0,0,1-.3.23m0-.51c.12-.12.56,0,.53.17-.3,0-.42,0-.53-.17M26,4.66c.24.16.21,0,.35-.16-.08.2.09.21.11.33-.22,0-.41,0-.46-.17m.64.37c0-.15,0-.3,0-.38.16.09.18.28.3.41l-.27,0m1.48.13c.17,0,.24,0,.22-.17.1,0,.25,0,.26.08s-.42.36-.48.09m1.11-.35a.28.28,0,0,1,.09-.18s-.07-.06,0-.06c0,.16.26.07.18.26s-.08,0-.27,0m.56-.21a.67.67,0,0,1,.4.16c-.17.07-.13,0-.35,0a.26.26,0,0,0,0-.2m.15.58c.11-.15-.29-.17,0-.25,0,.26.26,0,.32.15-.13,0-.1.16-.28.1m.24,1.1c0-.09-.11-.07-.12-.14.15,0,.25,0,.28-.1-.13,0-.33-.2-.19-.21,0,.15.37,0,.32.22-.17,0-.12.23-.29.23m.13-.62s.07,0,0,.06-.09,0-.2,0c.18-.25.11-.22,0-.44.28,0,.31,0,.46.16-.1,0-.22.08-.22.24m.34-.79c0,.1,0,.31-.16.23a.46.46,0,0,1,.31-.35c0,.15.19.16.24.27a1.51,1.51,0,0,1-.39-.15M31.06,6c0-.1-.12-.29,0-.43,0,.16,0,.27.18.26,0,0-.15-.25,0-.25,0,.12.08.13.12.2-.19,0-.11.29-.36.22m.1-1.06c.26,0,.12-.16-.06-.07,0-.07,0-.18.08-.18s0,.12.06.13a.18.18,0,0,1,.21-.11c0,.17-.21.53-.29.23m.34,0c.13,0,.18-.11.35-.09.06.19-.31.24-.35.09m.16,1.22c.12-.18,0-.59.19-.62-.08.07.18.67-.19.62m.42-.85c-.16.13-.23-.07-.48,0s.6-.19.48,0m1.23-.15c-.23-.17.37-.52.36-.22-.28-.1-.2.19-.36.22m1.24-.21c.15.18.3,0,.45.16-.16.12-.44,0-.45-.16m.14-.11c.23,0-.06-.13,0-.2s.09,0,.08-.12c.28,0,.07.25.18.27.1-.18.39-.16.63-.2a1.27,1.27,0,0,1-.84.25m0-.44c-.09.15-.14.34-.31.41,0-.41-.21,0-.39-.16.07.1.06.16-.08.19,0-.15-.19-.09-.19-.21s.29,0,.29-.16a3.79,3.79,0,0,0-1.92.28c.1.24.55-.07.54,0s-.06.13,0,.19c-.36-.06-.53.07-.74-.13.09,0,.17,0,.15-.11-.22-.09-.29,0-.4-.1.29-.5-.71-.29-.93-.2.11.11.31,0,.39.16-.1,0-.33-.1-.34,0s0,.16-.07.06a2.11,2.11,0,0,0,0-.25c-.25,0-.17-.17-.39-.16a.32.32,0,0,1-.49.21c-.05-.3.41,0,.43-.28-.26-.06-.41.22-.61,0,.13.14,0,.2-.1.3-.53-.19-.83,0-1.26-.23,0,.12.18.09.11.26-.92-.16-1.88-.06-2.82-.3,0,.25-.56,0-.29.29-.24-.38-.69,0-1.06-.28.07,0,.06-.07-.06-.06-.07.16.12.13.11.26-.12-.05-.4,0-.4-.1s.16,0,.15-.11a2.75,2.75,0,0,0-1.17.21.33.33,0,0,0,.41,0c0,.12-.09.13-.1.24-.6-.2-.77-.57-1.5-.57-.06-.25.21-.13.23-.29.2,0,.21.18.39.22.47-.26,1.31.05,1.75.08C24,4,23.85,4,24,3.8c.2,0,.22.14.32.22.1-.32.81,0,1-.24-.24,0-.25-.38,0-.31-.22.46,1,.48,1.37.49,0,.16.57,0,.66.19.08-.06,0-.23.22-.18-.09.21.45.22.64.37,0-.08.1-.08.09-.18-.19,0-.37,0-.32-.21.23.16.68.08,1.09,0-.22,0-.39-.2-.25-.28.05.18.28,0,.4,0a2,2,0,0,0,0,.23.86.86,0,0,1,.53.07c0-.2,0-.12,0-.31.16,0,.19.12.4.09,0-.23.13-.26.36-.22-.15.15-.17.11-.31.35.12,0,.3.11.41,0-.28-.3.16,0,0-.31.34-.06.64-.16,1-.24,0,.24-.36,0-.3.29l.4,0c0-.14,0-.23.16-.23-.11.59,1.17.15,1.5.63,0-.1-.09-.17-.11-.27.13,0,.14-.07.21-.1s-.14.18,0,.25.17,0,.08-.12c.28,0,.1.31.38.29,0-.4.36.06.43-.22.14.27.33,0,.6.05.08.27-.34,0-.35.16.09,0,0,.12.12.14.2-.4,1.63-.08,1.19-.41.33-.11.72.12.89,0-.05.42.25.22.5.36,0,.12-.08.13-.09.24l-.4,0c0-.25-.48-.12-.53-.11s.08.13,0,.26S36.2,4.46,36,4.5c-.06-.21.23,0,.16-.24-.19,0-.17-.1-.33-.09a1,1,0,0,1-1.1.16M36.5,6.49c-.18,0-.46.23-.55.08.25-.06-.2,0-.13-.13a1.08,1.08,0,0,0,.7-.2c0,.17-.13.12,0,.25m-.78-.38c.11,0,.4,0,.4.1-.16,0-.39.24-.4-.1M35.4,8c0-.16.32-.24.35-.1-.14.11-.13.22-.35.1m.35.6c0-.19.17-.23.24-.36.12,0,.28.06.33.15-.24,0-.27.26-.57.21m0-1.83c.18,0,.66,0,.65.25a5.49,5.49,0,0,1-.65-.25m.68,1.38c0-.17.49-.23.56-.14-.22,0-.3.17-.56.14m1.83-.66c-.06-.28.34-.39.49-.21-.25,0-.32.15-.49.21M44,9.21c-.25-.19.44.12.37.34-.24,0-.23-.24-.37-.34m.36.53c.28,0,1.43-.36,1.07.09a1.43,1.43,0,0,1-1.07-.09M45.76,7.4c.11,0,.4-.05.39.09-.27.45-.85,0-1.15,0,.24-.3.62.23,1,0,0-.22-.28.14-.19-.14m.13.76c-.13-.13-.44.11-.69.07,0-.08.8-.31.69-.07m-.47.66c-.05,0-.08,0-.08.12-.19-.23-.2.08-.4-.1.14-.06.45-.26.48,0m.51,5.4c0-.27.39-.35.44-.28a1.18,1.18,0,0,1-.44.28m-.33,0c0-.07,0-.17-.05-.19,0,.32-.24,0-.36.22.17-.08.18.23.05.19s-.2-.15-.25-.27c.18.06.15-.12.22-.17-.13,0-.12-.09-.19-.14-.17.23-.13.33-.37.41,0-.2.14-.18,0-.31.26.09.19-.2.35-.23h-.2l0-.25c.33.11.63-.17.75-.07-.1.19-.48.07-.63.2a.65.65,0,0,0,1.07.09c-.18-.06-.18.08-.34,0,.07-.22.82-.24.81.07-.48,0-.63.26-.92.42m1.41-2c0-.15-.37,0-.32-.22L47,12c0,.11.09.17,0,.19m.35-.86a.46.46,0,0,0-.28,0,1.53,1.53,0,0,1,.44-.4c0,.2-.21.12-.16.36m.45-4.12c0,.13.21.34-.1.31a.37.37,0,0,0-.31-.28,1.89,1.89,0,0,1-1.16,0c.15-.1.09,0,.27,0a.31.31,0,0,1,.09-.18c-.24-.14-.6-.19-.92-.39-.38,0-.19.32-.63.32,0-.38-.4-.32-.79-.32l0,.19c-.25-.18-.41.07-.72-.25a.24.24,0,0,1-.08.18c.14.18,1.22.34,1.08,0a1.49,1.49,0,0,0,1.33.24c-.07.11.18.22,0,.25a1,1,0,0,0-.88,0c-.1-.35-.72-.24-.88,0,.17,0,.33,0,.32.15-.39.18-.52.25-.87-.07.23,0,.44.23.61,0a.36.36,0,0,0-.19-.21c-.17.14-.22.08-.47,0,0,.27-.28.15-.37.28-.15-.14.14-.26-.11-.32s-.47-.18-.75.06c.1.1.28.14.32.28-.24,0-.15-.24-.39-.22,0,.16-.15.15-.28.16-.32-.23-.93-.09-1.19-.41-.08.11-.31.06-.42.15.16,0,.26,0,.26.15-.36-.25-1,0-.91-.39-.27,0-.48.34-.69.13.05,0,.13,0,.14,0S38.94,7,38.82,7c-.1.27-.68-.11-.9.18.11-.26-.27-.14-.31-.28.43-.12.93-.18,1.38-.26a3.65,3.65,0,0,0-1.21-.16c0,.1.36.27,0,.25-.19-.4-.71,0-1-.27.3,0,.74,0,.77-.31,0,.31.24,0,.34,0,0,.37.57.09.93.27,0-.27.19-.12.47,0-.05-.3.29-.18.37-.34.35.69,1.26.09,1.49,0-.12,0,.1.18.11.26.17,0,.27-.44.43-.22-.07.06-.25,0-.22.17.23,0,.48.07.55-.08.05.1.08.21.25.21s.35-.12.36-.22c-.09.1.5-.06.26.09-.77.38,1.45.4,1.3-.09.18,0,.14.28.38.29.13-.15.42-.13.5-.34.38,0,.58.24.81,0,.12.12,0,.18-.09.31.16.07.35.21.47,0-.15-.09-.37-.2-.11-.32.12.17.71,0,.75,0s-.06.2,0,.31c.19,0,.26.19.38.29a1.69,1.69,0,0,0,.29-.17c-.11-.11-.29-.16-.38-.28.23.14.37-.09.6,0s-.2.22,0,.25.38-.17.61-.08c0,.09,0,.17,0,.25-.34,0-.43,0-.68,0,0,.09,0,.23-.09.24-.14-.18-.71-.25-.75.13.33.08.5,0,.94.08m.54-.08c.1,0,.25,0,.27.08-.36.19.18.1.18.27-.31,0-.5-.07-.45-.35m.08,6.5a.4.4,0,0,1,.09-.31c.08,0,.2,0,.2.08-.21-.05,0,.31-.29.23m.35-.1c.1-.1.36-.37.49-.21-.28-.06-.16.33-.49.21m3-.06s.08,0,0-.06c0,.15-.2,0-.21.17s.3.12.38.22c-.11,0-.06.14,0,.19-.75-.26-1.16,0-1.65-.39.08,0,.19,0,.2-.05a.57.57,0,0,0-.41.1c0,.19.18.51.08.57-.06-.26-.43-.58-.71-.31-.07-.21.22,0,.15-.24-.09,0-.13.08-.27,0,0,.09.07.11,0,.19-.2-.09-.17.08-.28.1,0-.37.47-.17.39-.6.68-.32,1.66.17,2.45-.11.16.1,0,.13.12.2.14-.2.25,0,.48-.08,0,.15.09.2.18.26,0-.12.19-.06.16-.24s-.32,0-.33-.15c.15,0,.39-.16.41,0a.32.32,0,0,0,0,.44,1.23,1.23,0,0,1-1.13-.22m.74-7.25c.1-.23.46-.18.7-.25-.05.28-.43.21-.7.25m.75-.06c0-.32.12-.34.35-.1,0-.12.09-.13.09-.24.24.23.94-.06,1,.21a8.17,8.17,0,0,0-1.43.13m1.56.7c-.21,0-.29.12-.33-.09.2.06.15-.16.35-.1,0,.06,0,.12,0,.19M63.8,5.57c-.2-.17-.35,0-.38-.29.21,0,.4.08.38.29m-.15.93c-.2,0-.42.19-.54,0,.17,0,.44-.15.54,0m-2-2.19c0,.24-.13.58-.24.42.33,0-.07-.41.24-.42m-1.5.88a.4.4,0,0,0,0,.32c-.21-.09-.17.09-.28.11-.12-.16.19-.25.24-.43m-.64.33c.2,0-.09-.11,0-.19s.19-.11.29-.17a.47.47,0,0,0,0,.38c-.12-.07-.24.17-.27,0m.1,2.53c-.23.07-.39,0-.25-.21.22,0,.2.11.25.21m.16-3.83c-.21-.07-.22.08-.35.09a.34.34,0,0,0,0-.25.56.56,0,0,1,.39.16m-1.9,0c.31.15.2-.51.42-.22-.2.1,0,.27-.17.43,0-.14-.45-.14-.25-.21m.31.34a.26.26,0,0,1-.3.29c.08-.11.12-.28.3-.29m-.27,0a3.85,3.85,0,0,0-.68,0c0-.12-.08-.13-.12-.2.26.07.76,0,.8.2M59,4.66c-.11.09-.39,0-.36.22.28-.06.18,0,.12.2.16,0,.14-.2.35-.16-.08.25,0,.5.24.34-.07.21-.21.19,0,.37-.14.06-.32.07-.36.23,0,0,.07,0,0,.06s-.12-.22-.25-.28c-.34.13-.82.1-1.11.29,0-.21.19-.11.23-.23s-.08,0-.06-.07c-.18,0-.17.27-.37.28,0-.26-.25,0-.32-.15.17-.09.49,0,.56-.21-.15,0-.41.09-.53-.1a.36.36,0,0,0,.35-.1c-.21-.1-.42.12-.47,0,.5-.13,1.64-.63,2-.65m-.83,3.08c.15.35.74.35.81.77-.16-.1-.3.16-.33,0C59,8.3,58,8,58.18,7.74m-.76-1.32c-.22-.11-.44.14-.53,0,.22,0,.49-.3.53,0M55.48,20.76c.16-.12.12,0,.27,0,.57.06-.23.18-.27,0M55.16,6c.18-.18-.1-.19,0-.25a1.11,1.11,0,0,0,1.23-.21.25.25,0,0,0,.25.27.38.38,0,0,1,.09-.25.26.26,0,0,1,.25.28c-.66.12-1.19,0-1.85.16m1.05,8.41c.22.1.38-.22.48,0-.1.05-.26,0-.29.16.17,0,.22-.1.26.09-.18.12-.36-.11-.45-.23m.47.1c0-.2.16-.19.35-.16,0,.18-.18.17-.35.16M57.24,7c0-.13-.24,0-.33-.09,0-.4.55,0,.33.09m.1-.37c.46-.42,1.19-.06,1.37-.2,0,.13.28.28,0,.38-.12-.39-1-.24-1.2-.1,0-.22-.24.12-.2-.08M57.49,21c.6.15,1.36-.15,1.62.08A2.81,2.81,0,0,1,57.49,21m2.65-3c-.21,0-.06-.22-.32-.16,0,.08.1.16,0,.19-.36-.25-1.06-.05-1.54-.19.27,0,.83-.12,1.3-.14.24,0,.69-.07.73.18-.09,0-.16,0-.15.12m.08-9.64c.08,0,.11-.06.15-.12a.32.32,0,0,1,.26.15c-.12,0-.31.06-.41,0M60.68,18c-.27-.21.38-.39.35-.1-.24-.11-.14.17-.35.1m0-9.58c0-.17.38-.22.42-.09-.14,0-.21.13-.42.09m.42,9.36c.18.06.54,0,.6.12-.24-.06-.54.16-.6-.12m1-10.82c.11.07.33,0,.39.16-.11.09-.47.07-.39-.16m.26,1.54c.09,0,.35-.05.33.09s-.37.18-.33-.09m.8,54.78s-.1.09-.13.07-.15-.11-.14-.13c.07-.19.17-.22.26-.09s0,.1,0,.15m.87,0s-.09.07-.13.06a.44.44,0,0,1-.14-.12c.08-.16.18-.19.27-.08s0,.09,0,.14m.24-55.7c0-.15-.11-.2.09-.24,0,0,0,.12.06.13s.06-.07.14,0-.16.15-.29.16m-.12-.83c-.15-.3-.57.23-1,0,.07-.27.78,0,.57-.39a1.22,1.22,0,0,0,.94.08c0,.28-.32.19-.49.27M65,8.51c.06-.06.44-.1.47,0s-.44.09-.47,0m.1-1.82c.13-.35.46-.07.76-.19,0,.45-.46,0-.76.19m1.32.3c0-.2.2-.11.17-.3-.23-.07-.27.07-.48,0s-.23-.27,0-.32c.09.21.42,0,.61.05,0,.12.08.13.12.2-.27,0,.08.46-.38.35m.23,12.88c-.06-.33.52-.08.27,0,0-.19-.15.05-.27,0m.51,43.33c0,.06-.12.16-.13.15a.41.41,0,0,1-.2-.51c0-.09.15-.14.22-.2.24.15.18.36.11.56m.31-56.5c-.13-.27-.52,0-.59-.24.19,0,.46.09.48-.09a.32.32,0,0,1-.26-.15c.23,0,.39.17.25.28.13,0,.14-.08.21-.11s0,.33-.09.31M67.35,6c.19,0,.34,0,.39.16-.13-.05-.47.06-.39-.16m8.51.27c-.1.23.12.22.17.33a2.64,2.64,0,0,0-.53-.17c0-.19.23-.11.36-.16m-7.1-1.6c-.21,0-.53.19-.68,0,.25.06.51-.22.68,0m-.68,2.21c-.21-.23.48-.51.5-.27a.49.49,0,0,0-.5.27M71,7c.25.07.33,0,.54,0,.06.28-.55.21-.54,0m.41,13.84c.11.05.27.06.32.16-.15.14-.32.09-.32-.16M71.7,6.55c0,.08-.09.07-.09.18a1,1,0,0,0-.67,0,.59.59,0,0,0-.12-.2c-.81.29-1.56.07-2.12.27a.57.57,0,0,1,0-.13s0-.12.08-.12a23.46,23.46,0,0,1,3.68-.26c.09.11.09.28.24.34-.11-.35.58,0,.3-.35a1.1,1.1,0,0,1,.8.13c-.33-.08-.15.15-.09.24a.43.43,0,0,0-.27,0c-.15-.1,0-.27-.11-.32-.26.06-.22.2-.44.4-.23-.14-.31,0-.55,0,0-.36-.49-.06-.65-.24M73,7.1l0,.18a.51.51,0,0,0-.4,0c0-.16.12-.23.29-.23,0,.12,0,.14.13.08m2.62,14.15c-1-.14-2.76-.06-3.85-.13,0-.1.17-.1.09-.25,1.28.19,2.31-.1,3.64.12.11-.09.79-.19.75,0-.24.06-.34.27-.63.26m.74,41.54s-.09.08-.12.07-.15-.12-.14-.14c.07-.18.17-.21.26-.08s0,.1,0,.15M77,6.61c-.09,0-.25,0-.26-.09.48,0-.13-.11,0-.31a.59.59,0,0,1,.38.28s-.08,0-.08.12m8.86,58.45.3-.14v-.08l.05.06-.05,0c0,.17,0,.34-.28.3a.44.44,0,0,1,0-.16m-2.32-.14c.12,0,.24.11.36.18-.11.07-.23.19-.34.19s-.25-.11-.38-.17c.12-.07.24-.2.36-.2m-2.36,1.53c.07,0,.1.19.13.3l.06,0,0,0s0,0,0-.06a.47.47,0,0,1-.28-.14c-.08-.12,0-.24.15-.16m-2.19,0,.07.15-.13.16-.14-.15.2-.16m-1-3.83.06,0,.14.14-.13.14a.61.61,0,0,0-.07-.1l-.07-.1.07,0m.24,1.8v0c-.11,0-.25-.06-.3-.15s0-.26.16-.18.1.21.14.33l0,0Zm3-58.13c-.09,0-.07.1-.14.11s-.07-.1-.13-.14c0,.11-.1.16-.14.06s.33-.22.41,0m-.39,2c.21.09.43-.15.54,0-.08.06-.5.09-.54,0m.45-2c.47.06.76.08.93.26-.37-.14-1,.23-.93-.26m4.14-.1A.36.36,0,0,1,85.84,6c0,.22-.26.17-.37.28m.64-.32s0-.13,0-.14-.17.06-.2-.07c.28.11.42,0,.54,0-.18,0-.08.24-.29.17M89,21.62c0-.47-.42,0-.61,0,0-.44.59-.13.65-.45,0,.13.26.32,0,.44m.17-.43c0-.13.37-.27.42-.15-.16,0-.16.23-.42.15m2.65,41-.13.15-.14-.21.13-.07.07.07.07.06m.78-1.32a.2.2,0,0,1-.16.09c-.31,0-.53-.1-.54-.49v-.39l0,0v0c-.26,0-.39-.15-.4-.43h0a4.89,4.89,0,0,1-.69.42.56.56,0,0,1-.4,0c-.15-.07-.12-.2,0-.37a.8.8,0,0,0,.11-.37c0-.18-.44-.31-.06-.52a.46.46,0,0,1,.41,0,1.11,1.11,0,0,1,.64.86l0,0v0a.38.38,0,0,1,.4.43h0v.06a4.62,4.62,0,0,1,.48.28c.14.12.32.25.22.51m1.85-.65a.19.19,0,0,0,0,.23l-.06,0c-.43-.33-.94-.3-1.39-.5,0,0-.11-.11-.1-.13a.38.38,0,0,1,.16-.15,2.61,2.61,0,0,1,.42-.08c.33,0,.72-.08,1,.26a.48.48,0,0,1,0,.42M102,5.85s0,0,0,0-.22-.07-.27-.15,0-.24.15-.15.09.18.12.3h0Zm3.41,46.37s-.09.07-.13.06l-.08-.05-.07-.07.28-.08Zm2.18,0s0,0-.08,0-.1-.07-.16-.12h0l.13-.16.18.14-.07.1m1-45.51a.41.41,0,0,1-.41-.55.39.39,0,0,1,.46-.3.42.42,0,0,1,.32.46c0,.27-.14.38-.37.39m2.42-1c0-.07-.09-.14-.14-.2l.13-.07.14.13-.13.14M113.37,7c-.18.25.11.34-.13.17-.48-.32-1.12-.35-1.42-1a.23.23,0,0,1,0-.18.81.81,0,0,1,.18-.12,3.17,3.17,0,0,1,1.39.88.28.28,0,0,1,0,.22m14.1-1.12a.06.06,0,0,0,0,0h-.38v.05h0c0,.38-.7.68-.1,1.12-.08.09-.16.25-.24.26-.8,0-1.61,0-2.41,0a.32.32,0,0,1-.17-.14.16.16,0,0,1,0-.14,3.88,3.88,0,0,0,.91-.6,1.46,1.46,0,0,1,1.37-.51c.21,0,.41,0,.62,0V5.81h0c0-.18,0-.37.26-.31.06,0,.09.19.12.31h.05Zm2.18-.46c0,.12-.06.26-.13.31s-.24-.06-.15-.18.17-.1.28-.13,0,0,0-.06l0,0-.06,0m.27,1.31s-.09-.08-.13-.12l.19-.14.06.12c0,.05-.08.13-.12.14m4.4,49.9c-.59,0-1.07.38-1.61.51-.09,0-.28-.13-.31-.24a.53.53,0,0,1,.07-.43c.38-.36,1-.12,1.38-.58a5.45,5.45,0,0,1,.46.4.69.69,0,0,1,.13.2s-.08.14-.12.14m1.78-1.44L136,55l.13-.07.15.12-.14.13m.6-1.78s0,0,0-.06a5.09,5.09,0,0,1-.56,0c-.06,0-.11-.09-.16-.13s.14-.24.22-.25a.4.4,0,0,1,.5.42h.05ZM145,50.76l-.18.09a.48.48,0,0,1-.18.07.35.35,0,0,1-.42-.34.52.52,0,0,1,.11-.4.19.19,0,0,1,.18,0,.91.91,0,0,1,.41.35.45.45,0,0,1,.07.18v0Zm1.24-23-.35.14a.56.56,0,0,1-.18-.07.93.93,0,0,1-.15-.13h0a.93.93,0,0,1,.15-.13c.19-.08.38-.13.54.07a.15.15,0,0,1,0,.13m1.83-.1a1.07,1.07,0,0,0-.16.14.35.35,0,0,1-.16.08.44.44,0,0,1-.35-.13c-.12-.12.08-.31.33-.27s.23.12.34.18Zm3.08,10.76c-.09,0-.16-.15-.24-.23a.91.91,0,0,1,.37-.13c.09,0,.17.13.26.22-.14,0-.27.15-.39.14m3-.59c0,.08-.18.1-.29.14s0,0,0,0v0h0c0,.36-.25.44-.54.41-.05,0-.16-.08-.15-.11s.06-.27.12-.28a1.51,1.51,0,0,1,.3,0h.27s0,0,0,0h0c0-.12.06-.27.13-.32s.24,0,.16.18m2.43.12a1.37,1.37,0,0,0-1,.3c-.15.16-.25.17-.33,0a1.72,1.72,0,0,1-.07-.21c-.07-.32.15-.41.35-.48s.29,0,.09,0c.56,0,.77,0,1,0,.06,0,.16.12.16.13s-.12.27-.18.27m1.42-.81c.19-.09.38-.16.55.08,0,.09-.12.28-.16.27a3.62,3.62,0,0,1-.55-.2.75.75,0,0,1,.16-.15m.55,5.49s-.09.07-.12.06-.14-.1-.13-.11c.07-.17.16-.2.24-.09s0,.09,0,.14m3.25-1.73c.11,0,.21.13.32.21l-.13.11a.29.29,0,0,1-.19.11.44.44,0,0,1-.35-.14c-.12-.13.1-.34.35-.29m-1.52-13.77c0,.05,0,.14-.05.15a1.32,1.32,0,0,1-.39.1l-.08,0-.09-.09c.08-.08.14-.22.22-.22a.94.94,0,0,1,.39.1Zm1.73-9.91s-.05,0-.07,0-.09-.07-.14-.11l.27-.08v.06s0,0,0,.07l-.07,0m1.78,12.49s-.08,0-.13,0-.07-.1-.06-.12.09-.15.11-.14.19.16.08.25m.38-2.86c-.23-.07-.23-.18,0-.28,0,0,.11.09.17.14s-.12.15-.16.14m.85-9.94a1.14,1.14,0,0,1-1.2.42,1.09,1.09,0,0,1-.4,0c-.1,0-.17-.16-.26-.24.06-.05.12-.15.17-.14a2.64,2.64,0,0,0,1.39-.5c.09-.05.27.07.4.1a1.13,1.13,0,0,1-.1.37m11.31,17.79c.09,0,.16.14.24.22-.09.19-.22.26-.38.17a1.51,1.51,0,0,1-.24-.26,1,1,0,0,1,.38-.13m-5.11.81c-.23-.08-.24-.2,0-.3,0,0,.11.09.16.14s-.11.17-.14.16m.65-1.36a3.23,3.23,0,0,1-.68-.1c-.08,0-.16-.25-.16-.38a1.25,1.25,0,0,1,.15-.39c.36.49.94.31,1.38.53,0,0,.09.12.08.14a.4.4,0,0,1-.18.14c-.13,0-.28,0-.59.06m1.2,1.14c-.09.09-.17.24-.26.25a1.06,1.06,0,0,1-.39-.13c.08-.08.15-.23.24-.23s.26.07.41.11m-3.28-3.4c.3-.43.76-.73.82-1.35,0-.18.19-.17.33,0a3.63,3.63,0,0,0,.47.49c.41.34.4,0,.47-.32,0-.11.15-.19.23-.27l.34.31a1.06,1.06,0,0,1,.27,1.08c-.12.56-.56.37-.89.4s-.58.08-.81-.19c-.39-.44-.57.28-.9.21-.07,0-.15,0-.21,0s-.23-.19-.12-.33m-1.52,1.06-.14.17-.09-.07A.15.15,0,0,1,168,33c0-.05.07-.11.12-.17l.16.15m.8-.85s-.09,0-.14,0-.07-.11-.06-.13.1-.16.12-.15c.17.08.19.18.08.26m-.24-4.64h0l.34.21a3.93,3.93,0,0,1-.54.2s-.11-.17-.16-.27l.36-.14M168,31c.14-.14.23-.14.3.07a1.77,1.77,0,0,1,.08.28,1.15,1.15,0,0,1-.59.77s-.12,0-.15,0a.32.32,0,0,1-.1-.18A1.15,1.15,0,0,1,168,31m-1.42,1.8a1.24,1.24,0,0,1-.18.34c-.07-.11-.18-.21-.2-.33s.06-.35.12-.37c.26-.06.28.17.26.36m.25-1.88L167,31c0,.06-.1.16-.16.16s-.1-.09-.16-.14a1.21,1.21,0,0,0,.16-.16m7.61-11.36s-.08.11-.13.16-.15-.11-.14-.15c.07-.23.18-.24.27,0m-1.87.79a.66.66,0,0,1,.2-.06,8,8,0,0,0,3.15-.46c.68-.31,1.36.25,2,.62,0,0,0,.1,0,.15a.73.73,0,0,1-.08.09.12.12,0,0,1-.09.06c-1.23,0-2.46,0-3.69,0-.54.5-1,0-1.5-.13-.05,0-.09-.1-.13-.15s.11-.11.17-.15m-5.7-13.14-.13-.2.12-.08L167,7A.1.1,0,0,1,167,7s-.07.09-.11.14m4.81,2.89c-.06-.05-.16-.12-.16-.15.08-.23.2-.24.3,0,0,0-.09.1-.14.16M178,9.21a.42.42,0,0,1-.52.43c-.22,0-.31-.21-.32-.43h0v0h-.4v0h0c0,.07,0,.16,0,.2-.42.46-1.13.1-1.51.64-.78-.64-1.68-.26-2.52-.38-.06,0-.12-.09-.16-.15a.19.19,0,0,1,0-.14c.37-.15.7-.61,1.11-.44s.64.33,1,0,.56.34.93.22a3.08,3.08,0,0,1,1.23,0v0h.05c0-.19,0-.39.27-.33.06,0,.09.2.13.34h0v0H178s0,0,0,0l0,0H178" transform="translate(0 0)" fill="#f6e924"/></svg>