<svg xmlns="http://www.w3.org/2000/svg" xmlns:xlink="http://www.w3.org/1999/xlink" width="72" height="69.23" viewBox="0 0 72 69.23"><defs><clipPath id="a" transform="translate(0 0)"><rect width="72" height="69.23" fill="none"/></clipPath></defs><g clip-path="url(#a)"><path d="M71.41,34,60.34,22.94a2,2,0,1,0-2.83,2.83l7.66,7.66H48.62a14.7,14.7,0,0,0-10.73,4.66V6.83l7.67,7.66a2,2,0,0,0,2.82-2.83L37.31.59a2,2,0,0,0-2.83,0L23.4,11.66a2,2,0,1,0,2.83,2.83l7.66-7.66V38.09a14.66,14.66,0,0,0-10.73-4.66H6.83l7.66-7.66a2,2,0,0,0-2.83-2.83L.59,34a2,2,0,0,0,0,2.82L11.66,47.92a2,2,0,0,0,2.83-2.83L6.83,37.43H23.16A10.74,10.74,0,0,1,33.89,48.16V67.23a2,2,0,0,0,4,0V48.16A10.74,10.74,0,0,1,48.62,37.43H65.17l-7.66,7.66a2,2,0,1,0,2.83,2.83L71.41,36.84a2,2,0,0,0,0-2.82" transform="translate(0 0)" fill="#f6e924"/></g></svg>