<svg xmlns="http://www.w3.org/2000/svg" xmlns:xlink="http://www.w3.org/1999/xlink" width="72" height="67.88" viewBox="0 0 72 67.88"><defs><clipPath id="a" transform="translate(0 0)"><rect width="72" height="67.88" fill="none"/></clipPath></defs><g clip-path="url(#a)"><path d="M36,32.34A3.67,3.67,0,1,1,32.33,36,3.66,3.66,0,0,1,36,32.34m0-4A7.67,7.67,0,1,0,43.66,36,7.67,7.67,0,0,0,36,28.34" transform="translate(0 0)" fill="#f6e924"/><path d="M36,4A32,32,0,0,1,53.59,62.73a24.61,24.61,0,0,0-35.18,0A32,32,0,0,1,36,4m0-4A36,36,0,0,0,19.28,67.88a20.62,20.62,0,0,1,33.44,0A36,36,0,0,0,36,0" transform="translate(0 0)" fill="#f6e924"/><path d="M38,9a2,2,0,1,1-2-2,2,2,0,0,1,2,2" transform="translate(0 0)" fill="#f6e924"/><path d="M63,38a2,2,0,1,1,2-2,2,2,0,0,1-2,2" transform="translate(0 0)" fill="#f6e924"/><path d="M9,38a2,2,0,1,1,2-2,2,2,0,0,1-2,2" transform="translate(0 0)" fill="#f6e924"/><path d="M56.51,18.32a2,2,0,1,1,0-2.83,2,2,0,0,1,0,2.83" transform="translate(0 0)" fill="#f6e924"/><path d="M18.32,56.51a2,2,0,1,1,0-2.83,2,2,0,0,1,0,2.83" transform="translate(0 0)" fill="#f6e924"/><path d="M53.68,56.51a2,2,0,1,1,2.83,0,2,2,0,0,1-2.83,0" transform="translate(0 0)" fill="#f6e924"/><path d="M32.77,32.79h0a2,2,0,0,1-2.83,0L15.86,18.7a2,2,0,1,1,2.83-2.83L32.77,30a2,2,0,0,1,0,2.83" transform="translate(0 0)" fill="#f6e924"/></g></svg>