<svg xmlns="http://www.w3.org/2000/svg" xmlns:xlink="http://www.w3.org/1999/xlink" width="72" height="68.82" viewBox="0 0 72 68.82"><defs><clipPath id="a" transform="translate(0 0)"><rect width="72" height="68.82" fill="none"/></clipPath></defs><g clip-path="url(#a)"><path d="M37.1,68.42h0A2,2,0,0,1,34.3,68L.4,22.63a2,2,0,1,1,3.2-2.4L37.51,65.62a2,2,0,0,1-.41,2.8" transform="translate(0 0)" fill="#f6e924"/><path d="M34.67,65.74h0a2,2,0,0,1-2.52-1.28L18.65,23a2,2,0,1,1,3.8-1.24L36,63.22a2,2,0,0,1-1.28,2.52" transform="translate(0 0)" fill="#f6e924"/><path d="M37.33,65.79h0a2,2,0,0,0,2.52-1.28L53.35,23a2,2,0,0,0-3.8-1.24L36.05,63.27a2,2,0,0,0,1.28,2.52" transform="translate(0 0)" fill="#f6e924"/><path d="M26.84,1.55h0a2,2,0,0,0-2.52,1.29L18.65,20.27a2,2,0,0,0,3.8,1.24L28.12,4.07a2,2,0,0,0-1.28-2.52" transform="translate(0 0)" fill="#f6e924"/><path d="M45,1.12h0A2,2,0,0,1,47.56,2.4l5.79,17.82a2,2,0,1,1-3.8,1.24L43.75,3.64A2,2,0,0,1,45,1.12" transform="translate(0 0)" fill="#f6e924"/><path d="M17.65.42h0a2,2,0,0,0-2.8.4L.4,20.16a2,2,0,1,0,3.2,2.4L18.05,3.22a2,2,0,0,0-.4-2.8" transform="translate(0 0)" fill="#f6e924"/><path d="M34.9,68.42h0A2,2,0,0,0,37.7,68L71.6,22.63a2,2,0,1,0-3.2-2.4L34.49,65.62a2,2,0,0,0,.41,2.8" transform="translate(0 0)" fill="#f6e924"/><path d="M54.35.42h0a2,2,0,0,1,2.8.4L71.6,20.16a2,2,0,1,1-3.2,2.4L54,3.22a2,2,0,0,1,.4-2.8" transform="translate(0 0)" fill="#f6e924"/><path d="M57.52,2h0a2,2,0,0,1-2,2h-39a2,2,0,0,1,0-4h39a2,2,0,0,1,2,2" transform="translate(0 0)" fill="#f6e924"/><path d="M68.8,21.38h0a2,2,0,0,1-2,2H4.94a2,2,0,0,1,0-4H66.8a2,2,0,0,1,2,2" transform="translate(0 0)" fill="#f6e924"/></g></svg>