<svg xmlns="http://www.w3.org/2000/svg" xmlns:xlink="http://www.w3.org/1999/xlink" width="38.63" height="36.22" viewBox="0 0 38.63 36.22"><defs><clipPath id="a" transform="translate(0 0)"><rect width="38.63" height="36.22" fill="none"/></clipPath></defs><g clip-path="url(#a)"><path d="M37.63,19.11H2.39a1,1,0,0,1,0-2H37.63a1,1,0,0,1,0,2" transform="translate(0 0)" fill="#f6e924"/><path d="M18.82,1.71,1.71,18.82A1,1,0,0,1,.29,17.4L17.4.29a1,1,0,1,1,1.42,1.42" transform="translate(0 0)" fill="#f6e924"/><path d="M17.4,35.92.29,18.82A1,1,0,0,1,1.71,17.4L18.82,34.51a1,1,0,1,1-1.42,1.41" transform="translate(0 0)" fill="#f6e924"/></g></svg>