<svg xmlns="http://www.w3.org/2000/svg" xmlns:xlink="http://www.w3.org/1999/xlink" width="428.65" height="436.1" viewBox="0 0 428.65 436.1"><defs><clipPath id="a" transform="translate(0 0)"><rect width="428.65" height="436.1" fill="none"/></clipPath></defs><g clip-path="url(#a)"><path d="M147,297.82c0,76.41,63.05,138.28,140.83,138.28s140.82-61.87,140.82-138.28c0-97.94-109.29-161.54-118.11-270.56V22.71a22.72,22.72,0,0,0-45.43,0v4.55C256,136.28,147,199.88,147,297.82m160.36,56.52c19.63-4.55,35.24-21.26,39.79-39.53A18.18,18.18,0,0,1,383.22,318c0,13.08-11,33-26,47.88-14.72,14.54-32.26,24.81-46.7,24.81a18.46,18.46,0,0,1-18.17-18.44,18.22,18.22,0,0,1,15-17.9" transform="translate(0 0)" fill="#010101" fill-rule="evenodd"/><path d="M122,297.82c0-56.95,30.74-102.18,60.48-145.92,5.8-8.54,11.54-17,17-25.45-18.16-29.87-32.95-61.87-36-99.19V22.71a22.72,22.72,0,0,0-45.43,0v4.55C109,136.28,0,199.88,0,297.82,0,374.23,63.05,436.1,140.82,436.1a143.06,143.06,0,0,0,47.21-8C148,398.3,122,351,122,297.82" transform="translate(0 0)" fill="#010101"/></g></svg>