<svg xmlns="http://www.w3.org/2000/svg" xmlns:xlink="http://www.w3.org/1999/xlink" width="20.03" height="20" viewBox="0 0 20.03 20"><defs><clipPath id="a" transform="translate(0)"><rect width="20.03" height="20" fill="none"/></clipPath></defs><g clip-path="url(#a)"><path d="M10,0c2.76,0,5,2.69,5,6s-2.24,6-5,6S5,9.31,5,6s2.23-6,5-6" transform="translate(0)"/><path d="M19.82,17.1A9.11,9.11,0,0,0,15,12.9a2.24,2.24,0,0,0-1.8.1,6,6,0,0,1-3.2.9,6,6,0,0,1-3.2-.9A2.25,2.25,0,0,0,5,13a9.11,9.11,0,0,0-4.8,4.2A2,2,0,0,0,2.12,20h15.8a2,2,0,0,0,1.9-2.9" transform="translate(0)"/></g></svg>