<svg xmlns="http://www.w3.org/2000/svg" xmlns:xlink="http://www.w3.org/1999/xlink" width="402.53" height="471.99" viewBox="0 0 402.53 471.99"><defs><clipPath id="a" transform="translate(0 0)"><rect width="402.52" height="471.99" fill="none"/></clipPath></defs><g clip-path="url(#a)"><path d="M402.07,128.05v-.35c-.2-4.54-.34-9.33-.42-14.67a50.07,50.07,0,0,0-47.17-49C300.07,61,258.05,43.31,222.1,8.34l-.3-.3a30.3,30.3,0,0,0-41.11,0l-.31.3C144.49,43.34,102.38,61,48.06,64A50,50,0,0,0,.89,113c-.08,5.3-.22,10.14-.42,14.67v.84C-.59,183.86-1.9,252.76,21.17,315.27c12.69,34.37,31.9,64.26,57.11,88.82,28.71,28,66.31,50.18,111.71,66a35.43,35.43,0,0,0,4.62,1.25,34.06,34.06,0,0,0,17.9-1.26c45.4-15.84,83-38.06,111.64-66,25.19-24.58,44.41-54.47,57.1-88.85,23.15-62.73,21.84-131.74,20.82-187.18m-104.19,95.1a15.68,15.68,0,0,1-5.75,7.76l-30.87,23.73a15.45,15.45,0,0,0-5.54,17.41L268,311.61a15,15,0,0,1-5.54,17.4,16.19,16.19,0,0,1-18.58,0l-32.41-23.34a16.25,16.25,0,0,0-15-1.88,15.83,15.83,0,0,0-3.57,1.88l-28.12,20.25-4.3,3.09a15.81,15.81,0,0,1-24.11-17.4l.61-1.9,12-37.66A15.83,15.83,0,0,0,143,254.64L110.73,231a15.07,15.07,0,0,1-5.54-17.41,15.46,15.46,0,0,1,14.63-10.68h39.44a16.2,16.2,0,0,0,15-11.08l12.25-39.56.06-.19a15.41,15.41,0,0,1,29.53,0l.06.19,12.65,39.56a15.74,15.74,0,0,0,2.68,5.19,15.34,15.34,0,0,0,11.95,5.89H283a16.15,16.15,0,0,1,9.18,3,12.25,12.25,0,0,1,1.32,1.06,15.92,15.92,0,0,1,4.52,6.62,15.72,15.72,0,0,1-.11,9.57" transform="translate(0 0)"/></g></svg>