<svg xmlns="http://www.w3.org/2000/svg" xmlns:xlink="http://www.w3.org/1999/xlink" width="71.98" height="69" viewBox="0 0 71.98 69"><defs><clipPath id="a" transform="translate(0 0)"><rect width="71.98" height="69" fill="none"/></clipPath></defs><g clip-path="url(#a)"><path d="M20.91,16.32a4.6,4.6,0,1,1-4.59,4.59,4.6,4.6,0,0,1,4.59-4.59m0-4a8.6,8.6,0,1,0,8.6,8.59,8.6,8.6,0,0,0-8.6-8.59" transform="translate(0 0)" fill="#f6e924"/><path d="M49.5,37.94a7.5,7.5,0,1,1-7.5,7.5,7.5,7.5,0,0,1,7.5-7.5m0-4A11.5,11.5,0,1,0,61,45.44a11.5,11.5,0,0,0-11.5-11.5" transform="translate(0 0)" fill="#f6e924"/><path d="M20.91,4A16.91,16.91,0,1,1,4,20.91,16.94,16.94,0,0,1,20.91,4m0-4A20.91,20.91,0,1,0,41.83,20.91,20.91,20.91,0,0,0,20.91,0" transform="translate(0 0)" fill="#f6e924"/><path d="M61,67h0a2,2,0,0,1-2,2H13.34a2,2,0,0,1,0-4H59a2,2,0,0,1,2,2" transform="translate(0 0)" fill="#f6e924"/><path d="M65.77,6.91h0a2,2,0,0,1-2,2H52a2,2,0,0,1,0-4H63.77a2,2,0,0,1,2,2" transform="translate(0 0)" fill="#f6e924"/><path d="M72,14.91h0a2,2,0,0,1-2,2H52a2,2,0,0,1,0-4H70a2,2,0,0,1,2,2" transform="translate(0 0)" fill="#f6e924"/><path d="M65.77,22.91h0a2,2,0,0,1-2,2H52a2,2,0,0,1,0-4H63.77a2,2,0,0,1,2,2" transform="translate(0 0)" fill="#f6e924"/><rect x="36.46" y="30.35" width="4" height="10.99" transform="translate(-13.84 41.26) rotate(-48.89)" fill="#f6e924"/><rect x="29.59" y="57.9" width="18.82" height="4" transform="translate(-32.26 54.29) rotate(-52.43)" fill="#f6e924"/></g></svg>