<svg xmlns="http://www.w3.org/2000/svg" xmlns:xlink="http://www.w3.org/1999/xlink" width="28" height="23" viewBox="0 0 28 23"><defs><clipPath id="a" transform="translate(0 0)"><rect width="28" height="23" fill="none"/></clipPath></defs><g clip-path="url(#a)"><path d="M26,8h1a.94.94,0,0,0,1-1,.94.94,0,0,0-1-1H24.2L23,3a5.05,5.05,0,0,0-4.6-3H9.7A5.09,5.09,0,0,0,5,3L3.7,6H1A.94.94,0,0,0,0,7,.94.94,0,0,0,1,8H2a5.07,5.07,0,0,0-2,4v4a2.87,2.87,0,0,0,1,2.2V20a3,3,0,0,0,3,3H6a3,3,0,0,0,3-3V19H19v1a3,3,0,0,0,3,3h2a3,3,0,0,0,3-3V18.2A2.87,2.87,0,0,0,28,16V12a5.07,5.07,0,0,0-2-4m-1,5a.94.94,0,0,1-1,1H21a1,1,0,0,1,0-2h3a.94.94,0,0,1,1,1M4,12H7a1,1,0,0,1,0,2H4a1,1,0,0,1,0-2m4.4,5,1.2-2.3A3,3,0,0,1,12.3,13h3.5a3,3,0,0,1,2.7,1.7L19.7,17ZM6.9,3.8A2.94,2.94,0,0,1,9.6,2h8.7a3.08,3.08,0,0,1,2.8,1.8L22.5,7H5.5Z" transform="translate(0 0)"/></g></svg>