<svg
 xmlns="http://www.w3.org/2000/svg"
 xmlns:xlink="http://www.w3.org/1999/xlink"
 width="72px" height="55px">
<path fill-rule="evenodd"  fill="rgb(246, 233, 35)"
 d="M70.755,11.713 L57.518,47.402 C56.695,49.504 55.719,51.137 54.593,52.297 C53.463,53.451 51.770,54.034 49.514,54.034 L44.281,54.034 C42.636,54.034 41.457,53.402 40.740,52.139 C40.019,50.875 39.764,49.296 39.971,47.402 L45.820,9.502 C46.229,6.975 46.998,4.922 48.128,3.343 C49.254,1.764 51.053,0.974 53.516,0.974 L67.368,0.974 C68.802,0.974 69.932,1.503 70.755,2.554 C71.572,3.610 71.986,4.764 71.986,6.028 C71.986,7.923 71.572,9.818 70.755,11.713 ZM18.575,47.402 C17.753,49.504 16.776,51.137 15.651,52.297 C14.520,53.451 12.827,54.034 10.571,54.034 L5.338,54.034 C3.693,54.034 2.515,53.402 1.798,52.139 C1.076,50.875 0.821,49.296 1.028,47.402 L6.877,9.502 C7.286,6.975 8.056,4.922 9.186,3.343 C10.312,1.764 12.110,0.974 14.573,0.974 L28.426,0.974 C29.859,0.974 30.990,1.503 31.812,2.554 C32.630,3.610 33.044,4.764 33.044,6.028 C33.044,7.923 32.630,9.818 31.812,11.713 L18.575,47.402 Z"/>
</svg>