<svg width="0" height="0" class="hidden">
  <symbol xmlns="http://www.w3.org/2000/svg" xmlns:xlink="http://www.w3.org/1999/xlink" viewBox="0 0 19.11 36.22" id="ic_arrow_hor">
    <path d="M18.82,1.71,1.71,18.82A1,1,0,0,1,.29,17.4L17.4.29a1,1,0,1,1,1.42,1.42" transform="translate(0 0)" fill="currentColor"></path>
    <path d="M17.4,35.92.29,18.82A1,1,0,0,1,1.71,17.4L18.82,34.51a1,1,0,1,1-1.42,1.41" transform="translate(0 0)" fill="currentColor"></path>
  </symbol>
  <symbol xmlns="http://www.w3.org/2000/svg" xmlns:xlink="http://www.w3.org/1999/xlink" viewBox="0 0 27.26 27.26" id="ic_close">
    <defs>
      <clipPath id="a" transform="translate(0 0)">
        <rect width="27.26" height="27.26" fill="none"></rect>
      </clipPath>
    </defs>
    <g clip-path="url(#a)">
      <path d="M2,.6,26.66,25.24a1,1,0,0,1-1.42,1.42L.6,2A1,1,0,0,1,2,.6" transform="translate(0 0)" fill="currentColor"></path>
      <path d="M27,1.71,1.71,27A1,1,0,0,1,.29,25.55L25.55.29A1,1,0,1,1,27,1.71" transform="translate(0 0)" fill="currentColor"></path>
    </g>
  </symbol>
  <symbol xmlns="http://www.w3.org/2000/svg" xmlns:xlink="http://www.w3.org/1999/xlink" viewBox="0 0 19.96 18.96" id="ic_file">
    <path d="M7,19A7,7,0,0,1,2,7.05L7.66,1.46a5,5,0,0,1,7.06,7.05L9.07,14.14A3,3,0,0,1,4.83,9.87l5.65-5.63a1,1,0,0,1,1.42,0h0a1,1,0,0,1,0,1.41L6.25,11.28a1,1,0,0,0,1.41,1.41l5.65-5.64A3,3,0,0,0,9.07,2.84L3.42,8.46a5,5,0,0,0,7.06,7l7.77-7.74a1,1,0,0,1,1.41,0h0a1,1,0,0,1,0,1.41L11.9,16.88A7,7,0,0,1,7,19" transform="translate(0 0)" fill="currentColor"></path>
  </symbol>
  <symbol xmlns="http://www.w3.org/2000/svg" xmlns:xlink="http://www.w3.org/1999/xlink" viewBox="0 0 15.21 20" id="ic_location">
    <path d="M7.6,0A7.6,7.6,0,0,0,0,7.6c0,3.77,3.55,6.93,4.13,7.51A14,14,0,0,1,7.6,20a14.23,14.23,0,0,1,3.47-4.89c.58-.58,4.14-3.74,4.14-7.51A7.61,7.61,0,0,0,7.6,0m0,11A3.41,3.41,0,1,1,11,7.58,3.41,3.41,0,0,1,7.6,11" transform="translate(0 0)" fill="currentColor"></path>
  </symbol>
  <symbol xmlns="http://www.w3.org/2000/svg" xmlns:xlink="http://www.w3.org/1999/xlink" viewBox="0 0 20 14" id="ic_menu">
    <path d="M19,2H7A1,1,0,0,1,7,0H19a1,1,0,0,1,0,2" transform="translate(0 0)" fill="currentColor"></path>
    <path d="M19,8H1A1,1,0,0,1,1,6H19a1,1,0,0,1,0,2" transform="translate(0 0)" fill="currentColor"></path>
    <path d="M19,14H11a1,1,0,0,1,0-2h8a1,1,0,0,1,0,2" transform="translate(0 0)" fill="currentColor"></path>
  </symbol>
  <symbol xmlns="http://www.w3.org/2000/svg" xmlns:xlink="http://www.w3.org/1999/xlink" viewBox="0 0 32.1 26.82" id="ic_service">
    <path d="M8.4,17l1.2-2.3A3,3,0,0,1,12.3,13H16a10,10,0,0,1,8-4,9.74,9.74,0,0,1,3.4.6A7.31,7.31,0,0,0,26,8h1a.94.94,0,0,0,1-1,.94.94,0,0,0-1-1H24.2L23,3a5.05,5.05,0,0,0-4.6-3H9.6A5.05,5.05,0,0,0,5,3L3.7,6H1A.94.94,0,0,0,0,7,.94.94,0,0,0,1,8H2a5.07,5.07,0,0,0-2,4v4a2.87,2.87,0,0,0,1,2.2V20a3,3,0,0,0,3,3H6a3,3,0,0,0,3-3V19h5a12.31,12.31,0,0,1,.2-2ZM7,14H4a1,1,0,0,1,0-2H7a1,1,0,0,1,0,2M5.5,7,6.9,3.8A2.94,2.94,0,0,1,9.6,2h8.7a3.08,3.08,0,0,1,2.8,1.8L22.5,7Z" transform="translate(0 0)" fill="currentColor"></path>
    <path d="M31.7,16.9a1,1,0,0,0-1.2-.7c-.7.2-1.2,0-1.3-.2s0-.7.5-1.3a1,1,0,0,0,0-1.4,8.18,8.18,0,0,0-3.6-2.1,1,1,0,0,0-1.2.7c-.2.7-.6,1-.9,1s-.6-.4-.9-1a1.09,1.09,0,0,0-1.2-.7,8.18,8.18,0,0,0-3.6,2.1,1,1,0,0,0,0,1.4,1.36,1.36,0,0,1,.5,1.3c-.1.2-.6.4-1.3.2a1,1,0,0,0-1.2.7,7.5,7.5,0,0,0,0,4.2,1,1,0,0,0,1.2.7c.7-.2,1.2,0,1.3.2s0,.7-.5,1.3a1,1,0,0,0,0,1.4,8.18,8.18,0,0,0,3.6,2.1,1,1,0,0,0,1.2-.7c.2-.7.6-1,.9-1s.6.4.9,1a1,1,0,0,0,1,.7h.3a8.18,8.18,0,0,0,3.6-2.1,1,1,0,0,0,0-1.4,1.36,1.36,0,0,1-.5-1.3c.1-.2.6-.4,1.3-.2a1,1,0,0,0,1.2-.7,7.61,7.61,0,0,0,.3-2.1,7.79,7.79,0,0,0-.4-2.1M24,22a3,3,0,1,1,3-3,2.95,2.95,0,0,1-3,3" transform="translate(0 0)" fill="currentColor"></path>
  </symbol>
  <symbol xmlns="http://www.w3.org/2000/svg" xmlns:xlink="http://www.w3.org/1999/xlink" viewBox="0 0 21.69 18.19" id="ic_telegram">
    <path d="M21.63,1.66,18.36,17.09c-.25,1.09-.9,1.36-1.81.85l-5-3.68-2.4,2.32a1.25,1.25,0,0,1-1,.49L8.51,12l9.24-8.35c.41-.36-.08-.56-.62-.2L5.7,10.63.78,9.09C-.29,8.76-.31,8,1,7.51L20.25.1c.89-.34,1.67.2,1.38,1.56" transform="translate(0 0)" fill="currentColor"></path>
  </symbol>
  <symbol xmlns="http://www.w3.org/2000/svg" xmlns:xlink="http://www.w3.org/1999/xlink" viewBox="0 0 26.69 16" id="ic_vk">
    <path d="M14.25,16c.89,0,.89-1.28.89-1.78a1.91,1.91,0,0,1,1.78-1.77c.88,0,2.41,1.52,3.55,2.66.89.89.89.89,1.78.89h2.66a1.8,1.8,0,0,0,1.78-1.78c0-.55-.61-1.49-2.67-3.55-1.77-1.78-2.68-.86,0-4.44C25.66,4,26.85,2.06,26.65,1.49S21.9.08,21.36.89a32.75,32.75,0,0,0-2.67,4.44C17.8,7.11,17.72,8,16.92,8S16,6.27,16,5.33c0-2.94.42-5-.89-5.33H12.48A5.14,5.14,0,0,0,9.81.89s-1.11.86-.89.89,1.78-.37,1.78.89V4.44S10.7,8,9.81,8,7.14,4.44,5.37,1.78c-.7-1-.89-.89-1.78-.89S1.82.93.93.93s-1,.56-.89.85C1.81,6.22,3.09,9,6.47,12.52c3.09,3.23,5.16,3.4,6.89,3.47.45,0,0,0,.89,0" transform="translate(0 0)" fill="currentColor"></path>
  </symbol>
  <symbol xmlns="http://www.w3.org/2000/svg" xmlns:xlink="http://www.w3.org/1999/xlink" viewBox="0 0 18.1 18.19" id="ic_whatsapp">
    <path d="M15.47,2.64A9,9,0,0,0,.08,9a8.91,8.91,0,0,0,1.2,4.51L0,18.19l4.78-1.25A9.1,9.1,0,0,0,9.09,18h0A9,9,0,0,0,15.47,2.64m-2,9.59A2.35,2.35,0,0,1,12,13.31a3.23,3.23,0,0,1-1.42-.09c-.33-.11-.75-.25-1.28-.48a10,10,0,0,1-3.85-3.4A4.4,4.4,0,0,1,4.51,7,2.52,2.52,0,0,1,5.3,5.13a.83.83,0,0,1,.6-.28h.43c.14,0,.32-.05.51.38s.64,1.56.69,1.68a.41.41,0,0,1,0,.39,1.25,1.25,0,0,1-.23.38c-.11.13-.23.29-.33.39a.32.32,0,0,0-.1.46A6.66,6.66,0,0,0,8.14,10.1,6.11,6.11,0,0,0,10,11.22c.23.11.36.09.49-.06s.56-.65.71-.88.3-.19.51-.11,1.31.62,1.54.73a1.23,1.23,0,0,1,.43.26,1.82,1.82,0,0,1-.13,1.07" transform="translate(0 0)" fill="currentColor" fill-rule="evenodd"></path>
  </symbol>
  <symbol xmlns="http://www.w3.org/2000/svg" xmlns:xlink="http://www.w3.org/1999/xlink" viewBox="0 0 24.92 17.51" id="ic_youtube">
    <path d="M12.62,17.51c-2.8-.08-5.46-.15-8.13-.26A9,9,0,0,1,2.78,17,2.86,2.86,0,0,1,.63,15.1a10.33,10.33,0,0,1-.49-2.57A50.49,50.49,0,0,1,.05,6.38,15.4,15.4,0,0,1,.44,2.93a3.51,3.51,0,0,1,1-1.81,3.11,3.11,0,0,1,2-.86C5.51.16,7.6,0,9.7,0c2.83,0,5.65,0,8.48.06a34.43,34.43,0,0,1,3.66.25,2.85,2.85,0,0,1,2.38,1.84,8.49,8.49,0,0,1,.54,2.58,49.06,49.06,0,0,1,.09,6.64,14,14,0,0,1-.43,3.34A3.09,3.09,0,0,1,22,17.09a8.75,8.75,0,0,1-1.54.17l-7.85.25M9.91,11.94l6.7-3.48L9.91,5Z" transform="translate(0 0)" fill="currentColor"></path>
  </symbol>
</svg>